<?xml version="1.0" encoding="iso-8859-1"?>
<!-- Generator: Adobe Illustrator 19.0.0, SVG Export Plug-In . SVG Version: 6.00 Build 0)  -->
<svg version="1.1" id="Layer_1" xmlns="http://www.w3.org/2000/svg" xmlns:xlink="http://www.w3.org/1999/xlink" x="0px" y="0px"
	 viewBox="0 0 511.999 511.999" style="enable-background:new 0 0 511.999 511.999;" xml:space="preserve">
<path style="fill:#EA3434;" d="M287.613,81.985C330.676,65.472,345.03,9.582,345.03,9.582H230.197
	C230.197,9.582,244.551,65.472,287.613,81.985z"/>
<path style="fill:#FF433F;" d="M410.174,350.781V183.294v-24.648l0.13,0.063v-0.063l46.4,22.306
	c4.281,1.494,12.365,2.444,17.945-8.324c2.445-4.723,6.787-13.099,11.612-22.414l0.29-0.56
	c6.493-12.532,13.807-26.649,18.565-35.835l5.217-10.07c0.69-1.38,4.342-9.407-2.032-13.63c-0.001,0-0.001-0.001-0.003-0.002
	l-28.103-18.62l-21.902-14.51l-31.555-20.906l-81.59-26.46c-0.243,0.811-12.026,39.676-45.564,57.767
	c-2.478,1.164-6.537,2.542-11.679,2.489c-0.077,0.002-0.15,0-0.226,0.001c-0.076-0.001-0.149,0-0.226-0.001
	c-5.142,0.053-9.201-1.325-11.679-2.489c-33.539-18.091-45.321-56.956-45.564-57.767l-81.59,26.462l-31.555,20.905l-21.902,14.51
	l-28.103,18.62c-0.002,0.001-0.002,0.001-0.003,0.002c-6.374,4.223-2.722,12.25-2.032,13.63l5.217,10.07
	c4.758,9.184,12.073,23.302,18.565,35.835l0.29,0.56c4.826,9.315,9.166,17.691,11.612,22.414c5.58,10.769,13.664,9.818,17.945,8.324
	l46.4-22.306v0.063l0.13-0.063v24.648v167.487c0,20.117,16.309,36.427,36.426,36.427h34.305h0.13h103.271h0.13h34.305
	C393.867,387.208,410.174,370.898,410.174,350.781z"/>
<rect x="345.035" y="263.068" style="fill:#C12323;" width="22.599" height="124.149"/>
<path style="fill:#3797D3;" d="M222.746,207.411c43.062-18.844,57.417-82.619,57.417-82.619H165.33
	C165.33,124.793,179.684,188.567,222.746,207.411z"/>
<path style="fill:#48ADE1;" d="M345.193,488.857V356.62v-82.764l0.114,0.055v-0.055l42.8,20.577
	c11.77,5.653,17.763-0.32,19.962-3.509l35.928-69.349c4.14-10.152-2.058-16.724-5.313-19.316l-76.928-50.965l-81.605-26.466
	c-0.214,0.72-12.638,41.838-48.401,59.225c-0.164,0.061-0.32,0.107-0.481,0.164c-0.21,0.101-0.41,0.211-0.621,0.31
	c-1.372,0.571-4.12,1.431-7.959,1.342c-3.84,0.089-6.588-0.772-7.961-1.342c-0.21-0.098-0.41-0.21-0.62-0.31
	c-0.163-0.057-0.318-0.104-0.482-0.164c-35.762-17.386-48.186-58.504-48.4-59.225L83.62,151.294L6.692,202.257
	c-3.257,2.592-9.453,9.164-5.313,19.316l35.93,69.349c2.198,3.189,8.192,9.162,19.961,3.509l42.8-20.577v0.055l0.114-0.055v82.764
	v132.239c0,7.488,6.071,13.56,13.56,13.56h108.889h0.115h108.888C339.123,502.417,345.193,496.346,345.193,488.857z"/>
<path style="fill:#3797D3;" d="M213.626,184.05c0.165,0.061,0.32,0.107,0.482,0.164c0.21,0.101,0.409,0.211,0.62,0.31
	c1.373,0.571,4.12,1.431,7.961,1.342c3.84,0.089,6.588-0.772,7.959-1.342c0.211-0.098,0.411-0.21,0.621-0.31
	c0.162-0.056,0.318-0.104,0.481-0.164c35.763-17.386,48.187-58.504,48.401-59.225l0.002,0.001c0.005-0.017,0.009-0.034,0.009-0.034
	H165.33c0,0,0.114,0.504,0.347,1.42C168.172,133.57,181.449,168.408,213.626,184.05z"/>
<path style="fill:#178BAF;" d="M245.287,175.208c-3.84,0.073-6.588-0.636-7.961-1.107c-0.21-0.081-0.41-0.173-0.62-0.255
	c-0.163-0.047-0.318-0.086-0.482-0.136c-32.177-12.913-45.454-41.671-47.95-47.743c-0.233-0.757-0.347-1.173-0.347-1.173h-22.599
	c0,0,0.114,0.504,0.347,1.42c2.496,7.357,15.773,42.195,47.95,57.837c0.165,0.061,0.32,0.107,0.482,0.164
	c0.21,0.101,0.409,0.211,0.62,0.31c1.373,0.571,4.12,1.431,7.961,1.342c3.84,0.089,6.588-0.772,7.959-1.342
	c0.211-0.098,0.411-0.21,0.621-0.31c0.162-0.057,0.318-0.104,0.481-0.164c5.171-2.514,9.839-5.532,14.067-8.845
	C245.639,175.206,245.472,175.212,245.287,175.208z"/>
<path style="fill:#C12323;" d="M310.155,59.998c-3.84,0.073-6.588-0.636-7.958-1.107c-0.212-0.081-0.411-0.173-0.623-0.255
	c-0.162-0.047-0.318-0.086-0.481-0.136c-32.177-12.913-45.453-41.671-47.95-47.743c-0.233-0.757-0.348-1.173-0.348-1.173h-22.599
	c0,0,0.115,0.504,0.348,1.42c2.497,7.357,15.773,42.195,47.95,57.837c0.164,0.061,0.32,0.107,0.481,0.165
	c0.21,0.101,0.41,0.211,0.623,0.31c1.371,0.571,4.119,1.431,7.958,1.342c3.841,0.089,6.588-0.772,7.961-1.342
	c0.212-0.098,0.41-0.21,0.62-0.31c0.164-0.057,0.319-0.104,0.484-0.165c5.17-2.514,9.836-5.532,14.065-8.845
	C310.507,59.996,310.338,60.001,310.155,59.998z"/>
<path style="fill:#008CB7;" d="M105.166,273.919h-4.983v82.702v132.237c0,7.488,6.071,13.56,13.56,13.56h9.04V292.159
	C122.781,277.596,111.819,274.475,105.166,273.919z"/>
<polyline style="fill:#72CBED;" points="266.479,336.08 100.182,336.08 100.182,311.221 345.03,311.221 345.03,336.08 
	293.598,336.08 "/>
<polyline style="fill:#5CBFD6;" points="115.531,336.08 100.182,336.08 100.182,311.221 122.781,311.221 122.781,336.08 
	118.035,336.08 "/>
<g>
</g>
<g>
</g>
<g>
</g>
<g>
</g>
<g>
</g>
<g>
</g>
<g>
</g>
<g>
</g>
<g>
</g>
<g>
</g>
<g>
</g>
<g>
</g>
<g>
</g>
<g>
</g>
<g>
</g>
</svg>
