<?xml version="1.0" encoding="iso-8859-1"?>
<!-- Generator: Adobe Illustrator 19.0.0, SVG Export Plug-In . SVG Version: 6.00 Build 0)  -->
<svg xmlns="http://www.w3.org/2000/svg" xmlns:xlink="http://www.w3.org/1999/xlink" version="1.1" id="Capa_1" x="0px" y="0px" viewBox="0 0 496 496" style="enable-background:new 0 0 496 496;" xml:space="preserve" width="512px" height="512px">
<g>
	<g>
		<g>
			<path d="M480,304h-48V32c0-17.648-14.352-32-32-32s-32,14.352-32,32v108.688L240.968,13.656C232.168,4.848,220.456,0,208,0     s-24.168,4.848-32.968,13.656L136,52.688V16c0-8.824-7.176-16-16-16H40c-8.824,0-16,7.176-16,16v148.688l-13.368,13.368     C3.776,184.912,0,194.056,0,204.264c0,15.544,10.072,28.672,24,33.576V296v48v56c0,8.824,7.176,16,16,16h280v64     c0,8.824,7.176,16,16,16h128c8.824,0,16-7.176,16-16V352c8.824,0,16-7.176,16-16v-16C496,311.176,488.824,304,480,304z M384,32     c0-8.824,7.176-16,16-16c8.824,0,16,7.176,16,16v272h-32V32z M360,155.312l8,8v56.96c-0.928-0.656-1.808-1.392-2.632-2.208     L360,212.688V155.312z M312,107.312l32,32v57.376l-32-32V107.312z M264,59.312l32,32v57.376l-32-32V59.312z M216,17.424     c5.064,1.304,9.848,3.728,13.656,7.544L248,43.312v58.28c-9.336-7.16-20.304-11.656-32-13.064V17.424z M168,43.312l18.344-18.344     c3.816-3.816,8.592-6.24,13.656-7.544v71.104c-11.696,1.408-22.664,5.896-32,13.064V43.312z M152,59.312v57.376l-32,32V91.312     L152,59.312z M40,112h16V96H40V80h16V64H40V48h32V32H40V16h80v48H72v16h36.688L40,148.688V112z M104,107.312v57.376l-32,32     v-57.376L104,107.312z M36.84,224h-0.992C24.904,224,16,215.144,16,203.816c0-5.488,2.112-10.616,5.944-14.448L56,155.312v57.376     l-5.76,5.76C46.664,222.024,41.904,224,36.84,224z M40,312h160l0.008,16H40V312z M56,400H40v-56h16V400z M88,400H72v-56h16V400z      M120,400h-16v-56h16V400z M152,400h-16v-56h16V400z M184,400h-16v-56h16V400z M320,400H200v-56c8.824,0,16-7.176,16-16v-16     c0-8.824-7.176-16-16-16H40v-56.312c8.128-0.728,15.704-4.08,21.552-9.928l111.136-111.144C182.12,109.192,194.664,104,208,104     s25.88,5.192,35.312,14.624l110.744,110.744c3.968,3.968,8.728,6.832,13.944,8.608V304h-48c-8.824,0-16,7.176-16,16v16     c0,8.824,7.176,16,16,16V400z M464,480h-24v-56h-16v56h-48v-88h-16v88h-24V352h128V480z M480,336H320l-0.008-16H320h48h64h48V336     z" fill="#91DC5A"/>
			<rect x="424" y="392" width="16" height="16" fill="#91DC5A"/>
			<path d="M208,152c-35.288,0-64,28.712-64,64c0,35.288,28.712,64,64,64c35.288,0,64-28.712,64-64C272,180.712,243.288,152,208,152     z M200,263.28c-20.056-3.392-35.888-19.224-39.28-39.28H200V263.28z M200,208h-39.28c3.392-20.056,19.224-35.888,39.28-39.28V208     z M216,263.28V224h39.28C251.888,244.056,236.056,259.888,216,263.28z M216,208v-39.28c20.056,3.392,35.888,19.224,39.28,39.28     H216z" fill="#91DC5A"/>
			<rect x="88" y="32" width="16" height="16" fill="#91DC5A"/>
		</g>
	</g>
</g>
<g>
</g>
<g>
</g>
<g>
</g>
<g>
</g>
<g>
</g>
<g>
</g>
<g>
</g>
<g>
</g>
<g>
</g>
<g>
</g>
<g>
</g>
<g>
</g>
<g>
</g>
<g>
</g>
<g>
</g>
</svg>
