<svg xmlns="http://www.w3.org/2000/svg" viewBox="0 0 512 512"><path d="M485.517 441.379h-17.655a8.829 8.829 0 0 1-8.828-8.828v-17.655h35.31v17.655a8.827 8.827 0 0 1-8.827 8.828zm-441.379 0H26.483a8.829 8.829 0 0 1-8.828-8.828v-17.655h35.31v17.655a8.827 8.827 0 0 1-8.827 8.828z" fill="#afb9d2"/><path d="M494.345 423.724H17.655C7.904 423.724 0 415.82 0 406.069V88.276c0-9.751 7.904-17.655 17.655-17.655h476.69c9.751 0 17.655 7.904 17.655 17.655v317.793c0 9.751-7.904 17.655-17.655 17.655z" fill="#e4eaf6"/><path d="M308.966 406.069H44.138c-14.626 0-26.483-11.857-26.483-26.483V114.759c0-14.626 11.857-26.483 26.483-26.483h264.828c14.626 0 26.483 11.857 26.483 26.483v264.828c-.001 14.625-11.857 26.482-26.483 26.482z" fill="#d7deed"/><circle cx="176.552" cy="247.172" r="141.241" fill="#464655"/><path d="M176.237 221.649l52.128-59.575c4.676-5.345 12.899-5.619 17.921-.597l.021.021c13.76 13.76 13.01 36.289-1.635 49.103l-42.39 37.091m-27.085 25.004l-52.128 59.575c-4.676 5.345-12.899 5.619-17.921.597l-.021-.021c-13.76-13.76-13.01-36.289 1.635-49.103l42.39-37.091m52.089 1.039l59.575 52.128c5.345 4.676 5.619 12.899.597 17.921l-.021.021c-13.76 13.76-36.289 13.01-49.103-1.635l-37.091-42.39m-25.005-27.084l-59.575-52.128c-5.345-4.676-5.619-12.899-.597-17.921l.021-.021c13.76-13.76 36.289-13.01 49.103 1.635l37.091 42.39" fill="#707487"/><g fill="#959cb3"><circle cx="176.552" cy="247.172" r="35.31"/><circle cx="44.138" cy="114.759" r="8.828"/><circle cx="308.966" cy="114.759" r="8.828"/><circle cx="44.138" cy="379.586" r="8.828"/><circle cx="308.966" cy="379.586" r="8.828"/></g></svg>