<svg xmlns="http://www.w3.org/2000/svg" viewBox="0 0 512 512"><path d="M180.966 61.793h-26.483c-24.337 0-44.138 19.801-44.138 44.138v98.065c0 21.732 10.276 42.638 27.487 55.918l58.831 45.375 21.569-27.957-58.831-45.375c-8.608-6.643-13.746-17.095-13.746-27.961v-98.065c0-4.866 3.961-8.828 8.828-8.828h26.483v-35.31z" fill="#c7cfe2"/><path fill="#e4eaf6" d="M163.31 17.655l35.311 344.276h158.896l35.311-344.276z"/><path fill="#afb9d2" d="M195.905 335.448l2.716 26.483h158.896l2.716-26.483z"/><path fill="#d5dcec" d="M163.31 17.655l35.311 344.276h53.644L225.103 17.655z"/><path d="M392.828 17.655H163.31a8.829 8.829 0 0 1 0-17.656h229.517a8.829 8.829 0 0 1 8.828 8.828 8.827 8.827 0 0 1-8.827 8.828z" fill="#959cb3"/><path fill="#afb9d2" d="M390.112 44.138l2.716-26.483H163.31l2.716 26.483z"/><path d="M227.193 44.138l-2.09-26.483H163.31l2.716 26.483zm-31.288 291.31l2.716 26.483h53.644l-2.089-26.483z" fill="#a2aac2"/><path d="M344.483 238.345c-.301 0-.604-.013-.914-.047-4.845-.495-8.371-4.832-7.88-9.681l9.965-97.103c.5-4.85 4.81-8.392 9.689-7.88 4.845.495 8.371 4.832 7.88 9.681l-9.965 97.103c-.465 4.544-4.301 7.927-8.775 7.927z" fill="#f2f5fb"/><path d="M358.069 105.927c-.301 0-.604-.013-.905-.047-4.853-.495-8.38-4.832-7.887-9.681l2.716-26.474c.5-4.845 4.957-8.418 9.681-7.88 4.853.495 8.38 4.832 7.887 9.681L366.845 98c-.466 4.543-4.302 7.927-8.776 7.927z" fill="#fff"/><path d="M216.276 8.828A8.829 8.829 0 0 1 225.104 0H163.31a8.829 8.829 0 0 0 0 17.656h61.793a8.829 8.829 0 0 1-8.827-8.828z" fill="#81869b"/><path d="M317.327 283.42a8.817 8.817 0 0 0-11.844 3.948l-7.78 15.561-19.634 13.09-19.634-13.09-7.78-15.561a8.818 8.818 0 0 0-11.844-3.948 8.826 8.826 0 0 0-3.948 11.844l8.828 17.655a8.836 8.836 0 0 0 3 3.396l22.551 15.036v4.097h17.655v-4.097l22.552-15.034a8.835 8.835 0 0 0 3-3.396l8.828-17.655a8.83 8.83 0 0 0-3.95-11.846z" fill="#707487"/><path d="M172.138 370.759v132.414a8.829 8.829 0 0 0 8.828 8.828h29.855c3.343 0 6.4-1.889 7.895-4.879l3.948-7.895a8.827 8.827 0 0 1 7.895-4.879h95.019c3.343 0 6.4 1.889 7.895 4.879l3.948 7.895a8.827 8.827 0 0 0 7.895 4.879h29.856a8.829 8.829 0 0 0 8.828-8.828V370.759c0-9.751-7.904-17.655-17.655-17.655H189.793c-9.751-.001-17.655 7.903-17.655 17.655z" fill="#959cb3"/><g fill="#81869b"><circle cx="278.069" cy="414.897" r="44.138"/><path d="M172.138 503.172a8.829 8.829 0 0 0 8.828 8.828h29.855c3.343 0 6.4-1.889 7.895-4.879l3.948-7.895a8.827 8.827 0 0 1 7.895-4.879h95.019c3.343 0 6.4 1.889 7.895 4.879l3.948 7.895a8.827 8.827 0 0 0 7.895 4.879h29.856a8.829 8.829 0 0 0 8.828-8.828V476.69H172.138v26.482z"/></g><path d="M253.101 439.864a8.828 8.828 0 0 1 0-12.484l37.452-37.452a8.828 8.828 0 0 1 12.484 12.484l-37.452 37.452a8.825 8.825 0 0 1-12.484 0z" fill="#707487"/></svg>