<svg xmlns="http://www.w3.org/2000/svg" viewBox="0 0 63.655 63.655" width="512" height="512"><g fill="#91DC5A"><path d="M49.834 19.482c-1.499-2.236-5.116-2.08-6.953-.481-.911.792-1.4 1.733-1.567 2.72-2.107 3.476-5.289 5.157-9.343 4.113-1.869-.481-3.159 1.198-3.046 2.639l-4.903 2 .012-.137-11.796-1.021-.197 2.257 11.797 1.021.041-.468 5.711-2.329c.228.188.517.335.875.427 4.843 1.249 9.345.114 12.596-3.186 3.597 6.149 2.713 10.997 3.151 12.678-2.398 1.5-4.532 4.054-4.532 8.38v6.933l2.099-.058a32.759 32.759 0 0 0 .485 5.803 3.484 3.484 0 0 0 4.028 2.829 3.484 3.484 0 0 0 2.83-4.027c-1.141-6.52.164-12.522 3.86-17.853.776-1.024.849-1.993.89-2.765.098-7.147-2.081-13.582-6.038-19.475z"/><path d="M7.78 43.958h20.152v19.693H7.78zm36.49-26.807a3.724 3.724 0 0 0 1.767-5.144l-7.159 3.292c.998 1.931 3.415 2.76 5.392 1.852zm-8.858-9.715l3.606 6.966 6.46-2.969-3.653-7.053a2.853 2.853 0 0 0 .017-2.685C41.08.221 39.235-.411 37.726.281a2.867 2.867 0 0 0-1.394 1.359 3.12 3.12 0 0 0-1.995.201 2.837 2.837 0 0 0-1.347 3.926c.484.946 1.417 1.543 2.422 1.669zM15.814 19.953l-.017-.337-.335.018.017.337c.196-.001.119.003.335-.018zm5.768-.313l.177-.017-.018-.338-.335.019.016.336zm3.897 4.397l-.018-.335-.335.018.017.336c.196 0 .12.004.336-.019zm-3.756-2.805h.158l.178-.016-.018-.436-.337.017zm-1.901 1.43l.177-.019-.018-.338-.336.019.017.338zm-2.887-.96l-.015-.336-.339.018.02.336c.195-.001.119.004.334-.018zm4.11 6.798h.16l.176-.017-.017-.335-.336.017zm-1.68-1.255c.195 0 .121.004.335-.02l-.017-.335-.336.018.018.337zm-6.16-1.363l.177-.019-.017-.337-.336.018.017.338zm4.478 2.601h.159l.177-.016-.018-.337-.336.018zm-1.707.257c.195 0 .12.004.335-.02l-.016-.337-.337.018.018.339zm-.381-2.077c3.452 0 6.16-.791 7.074-1.096 1.265-.422 1.958-.902 1.687-2.152-.213-.983-.813-1.11-1.813-.932-1 .178-1.69.479-2.335.786-1.304.625-.976.405-4.612.405-1.975 0-1.979 2.989-.001 2.989z"/></g></svg>