<svg xmlns="http://www.w3.org/2000/svg" viewBox="0 0 60 60"><circle cx="30" cy="21" r="20" fill="none" stroke="#afb6bb" stroke-width="2" stroke-linecap="round" stroke-miterlimit="10"/><circle cx="30" cy="21" r="6" fill="#556080"/><path d="M37.383 5.758c-3.742-1.84-8.158-2.331-12.461-1.016-1.35.413-2.598.994-3.757 1.688 12.207 2.046 5.24 6.014 6.472 9.008a6.041 6.041 0 0 1 2.298-.435c.021 0 .043-.003.065-.003l.042.002c.089.002.177.007.266.013a5.99 5.99 0 0 1 4.666 2.627c7.028-4.362 7.473-8.847 2.409-11.884zM35.94 21.983a5.984 5.984 0 0 1-2.836 4.215 5.975 5.975 0 0 1-2.836.852c.095 8.362 3.736 11.072 8.987 8.252 4.779-3.101 7.744-8.453 7.745-14.233-8.046 9.419-7.858 1.4-11.06.914zm-10.236 3.201c-.031-.032-.06-.067-.091-.1a5.95 5.95 0 0 1-.313-.361c-.038-.048-.073-.098-.11-.147a5.693 5.693 0 0 1-.647-1.093 5.859 5.859 0 0 1-.151-.366c-.028-.074-.056-.146-.081-.221a6.284 6.284 0 0 1-.111-.385c-.02-.075-.041-.149-.058-.226a6.054 6.054 0 0 1-.074-.431c-.01-.068-.023-.134-.031-.202A6.12 6.12 0 0 1 24 21c0-.238.018-.471.044-.702.008-.071.021-.14.032-.21a6.233 6.233 0 0 1 .149-.699c.044-.159.096-.315.153-.469.022-.059.041-.118.064-.176.085-.21.18-.415.287-.613-7.21-4.222-11.407-2.503-11.702 3.437.196 5.94 3.432 11.097 8.209 13.981-3.926-11.742 2.849-7.453 4.915-9.946l-.002-.002a6.493 6.493 0 0 1-.445-.417z" fill="#c7cac7"/><path fill="#556080" d="M22 56h16v3H22zm4-11h8v6h-8z"/><path d="M28 51h4v5h-4zm0-10h4v4h-4z" fill="#afb6bb"/><path fill="none" stroke="#38454f" stroke-width="2" stroke-linecap="round" stroke-linejoin="round" stroke-miterlimit="10" d="M19 59h22"/></svg>