<svg xmlns="http://www.w3.org/2000/svg" viewBox="0 0 448.003 448.003"><path d="M289.282 0h-96c-17.68 0-32 14.32-32 32v144c0 17.68 14.32 32 32 32h32v80h32v-80h32c17.68 0 32-14.32 32-32V32c0-17.68-14.32-32-32-32zm-96 32h32v112h-32V32zm96 112h-32V32h32v112z" fill="#b6c1cc"/><path d="M289.282 111.616V144h-32v-.384l-64.336 64.336c.112.016.224.048.336.048h32v80h32v-80h32c17.68 0 32-14.32 32-32V79.616l-32 32z" fill="#92a2b3"/><path d="M433.282.272h-16v144h-32v-144h-16l-13.344 173.552c-1.36 17.696 11.968 32.784 29.344 34.176v80.272h32V208c17.376-1.392 30.704-16.48 29.344-34.176L433.282.272z" fill="#b6c1cc"/><path d="M364.466 197.872c5.28 5.648 12.56 9.456 20.816 10.128v80.272h32V208c17.376-1.392 30.704-16.48 29.344-34.176l-4.144-53.984-78.016 78.032z" fill="#92a2b3"/><path d="M65.282 0c-35.344 0-64 46.56-64 104 0 48.448 20.416 89.024 48 100.592V288h32v-83.408c27.584-11.568 48-52.144 48-100.592 0-57.44-28.656-104-64-104z" fill="#b6c1cc"/><path d="M32.706 193.088c5.136 4.96 10.64 9.024 16.576 11.504V288h32v-83.408c27.584-11.568 48-52.144 48-100.592 0-2.448-.128-4.848-.224-7.248l-96.352 96.336z" fill="#92a2b3"/><path d="M33.282 416c0 19.44 17.328 34.816 37.376 31.568 15.728-2.56 26.624-17.344 26.624-33.28V288c0-8.832-7.168-16-16-16h-32c-8.832 0-16 7.168-16 16v128z" fill="#d84234"/><path d="M81.282 272h-16v175.84c1.776 0 3.552.016 5.376-.272 15.728-2.56 26.624-17.344 26.624-33.28V288c0-8.832-7.168-16-16-16z" fill="#ae362b"/><path d="M22.306 180.88L126.914 76.272a148.073 148.073 0 0 0-4.32-18.32l-108.4 108.4c2.448 5.216 5.12 10.128 8.112 14.528zm234.976-81.552l-32 32V144H212.61l-47.28 47.28c2.608 4.768 6.32 8.816 10.912 11.712l81.04-81.04V99.328zm64-64l-32 32v22.624l32-32zm64 108.96v-11.216l-28.4 28.4-.944 12.352c-.272 3.552.192 6.96 1.008 10.224l39.76-39.76h-11.424zm54.064-65.28l-22.064 22.064v22.624l23.68-23.664z" fill="#92a2b3"/><path d="M209.282 416c0 19.44 17.328 34.816 37.376 31.568 15.728-2.56 26.624-17.328 26.624-33.28V288c0-8.832-7.168-16-16-16h-32c-8.832 0-16 7.168-16 16v128z" fill="#d84234"/><path d="M257.282 272h-16v175.84c1.776 0 3.552.016 5.376-.272 15.728-2.56 26.624-17.328 26.624-33.28V288c0-8.832-7.168-16-16-16z" fill="#ae362b"/><path d="M369.282 416c0 19.44 17.328 34.816 37.376 31.568 15.728-2.56 26.624-17.328 26.624-33.28V288c0-8.832-7.168-16-16-16h-32c-8.832 0-16 7.168-16 16v128z" fill="#d84234"/><path d="M417.282 272h-16v175.84c1.776 0 3.552.016 5.376-.272 15.728-2.56 26.624-17.328 26.624-33.28V288c0-8.832-7.168-16-16-16z" fill="#ae362b"/></svg>