<svg xmlns="http://www.w3.org/2000/svg" viewBox="0 0 512 512"><path d="M312.287 425.183v77.913a8.905 8.905 0 0 1-8.904 8.904l-.223-.002h-37.38a8.905 8.905 0 0 1 0-17.808h28.697v-69.006c0-4.917 3.987-8.904 8.904-8.904s8.906 3.985 8.906 8.903zm96.464 69.006h-28.697v-69.006a8.905 8.905 0 0 0-17.808 0v77.913A8.905 8.905 0 0 0 371.15 512l.223-.002h37.379a8.905 8.905 0 0 0-.001-17.809z" fill="#391b10"/><path d="M269.852 306.859h134.507v149.488H269.852V306.859z" fill="#234848"/><path d="M337.576 306.859h67.721v149.488h-67.721V306.859z" fill="#5b7f81"/><path d="M506.43 355.522a8.877 8.877 0 0 1-3.334.651 8.91 8.91 0 0 1-8.259-5.57l-38.341-94.848c-14.813-36.63-31.397-60.058-52.138-72.417v139.444H269.852V183.525c-20.59 12.409-37.078 35.79-51.816 72.232l-38.34 94.847a8.902 8.902 0 0 1-11.592 4.917 8.905 8.905 0 0 1-4.919-11.592l38.341-94.848c17.759-43.907 46.344-94.304 110.308-94.304h50.864c63.971 0 92.555 50.396 110.309 94.304l38.341 94.848a8.903 8.903 0 0 1-4.918 11.593z" fill="#ff4328"/><path d="M440.754 53.023a8.905 8.905 0 0 1-8.904 8.904H306.326a8.905 8.905 0 0 1 0-17.808H431.85a8.905 8.905 0 0 1 8.904 8.904z" fill="#981700"/><path d="M337.266 0c29.075 0 52.646 23.657 52.646 52.837 0 29.182-23.57 52.837-52.646 52.837s-52.643-23.654-52.643-52.837C284.623 23.657 308.191 0 337.266 0z" fill="#cf8f3d"/><path d="M285.415 61.928a53.276 53.276 0 0 1-.792-9.09C284.623 23.657 308.191 0 337.266 0s52.646 23.657 52.646 52.837c0 3.101-.282 6.135-.792 9.09H285.415z" fill="#ff4328"/><path d="M203.989 345.044v133.565h-95.277V345.044h95.277z" fill="#967342"/><path d="M81.252 370.091H8.904a8.905 8.905 0 0 1 0-17.808h72.348a8.905 8.905 0 0 1 8.904 8.904 8.902 8.902 0 0 1-8.904 8.904zm0 30.885H60.25a8.905 8.905 0 0 0 0 17.808h21.002a8.905 8.905 0 0 0 0-17.808zm0 48.694h-5.811a8.905 8.905 0 0 0 0 17.808h5.811a8.905 8.905 0 0 0 0-17.808z" fill="#97baa8"/></svg>