<svg xmlns="http://www.w3.org/2000/svg" viewBox="0 0 512.002 512.002"><path d="M381.56 512.002H135.042c-10.477 0-18.963-8.486-18.963-18.963s8.486-18.963 18.963-18.963H381.56c10.477 0 18.963 8.486 18.963 18.963s-8.486 18.963-18.963 18.963" fill="#b2b5c8"/><path d="M296.227 436.151c0-20.945-16.981-37.926-37.926-37.926s-37.926 16.981-37.926 37.926 16.981 37.926 37.926 37.926 37.926-16.982 37.926-37.926m180.148-180.149c0-20.945-16.981-37.926-37.926-37.926s-37.926 16.981-37.926 37.926 16.981 37.926 37.926 37.926 37.926-16.981 37.926-37.926" fill="#868ba5"/><path d="M49.034 84.663L35.627 98.069l134.087 134.087 13.407-13.407c37.025-37.025 37.025-97.062 0-134.087-37.025-37.025-97.062-37.025-134.087.001" fill="#b2b5c8"/><path d="M64.738 127.269c-10.088 21.144-6.438 47.199 11.074 64.702 17.503 17.512 43.558 21.163 64.702 11.074l-75.776-75.776z" fill="#ecba16"/><path d="M429.64 219.209L265.421 63.57c-2.304 6.002-5.812 11.653-10.648 16.488l-13.672 13.521 160.825 152.747c3.546-13.417 14.174-23.884 27.714-27.117m-27.776 46.272L266.743 399.246a37.206 37.206 0 0 1 7.415 2.551c.199.095.379.218.578.313a38.034 38.034 0 0 1 6.163 3.745c.123.085.228.19.341.275a38.43 38.43 0 0 1 5.471 5.129c.009.009.019.019.019.028a37.446 37.446 0 0 1 4.513 6.409c1.726 3.081 3.119 6.372 3.935 9.908l133.357-135.149a37.793 37.793 0 0 1-26.671-26.974" fill="#b2b5c8"/><path d="M253.898 13.888c-18.517-18.517-48.526-18.517-67.044 0l-45.89 46.393c15.436 4.191 30.037 12.26 42.155 24.377 12.127 12.127 20.196 26.728 24.386 42.164l46.393-45.89c18.517-18.518 18.517-48.527 0-67.044" fill="#868ba5"/></svg>