<svg xmlns="http://www.w3.org/2000/svg" viewBox="0 0 512 512"><path fill="#cfdce5" d="M409.748 251.37l-28.858 34.534-22.273-23.034-28.847 34.546-22.273-23.046-28.858 34.534-22.274-23.045-28.858 34.523-22.273-23.046-28.858 34.535h-40.108l44.229-158.435 2.792-.341L512 172.766v55.638l-28.847 34.523-22.285-23.045-28.846 34.522z"/><path d="M136.268 331.871l-11.057 12.317-91.217 2.146c-11.262.261-21.286-7.073-24.43-17.88l-4.507-15.496a127.073 127.073 0 0 1 11.625-98.426 29.173 29.173 0 0 0 3.826-14.429c0-4.745-1.158-9.479-3.474-13.793l-3.803-7.084c-3.247-6.062 1.135-13.396 8.015-13.407l158.321-.159.931 7.776 9.491 79.024a38.415 38.415 0 0 1-9.57 30.254l-44.151 49.157zm-14.906-112.447c.272-1.442.397-2.872.397-4.291 0-10.819-7.674-20.446-18.697-22.535-12.454-2.361-24.465 5.835-26.814 18.289v5.733c0 26.258-5.279 52.233-15.542 76.402-2.35 12.465 5.835 24.476 18.3 26.826 12.454 2.361 24.465-5.835 26.814-18.289l15.542-82.135z" fill="#4ebfed"/><path d="M83.335 325.934c-1.788 0-3.59-.168-5.387-.509-15.506-2.924-25.746-17.932-22.821-33.455.075-.401.194-.792.353-1.167 10.013-23.582 15.091-48.541 15.091-74.184v-5.733c0-.353.033-.706.099-1.052 1.418-7.514 5.678-14.026 11.996-18.336 6.321-4.311 13.939-5.899 21.453-4.476 13.509 2.561 23.316 14.384 23.316 28.112 0 1.802-.166 3.599-.496 5.342v.005l-15.542 82.135c-1.418 7.512-5.678 14.024-11.997 18.333-4.81 3.28-10.37 4.985-16.065 4.985zm-17.148-31.302c-1.424 9.171 4.695 17.908 13.87 19.639a17.151 17.151 0 0 0 12.945-2.7 17.16 17.16 0 0 0 7.239-11.064l15.542-82.137c.199-1.051.299-2.14.299-3.237 0-8.279-5.92-15.412-14.077-16.958a17.147 17.147 0 0 0-12.941 2.701 17.154 17.154 0 0 0-7.141 10.579v5.164c0 26.957-5.293 53.199-15.736 78.013zm55.175-75.208h.011-.011z" fill="#3ba4bc"/></svg>