<svg xmlns="http://www.w3.org/2000/svg" viewBox="0 0 57 57"><path d="M9.342 19.582c2.022-2.311 5.909-3.755 9.653-.917 1.009.765 1.789 1.819 2.171 3.026 1.255 3.963-.847 7.835-4.236 8.918-1.162.371-1.926 1.483-1.926 2.702v.077c0 1.414 1.039 2.573 2.428 2.833 4.38.82 7.477 3.838 7.477 7.618 0 4.448-6.031 8.16-9.906 8.16C8.858 52 1.755 39.256 1.054 38.086l-.053.021C.797 49.093 7.556 57 14.72 57c8.427 0 15.283-5.904 15.283-13.16 0-1.145-.156-2.236-.455-3.264 3.152-1.092 10.344-4.213 14.218-11.319.374-.686 1.045-1.105 1.745-1.105.058 0 .116.002.174.008 2.279.23 3.805 1.864 4.666 4.993 1.074 3.903.593 8.197-1.321 11.781-1.403 2.627-3.001 3.96-4.798 3.961h-.001c-.058 0-2.361-.032-3.787-1.432-.451-.443-4.726-3.969-6.184-4.416a.22.22 0 0 0-.283.192c-.086.977-.191 4.769 2.899 7.858 2.779 2.779 6.622 2.891 7.323 2.891l.08-.001c2.597 0 6.309-1.155 9.245-6.656 2.521-4.722 3.155-10.383 1.739-15.531-1.919-6.975-6.503-8.451-9.066-8.71a6.924 6.924 0 0 0-.689-.034c-2.552 0-4.939 1.424-6.214 3.761-3.267 5.992-9.824 8.503-12.28 9.266-1.01-1.121-2.248-2.099-3.689-2.908a.265.265 0 0 1-.058-.426c2.933-2.894 4.143-7.641 2.871-12.248-1.438-5.208-6.394-8.612-11.795-8.497-3.171.068-6.034.899-8.11 2.781a.387.387 0 0 0-.068.482l2.562 4.271a.38.38 0 0 0 .615.044z" fill="#8697cb"/><path d="M35.863 18.353c-.559 0-1.116-.034-1.676-.102-6.965-.841-9.62-8.209-10.176-10.04a.162.162 0 0 1 .241-.186c1.361.839 6.366 3.768 10.684 4.272.293.034.589.052.886.052 2.596 0 5.329-1.307 8.146-3.897a1.18 1.18 0 0 1 1.628.049l2.562 2.562c.471.471.472 1.246-.016 1.699-3.999 3.717-8.119 5.591-12.279 5.591z" fill="#8697cb"/><path d="M40.615 5.09l-4.273 4.273a.479.479 0 0 1-.677 0L31.392 5.09a.479.479 0 0 1 0-.677L35.665.14a.479.479 0 0 1 .677 0l4.273 4.273a.479.479 0 0 1 0 .677z" fill="#8697cb"/></svg>