<svg xmlns="http://www.w3.org/2000/svg" viewBox="0 0 512 512"><path d="M69.278 474.297v-45.468a22.461 22.461 0 0 0-7.843-1.412c-12.463 0-22.568 10.104-22.568 22.567v.09c-4.109-4.298-9.885-6.986-16.299-6.986C10.104 443.089 0 453.194 0 465.658v13.791h74.429c-2.833-.001-5.151-2.319-5.151-5.152z" fill="#3eaf91"/><path d="M172.981 193.992L67.8 299.172c-2.003 2.003-3.642 5.96-3.642 8.793v166.331c0 2.833 2.318 5.151 5.151 5.151h416.13c2.833 0 5.151-2.318 5.151-5.151V302.815L172.981 193.992z" fill="#fcc96c"/><path d="M389.095 408.658a3.352 3.352 0 0 1-3.342 3.342h-28.316a3.352 3.352 0 0 1-3.342-3.342v-75.581a3.352 3.352 0 0 1 3.342-3.342h28.316a3.352 3.352 0 0 1 3.342 3.342v75.581zm69.478 0a3.352 3.352 0 0 1-3.342 3.342h-28.316a3.352 3.352 0 0 1-3.342-3.342v-75.581a3.352 3.352 0 0 1 3.342-3.342h28.316a3.352 3.352 0 0 1 3.342 3.342v75.581z" fill="#34a1d7"/><path d="M67.8 299.172L132 255l40.949-60.977-.003-.015-16.028-16.088-.568-.004c-2.546-.011-6.273 1.615-8.282 3.612L29.721 299.165c-2.009 1.998-1.335 3.631 1.498 3.631H65.44c.639-1.414 1.457-2.72 2.36-3.624z" fill="#86d5b5"/><path d="M312.606 302.815L172.981 193.992 67.8 299.172c-2.003 2.003-3.642 5.96-3.642 8.793v166.331c0 2.833 2.318 5.151 5.151 5.151H313.88V307.966c0-1.551-.501-3.432-1.274-5.151z" fill="#ffbb4a"/><path d="M172.981 193.992L67.8 299.172c-2.003 2.003-3.642 5.96-3.642 8.793v166.331c0 2.833 2.318 5.151 5.151 5.151h22.892V313.218c0-2.833 1.639-6.79 3.642-8.793l93.75-93.75-16.612-16.683z" opacity=".1" fill="#231f20"/><path d="M202.105 327.342h-61.121c-2.833 0-5.151 2.318-5.151 5.151v146.955h71.423V332.493c-.001-2.833-2.318-5.151-5.151-5.151z" fill="#cb7c52"/><path d="M163.284 327.342h-22.3c-2.833 0-5.151 2.318-5.151 5.151v146.955h22.3V332.493c0-2.833 2.318-5.151 5.151-5.151z" opacity=".1" fill="#231f20"/><path d="M507.832 299.184L389.485 181.548c-2.009-1.998-5.971-3.631-8.804-3.63 0 0-223.101.006-223.767 0l120.793 121.249c1.999 2.007 5.953 3.65 8.786 3.65h219.841c2.834-.002 3.507-1.636 1.498-3.633z" fill="#3eaf91"/><path d="M408.001 199.952H178.917l14.935 15h229.24zm30.606 30.422H209.21l14.935 15h229.553zm30.606 30.422H239.502l14.936 15h229.865z" fill="#86d5b5"/><path d="M79.212 385.694a3.356 3.356 0 0 1-3.205-2.358c-5.255-16.88-8.865-20.49-25.745-25.746a3.356 3.356 0 0 1 0-6.408c16.88-5.257 20.49-8.867 25.745-25.747a3.355 3.355 0 1 1 6.408 0c5.257 16.879 8.866 20.49 25.748 25.747a3.355 3.355 0 0 1 0 6.408c-16.881 5.256-20.49 8.865-25.748 25.746a3.352 3.352 0 0 1-3.203 2.358z" fill="#ef5a50"/><path d="M67.157 194.298a3.354 3.354 0 0 1-3.203-2.358c-5.256-16.88-8.865-20.49-25.747-25.747a3.356 3.356 0 0 1 0-6.406c16.881-5.258 20.491-8.867 25.747-25.747a3.355 3.355 0 0 1 6.407 0c5.257 16.88 8.866 20.49 25.746 25.747a3.353 3.353 0 0 1 0 6.406c-16.88 5.257-20.489 8.866-25.746 25.747a3.356 3.356 0 0 1-3.204 2.358z" fill="#ff9f3d"/><path d="M268.481 448.759a2.775 2.775 0 0 1-2.648-1.949c-4.344-13.951-7.327-16.934-21.277-21.278a2.772 2.772 0 0 1 0-5.294c13.951-4.345 16.933-7.328 21.277-21.279a2.773 2.773 0 0 1 5.296 0c4.344 13.951 7.327 16.934 21.277 21.279a2.772 2.772 0 1 1 0 5.294c-13.951 4.345-16.933 7.328-21.277 21.278a2.77 2.77 0 0 1-2.648 1.949z" fill="#ef5a50"/><path d="M476.125 215.29a2.772 2.772 0 0 1-2.647-1.949c-4.344-13.951-7.327-16.934-21.277-21.278a2.772 2.772 0 0 1 0-5.295c13.951-4.345 16.934-7.328 21.277-21.279a2.774 2.774 0 0 1 5.294 0c4.345 13.951 7.328 16.934 21.278 21.279a2.772 2.772 0 0 1 0 5.295c-13.951 4.345-16.933 7.328-21.278 21.278a2.77 2.77 0 0 1-2.647 1.949z" fill="#ff9f3d"/><path d="M512 479.448v-10.72c0-9.688-7.854-17.543-17.543-17.543-4.986 0-9.475 2.09-12.669 5.431v-.07c0-9.688-7.854-17.542-17.543-17.542a17.455 17.455 0 0 0-11.053 3.928c-1.577-8.07-8.679-14.161-17.209-14.161-9.689 0-17.543 7.854-17.543 17.543v5.627a17.433 17.433 0 0 0-10.72-3.678c-4.499 0-8.59 1.707-11.696 4.492v-7.415c0-9.689-7.853-17.543-17.541-17.543s-17.543 7.854-17.543 17.543v34.109H512v-.001z" fill="#3eaf91"/><path d="M192 411.751a7.5 7.5 0 0 1-7.5-7.5v-10.867a7.5 7.5 0 0 1 15 0v10.867c0 4.144-3.358 7.5-7.5 7.5z" fill="#ab5436"/><path d="M249.909 337.125h-19.573a3.1 3.1 0 0 0-3.091 3.09v23.694a3.1 3.1 0 0 0 3.091 3.09h19.573a3.1 3.1 0 0 0 3.091-3.09v-23.694a3.1 3.1 0 0 0-3.091-3.09z" fill="#fff"/><circle cx="393.01" cy="77.88" r="45.33" fill="#ffbb4a"/><path d="M368.29 77.88c0-21.489 14.958-39.472 35.026-44.138a45.414 45.414 0 0 0-10.302-1.19c-25.034 0-45.328 20.294-45.328 45.328s20.294 45.328 45.328 45.328c3.545 0 6.991-.42 10.302-1.19-20.068-4.666-35.026-22.648-35.026-44.138z" opacity=".1" fill="#231f20"/></svg>