<svg xmlns="http://www.w3.org/2000/svg" viewBox="0 0 512.001 512.001"><path d="M512.001 391.792c0 7.145-5.79 12.936-12.937 12.936H12.937C5.791 404.728 0 398.937 0 391.793V64.937c0-7.143 5.791-12.938 12.937-12.938h486.127c7.146 0 12.937 5.795 12.937 12.938v326.855z" fill="#e2e5e7"/><path d="M314.069 404.728H197.932s-2.353 38.809-7.057 47.041h130.251c-4.705-8.233-7.057-47.041-7.057-47.041z" fill="#d1d5d5"/><path d="M332.002 455.004c-7.057-.883-10.877-3.234-10.877-3.234H190.874s-3.82 2.352-10.877 3.234c-7.055.883-11.76 1.469-11.76 4.998h175.525c0-3.529-4.704-4.116-11.76-4.998z" fill="#c6cbcb"/><path d="M499.064 51.999H12.937C5.791 51.999 0 57.794 0 64.937v293.535h512V64.937c.001-7.143-5.79-12.938-12.936-12.938zm-8.253 288.088H21.19V70.388h469.621v269.699z" fill="#2d404e"/><path fill="#df584c" d="M21.19 70.388v269.699h469.621V70.388h-92.038z"/><path d="M314.069 404.728H197.932s-.351 5.773-1.05 13.33h118.237c-.7-7.557-1.05-13.33-1.05-13.33z" fill="#c6cbcb"/><circle cx="256.067" cy="382.687" r="8.412" fill="#2d404e"/><path d="M331.877 249.245c0 4.654-3.729 8.428-8.328 8.428H188.452c-4.599 0-8.328-3.773-8.328-8.428v-88.016c0-4.654 3.729-8.428 8.328-8.428h135.097c4.6 0 8.328 3.773 8.328 8.428v88.016z" fill="#e2e5e7"/><path d="M183.743 256.197a8.435 8.435 0 0 1-2.14-2.156l59.823-40.396 1.852 1.85-59.535 40.702zm144.566 0a8.455 8.455 0 0 0 2.141-2.156l-59.824-40.396-1.851 1.85 59.534 40.702z" fill="#d1d5d5"/><path d="M180.496 158.738c1.05-3.438 4.215-5.936 7.956-5.936h135.097c3.449 0 6.408 2.123 7.673 5.146.13.312.242.633.335.961l-53.889 54.734s-11.567 14.727-21.643 14.727c-9.587 0-21.385-14.727-21.385-14.727l-54.144-54.905z" fill="#c6cbcb"/><path d="M180.496 158.738c1.05-3.438 4.215-5.936 7.956-5.936h135.097c3.449 0 6.408 2.123 7.673 5.146.13.312.242.633.335.961l-58.053 54.734s-9.254 8.25-17.479 8.25c-8.431 0-17.684-8.25-17.684-8.25l-57.845-54.905z" fill="#e2e5e7"/><path d="M499.064 51.999h-89.058L222.628 358.472H512V64.937c.001-7.143-5.79-12.938-12.936-12.938z" opacity=".16" fill="#e2e5e7"/></svg>