<svg xmlns="http://www.w3.org/2000/svg" viewBox="0 0 512 512"><path d="M294.44 130.586l-21.181 21.181c-8.376 8.376-15.369 17.741-21.129 27.735V70.621h-17.655v423.724h17.655V245.397c0-30.655 11.939-59.474 33.612-81.146l21.181-21.181-12.483-12.484z" fill="#707487"/><path d="M243.303 88.276c-9.751 0-17.655-7.904-17.655-17.655V44.138h35.31v26.483c0 9.751-7.905 17.655-17.655 17.655z" fill="#afb9d2"/><path d="M158.73 0c15.292 31.328 47.364 52.966 84.573 52.966S312.583 31.328 327.876 0H158.73z" fill="#ffb464"/><path d="M278.876 512h-70.884a8.829 8.829 0 0 1-8.828-8.828v-8.828a8.829 8.829 0 0 1 8.828-8.828h70.884a8.829 8.829 0 0 1 8.828 8.828v8.828a8.828 8.828 0 0 1-8.828 8.828zm13.736-367.102c-6.894-6.894-6.894-18.073 0-24.968l13.241-13.241 24.968 24.968-13.241 13.241c-6.895 6.895-18.074 6.895-24.968 0z" fill="#afb9d2"/><path d="M309.889 127.622c-9.751-9.751-9.751-25.559 0-35.31l8.071-8.071 35.31 35.31-8.071 8.071c-9.751 9.75-25.56 9.75-35.31 0z" fill="#ffb464"/><circle cx="243.299" cy="247.172" r="17.655" fill="#464655"/></svg>