<svg xmlns="http://www.w3.org/2000/svg" width="512" height="512" viewBox="0 0 30.336 30.336"><path d="M19.475 27.25H0c0-3.967 2.602-7.346 6.264-8.686-.787-.797-1.357-2.015-1.643-3.848-.377.077-.963-.355-1.137-1.014-.176-.669-.291-1.75.09-1.853a.477.477 0 0 1 .348.052v-1.86c0-2.929-.689-4.648 4.096-5.139l-.043-.01s3.771-.362 4.764-1.257c0 0 .027.754.431 1.582 2.207.847 2.483 2.801 2.421 4.826v1.86a.482.482 0 0 1 .35-.052c.381.104.178 1.226.002 1.896-.17.652-.666 1.04-1.039.97-.279 1.745-.892 2.996-1.74 3.829 3.682 1.326 6.311 4.717 6.311 8.704zM29.986 8.836c.216-.428.349-.904.349-1.416a3.167 3.167 0 0 0-4.369-2.928 3.162 3.162 0 0 0-2.631-1.406 3.169 3.169 0 0 0-3.097 2.51 3.161 3.161 0 0 0-3.07 3.157 3.167 3.167 0 0 0 3.167 3.167c.045 0 .086-.011.13-.013a3.164 3.164 0 0 0 2.87 1.846 3.15 3.15 0 0 0 2.13-.837 3.145 3.145 0 0 0 1.704.505 3.167 3.167 0 0 0 3.167-3.167c0-.513-.133-.99-.35-1.418zm-8.651 5.167a1.25 1.25 0 1 0 0 2.5 1.25 1.25 0 0 0 0-2.5zm-2.138 2.251a.998.998 0 0 0-1.029.969.998.998 0 0 0 .971 1.03.998.998 0 0 0 1.029-.969.998.998 0 0 0-.971-1.03z" fill="#006DF0"/></svg>