<svg xmlns="http://www.w3.org/2000/svg" viewBox="0 0 512 512"><path d="M52.966 414.897H35.31a8.829 8.829 0 0 1-8.828-8.828v-17.655h35.31v17.655a8.826 8.826 0 0 1-8.826 8.828zm423.724 0h-17.655a8.829 8.829 0 0 1-8.828-8.828v-17.655h35.31v17.655a8.828 8.828 0 0 1-8.827 8.828z" fill="#707487"/><path d="M485.517 397.241H26.483C11.857 397.241 0 385.385 0 370.759V123.586c0-14.626 11.857-26.483 26.483-26.483h459.034c14.626 0 26.483 11.857 26.483 26.483v247.172c0 14.627-11.857 26.483-26.483 26.483z" fill="#afb9d2"/><path d="M397.241 379.586H35.31c-9.751 0-17.655-7.904-17.655-17.655V132.414c0-9.751 7.904-17.655 17.655-17.655h361.931c9.751 0 17.655 7.904 17.655 17.655v229.517c.001 9.751-7.903 17.655-17.655 17.655z" fill="#707487"/><path d="M379.586 353.103a8.829 8.829 0 0 0 8.828-8.828V150.069a8.829 8.829 0 0 0-17.656 0v194.207a8.829 8.829 0 0 0 8.828 8.827z" fill="#afb9d2"/><path d="M52.966 353.103h282.483a8.829 8.829 0 0 0 8.828-8.828V150.069a8.829 8.829 0 0 0-8.828-8.828H52.966a8.829 8.829 0 0 0-8.828 8.828v194.207a8.827 8.827 0 0 0 8.828 8.827z" fill="#ffd764"/><g fill="#e4eaf6"><circle cx="463.448" cy="339.862" r="22.069"/><circle cx="463.448" cy="278.069" r="22.069"/></g><path d="M476.69 220.69h-26.483a8.829 8.829 0 0 1 0-17.656h26.483a8.829 8.829 0 0 1 8.828 8.828 8.83 8.83 0 0 1-8.828 8.828zm0-35.311h-26.483a8.829 8.829 0 0 1 0-17.656h26.483a8.829 8.829 0 0 1 0 17.656zm0-35.31h-26.483a8.829 8.829 0 0 1 0-17.656h26.483a8.829 8.829 0 0 1 8.828 8.828 8.83 8.83 0 0 1-8.828 8.828z" fill="#959cb3"/><path d="M186.828 274.767a8.796 8.796 0 0 1-6.241-2.586l-82.909-82.943c-3.448-3.448-3.448-9.038 0-12.483a8.825 8.825 0 0 1 12.483 0l82.909 82.943c3.448 3.448 3.448 9.038 0 12.483a8.796 8.796 0 0 1-6.242 2.586zm113.31 62.53a8.796 8.796 0 0 1-6.241-2.586l-63.61-63.624c-3.448-3.448-3.448-9.038 0-12.483a8.825 8.825 0 0 1 12.483 0l63.61 63.624c3.448 3.448 3.448 9.038 0 12.483a8.802 8.802 0 0 1-6.242 2.586z" fill="#ffe678"/><path d="M210.052 247.19a8.79 8.79 0 0 1-6.241-2.586l-19.887-19.896c-3.448-3.448-3.448-9.038 0-12.483 3.448-3.448 9.043-3.448 12.483 0l19.887 19.896c3.448 3.448 3.448 9.038 0 12.483a8.804 8.804 0 0 1-6.242 2.586z" fill="#fff08c"/><path d="M335.448 141.241H52.966a8.829 8.829 0 0 0-8.828 8.828v17.655a8.829 8.829 0 0 1 8.828-8.828h282.483a8.829 8.829 0 0 1 8.828 8.828v-17.655a8.83 8.83 0 0 0-8.829-8.828z" fill="#ffbe5a"/></svg>