<svg id="Layer_1" data-name="Layer 1" xmlns="http://www.w3.org/2000/svg" viewBox="0 0 512 512"><defs><style>.cls-4{fill:#afc3c9}</style></defs><path d="M256 70.4H76.8A76.88 76.88 0 0 0 0 147.2v179.2a76.88 76.88 0 0 0 76.8 76.8h256v-256A76.88 76.88 0 0 0 256 70.4z" fill="#cad8dd"/><path d="M502.33 267.28l-37.65-67.78a76.83 76.83 0 0 0-67.14-39.5H332.8v243.2h102.4a76.88 76.88 0 0 0 76.8-76.8v-21.82a77.05 77.05 0 0 0-9.67-37.3z" fill="#dde5e8"/><path d="M460 278.49L433.57 231A38.4 38.4 0 0 0 400 211.2h-25.2a6.4 6.4 0 0 0-6.4 6.4v64a6.4 6.4 0 0 0 6.4 6.4h79.59a6.4 6.4 0 0 0 5.61-9.51z" fill="#198fd8"/><circle class="cls-4" cx="128" cy="390.4" r="51.2"/><circle class="cls-4" cx="409.6" cy="390.4" r="51.2"/></svg>