<svg xmlns="http://www.w3.org/2000/svg" viewBox="0 0 512 512"><path d="M317.793 392.828H194.207c-9.751 0-17.655-7.904-17.655-17.655V242.759c0-9.751 7.904-17.655 17.655-17.655h123.586c9.751 0 17.655 7.904 17.655 17.655v132.414c0 9.751-7.904 17.655-17.655 17.655z" fill="#464655"/><path d="M158.897 392.828H17.655C7.904 392.828 0 384.924 0 375.172V136.828c0-9.751 7.904-17.655 17.655-17.655h141.241c9.751 0 17.655 7.904 17.655 17.655v238.345c.001 9.751-7.903 17.655-17.654 17.655z" fill="#707487"/><circle cx="88.276" cy="295.724" r="26.483" fill="#464655"/><path d="M88.276 357.517c-34.073 0-61.793-27.724-61.793-61.793s27.72-61.793 61.793-61.793 61.793 27.724 61.793 61.793-27.72 61.793-61.793 61.793zm0-105.931c-24.337 0-44.138 19.801-44.138 44.138s19.801 44.138 44.138 44.138 44.138-19.801 44.138-44.138c0-24.336-19.802-44.138-44.138-44.138z" fill="#d7deed"/><path d="M88.276 207.448c-14.603 0-26.483-11.88-26.483-26.483s11.88-26.483 26.483-26.483 26.483 11.88 26.483 26.483-11.88 26.483-26.483 26.483zm0-35.31c-4.866 0-8.828 3.957-8.828 8.828s3.961 8.828 8.828 8.828 8.828-3.957 8.828-8.828-3.962-8.828-8.828-8.828z" fill="#464655"/><path d="M238.345 304.552H220.69a8.826 8.826 0 0 1-8.828-8.828 8.826 8.826 0 0 1 8.828-8.828h17.655a8.826 8.826 0 0 1 8.828 8.828 8.826 8.826 0 0 1-8.828 8.828zm0-35.311H220.69a8.826 8.826 0 0 1-8.828-8.828 8.826 8.826 0 0 1 8.828-8.828h17.655a8.826 8.826 0 0 1 8.828 8.828 8.826 8.826 0 0 1-8.828 8.828zm52.965 35.311h-17.655a8.826 8.826 0 0 1-8.828-8.828 8.826 8.826 0 0 1 8.828-8.828h17.655a8.826 8.826 0 0 1 8.828 8.828 8.826 8.826 0 0 1-8.828 8.828zm0-35.311h-17.655a8.826 8.826 0 0 1-8.828-8.828 8.826 8.826 0 0 1 8.828-8.828h17.655a8.826 8.826 0 0 1 8.828 8.828 8.826 8.826 0 0 1-8.828 8.828z" fill="#959cb3"/><path d="M494.345 392.828H353.103c-9.751 0-17.655-7.904-17.655-17.655V136.828c0-9.751 7.904-17.655 17.655-17.655h141.241c9.751 0 17.655 7.904 17.655 17.655v238.345c.001 9.751-7.903 17.655-17.654 17.655z" fill="#707487"/><circle cx="423.724" cy="295.724" r="26.483" fill="#464655"/><path d="M423.724 357.517c-34.073 0-61.793-27.724-61.793-61.793s27.72-61.793 61.793-61.793 61.793 27.724 61.793 61.793-27.719 61.793-61.793 61.793zm0-105.931c-24.337 0-44.138 19.801-44.138 44.138s19.801 44.138 44.138 44.138 44.138-19.801 44.138-44.138c0-24.336-19.801-44.138-44.138-44.138z" fill="#d7deed"/><path d="M423.724 207.448c-14.603 0-26.483-11.88-26.483-26.483s11.88-26.483 26.483-26.483 26.483 11.88 26.483 26.483-11.88 26.483-26.483 26.483zm0-35.31c-4.866 0-8.828 3.957-8.828 8.828s3.961 8.828 8.828 8.828c4.866 0 8.828-3.957 8.828-8.828s-3.962-8.828-8.828-8.828z" fill="#464655"/><path d="M300.138 366.345h-88.276a8.829 8.829 0 0 1-8.828-8.828v-26.483a8.829 8.829 0 0 1 8.828-8.828h88.276a8.829 8.829 0 0 1 8.828 8.828v26.483a8.829 8.829 0 0 1-8.828 8.828z" fill="#707487"/><path d="M264.828 366.345h-17.655a8.829 8.829 0 0 1-8.828-8.828v-26.483a8.829 8.829 0 0 1 8.828-8.828h17.655a8.829 8.829 0 0 1 8.828 8.828v26.483a8.83 8.83 0 0 1-8.828 8.828z" fill="#ffd764"/></svg>