<svg xmlns="http://www.w3.org/2000/svg" viewBox="0 0 512.001 512.001"><path d="M256 503.173c-111.953 0-203.034-91.082-203.034-203.034S144.047 97.104 256 97.104s203.034 91.082 203.034 203.034S367.953 503.173 256 503.173zm0-388.414c-102.22 0-185.379 83.161-185.379 185.379S153.78 485.518 256 485.518s185.379-83.161 185.379-185.379S358.22 114.759 256 114.759z" fill="#e4eaf6"/><path fill="#d29b6e" d="M277.601 97.889V78.856h-43.202v19.033L256 119.641z"/><path d="M310.464 101.319l-29.409-6.596a4.834 4.834 0 0 1-1.235-.473L256 107.494l-22.891-13.885a4.806 4.806 0 0 1-2.164 1.114l-29.409 6.596c-4.295.962-7.329 4.616-7.329 8.82v17.742c0 2.503 2.129 4.531 4.754 4.531h114.08c2.625 0 4.754-2.028 4.754-4.531V110.14c-.002-4.204-3.036-7.857-7.331-8.821z" fill="#707487"/><g fill="#5b5d6e"><path d="M300.345 117.712l15.401-13.187c1.291 1.558 2.047 3.518 2.047 5.615v17.742c0 2.503-2.129 4.531-4.754 4.531h-16.637v-6.276c.001-3.213 1.434-6.277 3.943-8.425zm-88.69 0l-15.401-13.187c-1.291 1.558-2.047 3.518-2.047 5.615v17.742c0 2.503 2.129 4.531 4.754 4.531h16.637v-6.276c-.001-3.213-1.434-6.277-3.943-8.425zm50.287 14.702h-11.884l1.485-24.996h8.913z"/><path d="M234.276 88.858L256 107.494s-6.083 2.927-13.591 8.828c-1.549 1.217-3.892.724-4.722-1.017l-10.206-21.402 3.229-4.617c.802-1.15 2.489-1.352 3.566-.428zm43.448 0L256 107.494s6.083 2.927 13.591 8.828c1.549 1.217 3.892.724 4.722-1.017l10.206-21.402-3.229-4.617c-.802-1.15-2.489-1.352-3.566-.428z"/></g><path d="M264.828.001h-17.655c-14.626 0-26.483 11.857-26.483 26.483v19.17c0 4.682 1.86 9.173 5.171 12.484l3.657 3.656h52.966l3.657-3.657a17.654 17.654 0 0 0 5.171-12.484v-19.17C291.31 11.857 279.454.001 264.828.001z" fill="#694b4b"/><path d="M228.577 45.477l1.131 25.446c.177 3.969 2.08 7.65 5.19 10.034l8.963 6.872a12.821 12.821 0 0 0 7.804 2.659h8.671c2.814 0 5.553-.934 7.804-2.659l8.963-6.872c3.109-2.385 5.013-6.065 5.19-10.034l1.131-25.446c.413-9.284-6.838-17.043-15.928-17.043h-22.987c-9.093 0-16.345 7.759-15.932 17.043z" fill="#f0c087"/><path fill="#d29b6e" d="M83.394 300.923v-19.032H40.192v19.032l21.601 21.752z"/><path d="M116.257 304.354l-29.409-6.596a4.834 4.834 0 0 1-1.235-.473l-23.82 13.245-22.891-13.885a4.818 4.818 0 0 1-2.164 1.115l-29.409 6.595c-4.295.962-7.329 4.614-7.329 8.82v17.742c0 2.504 2.129 4.532 4.754 4.532h114.08c2.625 0 4.754-2.028 4.754-4.531v-17.742c-.002-4.207-3.036-7.859-7.331-8.822z" fill="#eff2fa"/><path d="M106.138 320.746l15.401-13.187c1.291 1.558 2.047 3.518 2.047 5.615v17.742c0 2.503-2.129 4.531-4.754 4.531h-16.637v-6.276c.001-3.213 1.434-6.276 3.943-8.425zm-88.69 0L2.047 307.559C.757 309.117 0 311.077 0 313.175v17.742c0 2.504 2.129 4.532 4.754 4.532H21.39v-6.276c0-3.215-1.433-6.278-3.942-8.427z" fill="#e4eaf6"/><path fill="#5b5d6e" d="M67.735 335.449H55.851l1.486-24.997h8.912z"/><g fill="#e4eaf6"><path d="M40.07 291.892l21.724 18.636s-6.083 2.927-13.591 8.828c-1.549 1.217-3.892.724-4.722-1.017l-10.206-21.402 3.229-4.617c.801-1.149 2.489-1.351 3.566-.428z"/><path d="M83.517 291.892l-21.724 18.636s6.083 2.927 13.591 8.828c1.549 1.217 3.892.724 4.722-1.017l10.206-21.402-3.229-4.617c-.802-1.149-2.489-1.351-3.566-.428z"/></g><path d="M70.621 203.035H52.966c-14.626 0-26.483 11.857-26.483 26.483v19.17c0 4.682 1.86 9.173 5.171 12.484l3.657 3.656h52.966l3.657-3.657a17.654 17.654 0 0 0 5.171-12.484v-19.169c-.002-14.626-11.858-26.483-26.484-26.483z" fill="#694b4b"/><path d="M34.37 248.511l1.131 25.446c.177 3.969 2.08 7.65 5.19 10.034l8.963 6.872a12.821 12.821 0 0 0 7.804 2.659h8.671c2.814 0 5.553-.934 7.804-2.659l8.963-6.872c3.11-2.385 5.013-6.065 5.19-10.034l1.131-25.446c.413-9.284-6.838-17.043-15.928-17.043H50.3c-9.091.001-16.342 7.759-15.93 17.043z" fill="#f0c087"/><path fill="#d29b6e" d="M471.808 300.923v-19.032h-43.202v19.032l21.601 21.752z"/><path d="M504.671 304.354l-29.409-6.596a4.834 4.834 0 0 1-1.235-.473l-23.82 13.245-22.891-13.885a4.818 4.818 0 0 1-2.164 1.115l-29.409 6.596c-4.295.963-7.329 4.616-7.329 8.821v17.742c0 2.503 2.129 4.531 4.754 4.531h114.08c2.625 0 4.754-2.028 4.754-4.531v-17.742c-.002-4.208-3.038-7.86-7.331-8.823z" fill="#eff2fa"/><path d="M494.552 320.746l15.401-13.187c1.291 1.558 2.047 3.518 2.047 5.615v17.742c0 2.503-2.129 4.531-4.754 4.531H490.61v-6.276c0-3.213 1.433-6.276 3.942-8.425zm-88.69 0l-15.401-13.187c-1.291 1.558-2.047 3.518-2.047 5.615v17.742c0 2.503 2.129 4.531 4.754 4.531h16.637v-6.276c-.001-3.213-1.434-6.276-3.943-8.425z" fill="#e4eaf6"/><path fill="#5b5d6e" d="M456.149 335.449h-11.884l1.485-24.997h8.913z"/><g fill="#e4eaf6"><path d="M428.483 291.892l21.724 18.636s-6.083 2.927-13.591 8.828c-1.549 1.217-3.892.724-4.722-1.017l-10.206-21.402 3.229-4.617c.802-1.149 2.489-1.351 3.566-.428z"/><path d="M471.93 291.892l-21.724 18.636s6.083 2.927 13.591 8.828c1.549 1.217 3.892.724 4.722-1.017l10.206-21.402-3.229-4.617c-.802-1.149-2.489-1.351-3.566-.428z"/></g><path d="M459.034 203.035h-17.655c-14.626 0-26.483 11.857-26.483 26.483v19.17c0 4.682 1.86 9.173 5.171 12.484l3.657 3.656h52.966l3.657-3.657a17.654 17.654 0 0 0 5.171-12.484v-19.169c-.001-14.626-11.857-26.483-26.484-26.483z" fill="#694b4b"/><path d="M422.784 248.511l1.131 25.446c.177 3.969 2.08 7.65 5.19 10.034l8.963 6.872a12.821 12.821 0 0 0 7.804 2.659h8.671c2.814 0 5.553-.934 7.804-2.659l8.963-6.872c3.109-2.385 5.013-6.065 5.19-10.034l1.131-25.446c.413-9.284-6.838-17.043-15.928-17.043h-22.987c-9.093.001-16.345 7.759-15.932 17.043z" fill="#f0c087"/><path fill="#d29b6e" d="M277.601 477.475v-19.032h-43.202v19.032L256 499.227z"/><path d="M310.464 480.905l-29.409-6.596a4.834 4.834 0 0 1-1.235-.473L256 487.08l-22.891-13.885a4.806 4.806 0 0 1-2.164 1.114l-29.409 6.596c-4.295.963-7.329 4.616-7.329 8.821v17.742c0 2.503 2.129 4.531 4.754 4.531h114.08c2.625 0 4.754-2.028 4.754-4.531v-17.742c-.002-4.205-3.036-7.857-7.331-8.821z" fill="#b4e1fa"/><path d="M300.345 497.298l15.401-13.187c1.291 1.558 2.047 3.518 2.047 5.615v17.742c0 2.503-2.129 4.531-4.754 4.531h-16.637v-6.276c.001-3.213 1.434-6.276 3.943-8.425zm-88.69 0l-15.401-13.187c-1.291 1.558-2.047 3.518-2.047 5.615v17.742c0 2.503 2.129 4.531 4.754 4.531h16.637v-6.276c-.001-3.213-1.434-6.276-3.943-8.425z" fill="#a0d2f0"/><path fill="#5b5d6e" d="M261.942 512.001h-11.884l1.485-24.997h8.913z"/><path d="M234.276 468.444L256 487.08s-6.083 2.927-13.591 8.828c-1.549 1.217-3.892.724-4.722-1.017l-10.206-21.402 3.229-4.617c.802-1.15 2.489-1.351 3.566-.428zm43.448 0L256 487.08s6.083 2.927 13.591 8.828c1.549 1.217 3.892.724 4.722-1.017l10.206-21.402-3.229-4.617c-.802-1.15-2.489-1.351-3.566-.428z" fill="#a0d2f0"/><path d="M264.828 379.587h-17.655c-14.626 0-26.483 11.857-26.483 26.483v19.17c0 4.682 1.86 9.173 5.171 12.484l3.657 3.656h52.966l3.657-3.657a17.654 17.654 0 0 0 5.171-12.484V406.07c-.002-14.627-11.858-26.483-26.484-26.483z" fill="#694b4b"/><path d="M228.577 425.063l1.131 25.446c.177 3.969 2.08 7.65 5.19 10.035l8.963 6.872a12.821 12.821 0 0 0 7.804 2.659h8.671c2.814 0 5.553-.934 7.804-2.659l8.963-6.872c3.109-2.385 5.013-6.065 5.19-10.035l1.131-25.446c.413-9.284-6.838-17.043-15.928-17.043h-22.987c-9.093 0-16.345 7.759-15.932 17.043z" fill="#f0c087"/></svg>