<svg viewBox="0 0 250 250" xmlns="http://www.w3.org/2000/svg" fill-rule="evenodd" clip-rule="evenodd" stroke-linejoin="round" stroke-miterlimit="1.414"><path d="M230.258.002l.258.005.257.008.256.011.255.015.254.017.253.021.253.024.251.028.251.03.249.033.249.037.248.039.246.043.246.045.245.049.485.106.482.117.477.129.472.141.467.152.462.162.456.174.452.185.446.195.44.205.434.216.428.226.422.236.415.246.41.256.402.265.396.274.388.283.382.293.374.301.367.311.359.318.351.327.343.336.336.343.327.351.318.359.311.367.301.374.293.382.283.388.274.396.265.402.256.41.246.415.236.422.226.428.216.434.205.44.195.446.185.452.174.456.162.462.152.467.141.472.129.477.117.482.106.485.049.245.045.246.043.246.039.248.037.249.033.249.03.251.028.251.024.253.021.253.017.254.015.255.011.256.008.257.005.258L250 20v210l-.002.258-.005.258-.008.257-.011.256-.015.255-.017.254-.021.253-.024.253-.028.251-.03.251-.033.249-.037.249-.039.248-.043.246-.045.246-.049.245-.106.485-.117.482-.129.477-.141.472-.152.467-.162.462-.174.456-.185.452-.195.446-.205.44-.216.434-.226.428-.236.422-.246.415-.256.41-.265.402-.274.396-.283.388-.293.382-.301.374-.311.367-.318.359-.327.351-.336.343-.343.336-.351.327-.359.318-.367.311-.374.301-.382.293-.388.283-.396.274-.402.265-.41.256-.415.246-.422.236-.428.226-.434.216-.44.205-.446.195-.452.185-.456.174-.462.162-.467.152-.472.141-.477.129-.482.117-.485.106-.245.049-.246.045-.246.043-.248.039-.249.037-.249.033-.251.03-.251.028-.253.024-.253.021-.254.017-.255.015-.256.011-.257.008-.258.005L230 250H20l-.258-.002-.258-.005-.257-.008-.256-.011-.255-.015-.254-.017-.253-.021-.253-.024-.251-.028-.251-.03-.249-.033-.249-.037-.248-.039-.246-.043-.246-.045-.245-.049-.485-.106-.482-.117-.477-.129-.472-.141-.467-.152-.462-.162-.456-.174-.452-.185-.446-.195-.44-.205-.434-.216-.428-.226-.422-.236-.415-.246-.41-.256-.402-.265-.396-.274-.388-.283-.382-.293-.374-.301-.367-.311-.359-.318-.351-.327-.343-.336-.336-.343-.327-.351-.318-.359-.311-.367-.301-.374-.293-.382-.283-.388-.274-.396-.265-.402-.256-.41-.246-.415-.236-.422-.226-.428-.216-.434-.205-.44-.195-.446-.185-.452-.174-.456-.162-.462-.152-.467-.141-.472-.129-.477-.117-.482-.106-.485-.049-.245-.045-.246-.043-.246-.039-.248-.037-.249-.033-.249-.03-.251-.028-.251-.024-.253-.021-.253-.017-.254-.015-.255-.011-.256-.008-.257-.005-.258L0 230V20l.002-.258.005-.258.008-.257.011-.256.015-.255.017-.254.021-.253.024-.253.028-.251.03-.251.033-.249.037-.249.039-.248.043-.246.045-.246.049-.245.106-.485.117-.482.129-.477.141-.472.152-.467.162-.462.174-.456.185-.452.195-.446.205-.44.216-.434.226-.428.236-.422.246-.415.256-.41.265-.402.274-.396.283-.388.293-.382.301-.374.311-.367.318-.359.327-.351.336-.343.343-.336.351-.327.359-.318.367-.311.374-.301.382-.293.388-.283.396-.274.402-.265.41-.256.415-.246.422-.236.428-.226.434-.216.44-.205.446-.195.452-.185.456-.174.462-.162.467-.152.472-.141.477-.129.482-.117.485-.106.245-.049.246-.045.246-.043.248-.039.249-.037.249-.033.251-.03.251-.028.253-.024.253-.021.254-.017.255-.015.256-.011.257-.008.258-.005L20 0h210l.258.002zM20.025 8.333l-.179.001-.15.003-.151.005-.15.007-.152.009-.148.01-.146.012-.151.014-.146.016-.146.018-.147.019-.142.021-.145.023-.145.025-.139.026-.117.023-.31.068-.279.068-.276.075-.273.081-.271.088-.269.095-.266.101-.26.106-.259.114-.256.119-.254.126-.247.131-.247.138-.244.144-.237.149-.236.155-.231.16-.226.165-.225.172-.219.177-.214.181-.211.187-.207.193-.2.196-.197.201-.192.206-.187.211-.182.215-.176.218-.171.223-.166.228-.16.231-.155.235-.15.24-.143.241-.137.246-.132.251-.126.252-.119.256-.114.259-.106.261-.102.266-.094.268-.088.271-.081.273-.075.276-.068.28-.067.306-.023.116-.027.145-.025.144-.023.144-.021.146-.019.144-.018.145-.016.146-.014.148-.012.15-.011.15-.008.149-.007.15-.005.151-.003.15-.001.179v209.95l.001.179.003.15.005.151.007.15.008.149.011.151.012.149.014.148.016.147.018.145.019.143.021.145.023.146.025.142.027.144.023.118.067.307.068.279.075.276.081.273.088.271.094.268.102.267.107.261.112.257.12.257.126.253.132.25.137.245.143.242.15.239.155.236.161.232.166.228.17.221.176.218.183.217.186.21.192.206.197.202.201.196.206.192.211.187.213.18.219.177.226.173.226.165.232.161.236.155.236.148.243.143.248.139.247.131.254.126.256.119.259.113.26.107.264.1.273.096.27.089.271.08.275.075.281.068.313.068.114.023.139.026.145.025.142.022.148.022.144.019.146.018.146.016.148.014.149.012.151.011.152.008.147.007.148.005.15.002.182.002h209.95l.182-.002.15-.002.148-.005.147-.007.152-.008.151-.011.149-.012.148-.014.146-.016.146-.018.144-.019.148-.022.142-.022.145-.025.139-.026.114-.023.313-.068.281-.068.275-.075.271-.08.27-.089.273-.096.264-.1.26-.107.259-.113.256-.119.254-.126.247-.131.248-.139.243-.143.236-.148.236-.155.232-.161.226-.165.226-.173.219-.177.213-.18.211-.187.206-.192.201-.196.197-.202.192-.206.186-.21.183-.217.176-.218.17-.221.166-.228.161-.232.155-.236.15-.239.143-.242.137-.245.132-.25.126-.253.12-.257.112-.257.107-.261.102-.267.094-.268.088-.271.081-.273.075-.276.068-.279.067-.307.023-.118.027-.144.025-.142.023-.146.021-.145.019-.143.018-.145.016-.147.014-.148.012-.149.011-.151.008-.149.007-.15.005-.151.003-.15.001-.179V20.025l-.001-.179-.003-.15-.005-.151-.007-.15-.008-.149-.011-.15-.012-.15-.014-.148-.016-.146-.018-.145-.019-.144-.021-.146-.023-.144-.025-.144-.027-.145-.023-.116-.067-.306-.068-.28-.075-.276-.081-.273-.088-.271-.094-.268-.102-.266-.106-.261-.114-.259-.119-.256-.126-.252-.132-.251-.137-.246-.143-.241-.15-.24-.155-.235-.16-.231-.166-.228-.171-.223-.176-.218-.182-.215-.187-.211-.192-.206-.197-.201-.2-.196-.207-.193-.211-.187-.214-.181-.219-.177-.225-.172-.226-.165-.231-.16-.236-.155-.237-.149-.244-.144-.247-.138-.247-.131-.254-.126-.256-.119-.259-.114-.26-.106-.266-.101-.269-.095-.271-.088-.273-.081-.276-.075-.279-.068-.31-.068-.117-.023-.139-.026-.145-.025-.145-.023-.142-.021-.147-.019-.146-.018-.146-.016-.151-.014-.146-.012-.148-.01-.152-.009-.15-.007-.151-.005-.15-.003-.179-.001H20.025z" fill="#2e98e8"/><path d="M75 208.455v-162.5H41.667v162.5H75zm66.667-72.429V45.955h-33.334v90.071h33.334z" fill="#a7d5f7"/><path d="M208.333 158.544V45.955H175v112.589h33.333z" fill="#00af73"/></svg>