<svg xmlns="http://www.w3.org/2000/svg" viewBox="0 0 512 512"><path d="M141.867 476.623l-12.8-12.8 57.6-57.6V279.289h19.2v129.067c0 2.133-1.067 5.333-3.2 6.4l-60.8 61.867z" fill="#344a5e"/><circle cx="135.467" cy="469.156" r="42.667" fill="#66c6b9"/><path d="M125.867 405.156h-83.2v-19.2h74.667v-97.067h19.2v105.6c-1.067 6.4-5.334 10.667-10.667 10.667z" fill="#344a5e"/><circle cx="42.667" cy="395.556" r="42.667" fill="#f3705a"/><path d="M370.133 476.623l-60.8-60.8c-2.133-2.133-3.2-4.267-3.2-6.4V279.289h19.2v125.867l57.6 57.6-12.8 13.867z" fill="#344a5e"/><circle cx="376.533" cy="469.156" r="42.667" fill="#f3705a"/><path fill="#344a5e" d="M246.4 279.289h19.2v189.867h-19.2z"/><circle cx="256" cy="469.156" r="42.667" fill="#ffd15c"/><path d="M469.333 405.156h-84.267a9.56 9.56 0 0 1-9.6-9.6v-105.6h19.2v97.067h74.667v18.133z" fill="#344a5e"/><circle cx="469.333" cy="395.556" r="42.667" fill="#55c0eb"/><path d="M171.733 160.889c-2.133 8.533-7.467 16-11.733 14.933-4.267-1.067-7.467-8.533-5.333-18.133 2.133-8.533 7.467-16 11.733-14.933 5.333 1.067 7.467 9.6 5.333 18.133zm-98.133 0c2.133 8.533 7.467 16 11.733 14.933 4.267-1.067 7.467-8.533 5.333-18.133-2.133-8.533-7.467-16-11.733-14.933-4.266 1.067-7.466 9.6-5.333 18.133z" fill="#ffd15c"/><g fill="#415a6b"><ellipse cx="121.6" cy="131.023" rx="46.933" ry="46.933"/><path d="M168.533 138.489c-3.2 25.6-14.933 46.933-26.667 46.933s-18.133-21.333-14.933-46.933 14.933-46.933 26.667-46.933 18.133 21.333 14.933 46.933z"/></g><path d="M245.333 301.689l-8.533-39.467c-3.2-13.867-12.8-25.6-26.667-29.867l-50.133-16-37.333 14.933-37.333-14.933-50.133 16c-13.867 4.267-23.467 16-26.667 29.867L0 301.689h245.333z" fill="#344a5e"/><path fill="#e8eae9" d="M136.533 301.689l16-65.066h-64l19.2 65.066z"/><path fill="#f3705a" d="M101.333 301.689H144l-13.867-43.733 7.467-12.8-14.933-13.867-14.934 13.867 7.467 12.8z"/><g fill="#f3f3f3"><path d="M122.667 231.289s25.6-17.067 27.733-32l9.6 17.067-18.133 39.467-19.2-24.534z"/><path d="M122.667 231.289s-25.6-17.067-27.733-32l-9.6 17.067 18.133 39.467 19.2-24.534z"/></g><path d="M94.933 181.156v18.133c2.133 14.933 27.733 32 27.733 32s25.6-17.067 27.733-32v-18.133H94.933z" fill="#f7b64c"/><path d="M81.067 138.489C80 142.756 80 147.023 80 152.356c0 32 19.2 58.667 42.667 58.667s42.667-26.667 42.667-58.667c0-17.067-5.333-33.067-13.867-43.733-16 18.133-39.467 29.866-70.4 29.866z" fill="#ffd15c"/><path d="M161.067 301.689l25.6-35.2-21.334-14.933 21.334-14.933-32-30.934-20.267 96zm-76.8 0h26.666l-20.266-96-30.934 30.934L80 251.556l-20.267 14.933z" fill="#415a6b"/><path d="M438.4 160.889c-2.133 8.533-7.467 16-11.733 14.933-4.267-1.067-7.467-8.533-5.333-18.133 2.133-8.533 7.467-16 11.733-14.933 4.266 1.067 7.466 9.6 5.333 18.133zm-98.133 0c2.133 8.533 7.467 16 11.733 14.933 4.267-1.067 7.467-8.533 5.333-18.133-2.133-8.533-7.467-16-11.733-14.933-5.333 1.067-7.467 9.6-5.333 18.133z" fill="#ffd15c"/><g fill="#415a6b"><ellipse cx="382.933" cy="131.023" rx="41.6" ry="46.933"/><path d="M434.133 138.489c-4.267 25.6-20.267 46.933-36.267 46.933s-24.533-21.333-20.267-46.933c4.267-25.6 20.267-46.933 36.267-46.933s25.601 21.333 20.267 46.933z"/></g><path d="M512 301.689l-8.533-39.467c-3.2-13.867-12.8-25.6-26.667-29.867l-50.133-16-37.333 14.933L352 216.356l-50.133 16c-13.867 4.267-23.467 16-26.667 29.867l-8.533 39.467H512z" fill="#344a5e"/><path fill="#e8eae9" d="M403.2 301.689l16-65.066h-64l18.133 65.066z"/><path fill="#f3705a" d="M368 301.689h42.667L396.8 257.956l7.467-12.8-14.934-13.867-14.933 13.867 7.467 12.8z"/><path d="M389.333 231.289s25.6-17.067 27.733-32l9.6 17.067-18.133 39.467-19.2-24.534zm0 0s-25.6-17.067-27.733-32l-9.6 17.067 18.133 39.467 19.2-24.534z" fill="#f3f3f3"/><path d="M361.6 181.156v18.133c2.133 14.933 27.733 32 27.733 32s25.6-17.067 27.733-32v-18.133H361.6z" fill="#f7b64c"/><path d="M406.4 112.889c-17.067 8.533-36.267 13.867-55.467 14.933-2.133 7.467-4.267 14.933-4.267 24.533 0 32 19.2 58.667 42.667 58.667S432 184.356 432 152.356c0-5.333 0-9.6-1.067-13.867-10.666-7.466-18.133-16-24.533-25.6z" fill="#ffd15c"/><path d="M427.733 301.689l24.534-35.2L432 251.556l20.267-14.933-30.934-30.934-20.266 96zm-76.8 0H377.6l-20.267-96-32 30.934 21.334 14.933-21.334 14.933z" fill="#415a6b"/><path fill="#ced6e0" d="M218.667 206.756h73.6v94.933h-73.6z"/><path fill="#f05540" d="M266.667 231.289l10.666-9.6L256 200.356l-21.333 21.333 10.666 9.6z"/><path fill="#f3705a" d="M280.533 301.689l-13.866-70.4h-21.334l-12.8 70.4z"/><path d="M404.267 301.689l-11.733-46.933c-5.333-22.4-22.4-39.467-44.8-44.8l-35.2-8.533c-14.933 19.2-28.8 57.6-41.6 100.267h133.333v-.001zm-163.2 0c-13.867-42.667-27.733-81.067-41.6-100.267l-35.2 8.533c-22.4 5.333-39.467 22.4-44.8 44.8l-11.733 46.933 133.333.001z" fill="#8ad7f8"/><path fill="#f7b64c" d="M222.933 132.089v43.734L256 200.356l33.067-24.533v-43.734z"/><path d="M228.267.889c0 11.733-7.467 19.2-16 23.467-14.933 6.4-23.467 22.4-23.467 40.533 0 53.333 30.933 92.8 68.267 92.8 29.867 0 55.467-24.533 64-61.867 4.267-17.067 4.267-34.133-1.067-50.133-7.467-24.533-26.667-50.133-91.733-44.8z" fill="#415a6b"/><g fill="#ffd15c"><path d="M245.333 45.689c-12.8 9.6-27.733 16-43.733 18.133-3.2 9.6-4.267 21.333-4.267 32 0 46.933 26.667 84.267 58.667 84.267s58.667-37.333 58.667-84.267c0-4.267 0-7.467-1.067-11.733-25.6-4.266-50.133-18.133-68.267-38.4z"/><ellipse transform="rotate(-74.055 312.581 113.967)" cx="312.572" cy="113.964" rx="20.266" ry="11.733"/><ellipse transform="rotate(74.055 199.49 114.33)" cx="199.484" cy="114.327" rx="20.266" ry="11.733"/></g><path d="M289.067 175.823L256 200.356l19.2 26.666 25.6-32zm-66.134 0L256 200.356l-19.2 26.666-25.6-32z" fill="#f3f3f3"/><path d="M292.267 301.689l39.466-53.333-32-18.133 37.334-8.534-41.6-35.2-27.734 115.2zm-112-53.333l39.466 53.333h24.534l-27.734-115.2-41.6 35.2 37.334 8.534z" fill="#55c0eb"/></svg>