<svg xmlns="http://www.w3.org/2000/svg" viewBox="0 0 508 508"><circle cx="254" cy="254" r="254" fill="#90dfaa"/><path d="M282 191.2c-1.2 8-2.8 16.8-5.2 26.4-7.6 1.2-15.2 1.6-23.2 1.6s-15.6-.4-23.2-1.6c-2.4-9.2-4-18-5.2-26.4 6.4-20.4 28-22 28-22s22.4 1.6 28.8 22z" fill="#e6e9ee"/><path d="M280 136.4s3.2 18.4-26 32.4c-29.2-14-26-32.4-26-32.4v-.8c7.2 8.8 16 14.4 25.6 14.4s18.8-5.6 26-14.4c.4.4.4.8.4.8z" fill="#f9b54c"/><path fill="#f1543f" d="M265.2 169.2h-22.4l4.4 12.8h13.6z"/><path d="M242 218.8c4 .4 8 .4 12 .4s8 0 12-.4l-5.2-36.8h-13.6l-5.2 36.8z" fill="#ff7058"/><path d="M343.2 190c-18.4 14-41.2 24-66.4 27.6 2.4-9.6 4-18.4 5.2-26.4 0 .4 7.6-27.2 3.6-44l51.6 24.8 6 18zm-112.4 27.6c-24.8-4-47.6-13.6-66-27.6l5.6-18 51.6-24.8c-4 17.2 3.6 44.8 3.6 44 1.6 8 3.2 16.8 5.2 26.4z" fill="#324a5e"/><path d="M280 136.4s3.2 18.4-26 32.4c0 0 21.6 1.6 28 22 .4 1.2 12.4-43.2-2-54.4zm-52 0c-14.4 10.8-2.4 55.6-2.4 54.8 6.4-20.4 28-22 28-22-28.8-14.4-25.6-32.8-25.6-32.8z" fill="#fff"/><path d="M228 136.4c-14.4 10.8-2.4 55.6-2.4 54.8 6.4-20.4 28-22 28-22-28.8-14.4-25.6-32.8-25.6-32.8z" fill="#fff"/><path d="M287.2 116c-3.6 10.4-4.8 16.4-4.8 17.2-7.6 10.4-17.2 17.2-28 17.2-10 0-19.2-6-26.4-15.6-16-19.6-5.2-55.6-5.2-55.6 8 9.2 33.6 9.6 33.6 9.6-10.4-1.6-12.8-9.6-12.8-10.8 2 5.2 26.8 8.8 26.8 8.8 25.2 4 16.8 29.2 16.8 29.2z" fill="#ffd05b"/><path d="M239.2 41.6s34.8-14 52.8 17.6c19.2 34-4.8 70.8-9.6 73.6 0 0 1.2-6 4.8-17.2 0 0 8.4-25.2-17.2-28.8 0 0-24.8-3.2-26.8-8.8 0 0 2 9.2 13.2 10.8 0 0-25.6-.4-33.6-9.6 0 0-10.8 36 5.2 55.6 0 0-27.6-22-24.4-56-.4 0-2-46.8 35.6-37.2z" fill="#324a5e"/><path d="M385.2 384c-.8 6.8-2.4 14.4-4 22-6.4.8-12.8 1.6-19.2 1.6-6.4 0-13.2-.4-19.2-1.6-2-8-3.2-15.2-4.4-22 5.2-17.2 23.6-18.4 23.6-18.4s17.6 1.2 23.2 18.4z" fill="#e6e9ee"/><path d="M383.2 338s2.8 15.2-21.6 27.2C337.2 353.2 340 338 340 338v-.8c6 7.2 13.6 12 21.6 12s15.6-4.8 21.6-12v.8z" fill="#f9b54c"/><path fill="#f1543f" d="M371.2 365.2H352l4 10.8h11.2z"/><path d="M351.6 406.8c3.2.4 6.8.4 10 .4 3.6 0 6.8 0 10-.4l-4.4-30.8h-11.6l-4 30.8z" fill="#ff7058"/><path d="M436.4 382.8c-15.6 12-34.4 20-55.6 23.2 2-8 3.2-15.2 4-22 0 .4 6.4-22.8 3.2-37.2l43.6 20.8 4.8 15.2zm-94 23.2c-20.8-3.2-40-11.2-55.6-23.2l4.8-14.8 43.2-20.8c-3.2 14.4 2.8 37.6 3.2 37.2 1.2 6.4 2.4 13.6 4.4 21.6z" fill="#324a5e"/><path d="M383.2 338s2.8 15.6-21.6 27.2c0 0 18 1.6 23.6 18.4.4.8 10-36.4-2-45.6zm-43.2 0c-12 9.2-2 46.4-2 46 5.6-17.2 23.6-18.4 23.6-18.4-24.4-12-21.6-27.6-21.6-27.6z" fill="#fff"/><path d="M340 338c-12 9.2-2 46.4-2 46 5.6-17.2 23.6-18.4 23.6-18.4-24.4-12-21.6-27.6-21.6-27.6z" fill="#fff"/><path d="M389.2 320.8c-2.8 8.8-4 13.6-4 14.4-6.4 8.8-14.4 14.4-23.6 14.4-8.4 0-16-5.2-22.4-12.8-13.2-16.4-4-46.4-4-46.4 6.8 7.6 28 8 28 8-8.8-1.6-10.8-8-10.8-9.2 1.6 4.4 22.4 7.2 22.4 7.2 21.6 3.2 14.4 24.4 14.4 24.4z" fill="#ffd05b"/><path d="M349.2 258.4s29.2-11.6 44.4 14.8c16 28.4-4 59.2-8 61.6 0 0 1.2-4.8 4-14.4 0 0 7.2-21.2-14.4-24.4 0 0-20.8-2.8-22.4-7.2 0 0 1.6 7.6 10.8 9.2 0 0-21.6-.4-28-8 0 0-9.2 30.4 4 46.4 0 0-23.2-18.4-20.4-46.8 0 0-1.2-39.2 30-31.2z" fill="#324a5e"/><path d="M170 384c-.8 6.8-2.4 14.4-4 22-6.4.8-12.8 1.6-19.2 1.6s-13.2-.4-19.2-1.6c-2-8-3.2-15.2-4.4-22 5.2-17.2 23.6-18.4 23.6-18.4s17.6 1.2 23.2 18.4z" fill="#e6e9ee"/><path d="M168 338s2.8 15.2-21.6 27.2c-24.4-12-21.6-27.2-21.6-27.2v-.8c6 7.2 13.6 12 21.6 12s15.6-4.8 21.6-12v.8z" fill="#f9b54c"/><path fill="#f1543f" d="M155.6 365.2h-18.8l4 10.8H152z"/><path d="M136.4 406.8c3.2.4 6.8.4 10 .4 3.6 0 6.8 0 10-.4L152 376h-11.6l-4 30.8z" fill="#ff7058"/><path d="M221.2 382.8c-15.6 12-34.4 20-55.6 23.2 2-8 3.2-15.2 4-22 0 .4 6.4-22.8 3.2-37.2l43.6 20.8 4.8 15.2zm-94 23.2c-20.8-3.2-40-11.2-55.6-23.2l4.8-14.8 43.2-20.8c-3.2 14.4 2.8 37.6 3.2 37.2.8 6.4 2.4 13.6 4.4 21.6z" fill="#324a5e"/><path d="M168 338s2.8 15.6-21.6 27.2c0 0 18 1.6 23.6 18.4 0 .8 10-36.4-2-45.6zm-43.2 0c-12 9.2-2 46.4-2 46 5.6-17.2 23.6-18.4 23.6-18.4-24.4-12-21.6-27.6-21.6-27.6z" fill="#fff"/><path d="M124.8 338c-12 9.2-2 46.4-2 46 5.6-17.2 23.6-18.4 23.6-18.4-24.4-12-21.6-27.6-21.6-27.6z" fill="#fff"/><path d="M174 320.8c-2.8 8.8-4 13.6-4 14.4-6.4 8.8-14.4 14.4-23.6 14.4-8.4 0-16-5.2-22.4-12.8-13.2-16.4-4-46.4-4-46.4 6.8 7.6 28 8 28 8-8.8-1.6-10.8-8-10.8-9.2 1.6 4.4 22.4 7.2 22.4 7.2 21.6 3.2 14.4 24.4 14.4 24.4z" fill="#ffd05b"/><path d="M134 258.4s29.2-11.6 44.4 14.8c16 28.4-4 59.2-8 61.6 0 0 1.2-4.8 4-14.4 0 0 7.2-21.2-14.4-24.4 0 0-20.8-2.8-22.4-7.2 0 0 1.6 7.6 10.8 9.2 0 0-21.6-.4-28-8 0 0-9.2 30.4 4 46.4 0 0-23.2-18.4-20.4-46.8 0 0-1.2-39.2 30-31.2z" fill="#324a5e"/><path d="M295.2 302.8l-18.4-30c-.8-1.2-2-2-3.2-2h-20.8V234c0-2-1.6-4-4-4-2 0-4 1.6-4 4v37.2H224c-1.2 0-2.8.8-3.2 2l-18.4 30c-1.2 2-.4 4.4 1.2 5.6 2 1.2 4.4.4 5.6-1.2l17.2-28h45.2l17.2 28c.8 1.2 2 2 3.2 2 .8 0 1.6 0 2-.4 2-2 2.4-4.4 1.2-6.4z" fill="#fff"/></svg>