<svg xmlns="http://www.w3.org/2000/svg" viewBox="0 0 496 496" width="512" height="512"><g fill="#91DC5A"><path d="M480 304h-48V32c0-17.648-14.352-32-32-32s-32 14.352-32 32v108.688L240.968 13.656C232.168 4.848 220.456 0 208 0s-24.168 4.848-32.968 13.656L136 52.688V16c0-8.824-7.176-16-16-16H40c-8.824 0-16 7.176-16 16v148.688l-13.368 13.368C3.776 184.912 0 194.056 0 204.264c0 15.544 10.072 28.672 24 33.576V400c0 8.824 7.176 16 16 16h280v64c0 8.824 7.176 16 16 16h128c8.824 0 16-7.176 16-16V352c8.824 0 16-7.176 16-16v-16c0-8.824-7.176-16-16-16zM384 32c0-8.824 7.176-16 16-16s16 7.176 16 16v272h-32V32zm-24 123.312l8 8v56.96a20.805 20.805 0 0 1-2.632-2.208L360 212.688v-57.376zm-48-48l32 32v57.376l-32-32v-57.376zm-48-48l32 32v57.376l-32-32V59.312zm-48-41.888c5.064 1.304 9.848 3.728 13.656 7.544L248 43.312v58.28c-9.336-7.16-20.304-11.656-32-13.064V17.424zm-48 25.888l18.344-18.344c3.816-3.816 8.592-6.24 13.656-7.544v71.104c-11.696 1.408-22.664 5.896-32 13.064v-58.28zm-16 16v57.376l-32 32V91.312l32-32zM40 112h16V96H40V80h16V64H40V48h32V32H40V16h80v48H72v16h36.688L40 148.688V112zm64-4.688v57.376l-32 32v-57.376l32-32zM36.84 224h-.992C24.904 224 16 215.144 16 203.816c0-5.488 2.112-10.616 5.944-14.448L56 155.312v57.376l-5.76 5.76A18.832 18.832 0 0 1 36.84 224zM40 312h160l.008 16H40v-16zm16 88H40v-56h16v56zm32 0H72v-56h16v56zm32 0h-16v-56h16v56zm32 0h-16v-56h16v56zm32 0h-16v-56h16v56zm136 0H200v-56c8.824 0 16-7.176 16-16v-16c0-8.824-7.176-16-16-16H40v-56.312c8.128-.728 15.704-4.08 21.552-9.928l111.136-111.144C182.12 109.192 194.664 104 208 104s25.88 5.192 35.312 14.624l110.744 110.744c3.968 3.968 8.728 6.832 13.944 8.608V304h-48c-8.824 0-16 7.176-16 16v16c0 8.824 7.176 16 16 16v48zm144 80h-24v-56h-16v56h-48v-88h-16v88h-24V352h128v128zm16-144H320l-.008-16H480v16z"/><path d="M424 392h16v16h-16zM208 152c-35.288 0-64 28.712-64 64s28.712 64 64 64 64-28.712 64-64-28.712-64-64-64zm-8 111.28c-20.056-3.392-35.888-19.224-39.28-39.28H200v39.28zm0-55.28h-39.28c3.392-20.056 19.224-35.888 39.28-39.28V208zm16 55.28V224h39.28c-3.392 20.056-19.224 35.888-39.28 39.28zm0-55.28v-39.28c20.056 3.392 35.888 19.224 39.28 39.28H216zM88 32h16v16H88z"/></g></svg>