<svg xmlns="http://www.w3.org/2000/svg" width="512" height="512" viewBox="0 0 49.999 49.999"><g fill="#006DF0"><path d="M48.681 42.295l-8.925-8.904c-.045-.045-.098-.078-.145-.11a21.653 21.653 0 0 1-2.843 3.487 21.27 21.27 0 0 1-3.501 2.845c.044.046.077.1.122.144l8.907 8.924a4.52 4.52 0 0 0 6.383 0 4.525 4.525 0 0 0 .002-6.386zM35.496 6.079c-8.108-8.106-21.298-8.106-29.407.002-8.117 8.106-8.118 21.306-.006 29.415 8.112 8.105 21.305 8.105 29.413-.001 8.108-8.108 8.107-21.309 0-29.416zM9.905 31.678c-6.003-6.003-6.001-15.776.002-21.773 6.003-6.002 15.77-6.002 21.771-.003 5.999 6 5.997 15.762 0 21.774-6.002 5.984-15.768 6.006-21.773.002z"/><path d="M31.028 24.606l-3.797-3.752h-.973c-.062-.721-.17-1.425-.369-2.068l2.604-3.539a.876.876 0 0 0-1.411-1.037l-2.025 2.753c-.598-1-1.366-1.796-2.263-2.274a1.76 1.76 0 0 0 .181-.768c0-1.076-.979-1.95-2.188-1.95-1.21 0-2.189.874-2.189 1.95 0 .273.067.532.181.768-.896.478-1.663 1.274-2.262 2.274l-2.024-2.753a.876.876 0 0 0-1.412 1.037l2.604 3.539c-.199.644-.308 1.348-.369 2.068h-.973l-3.796 3.752a.873.873 0 0 0-.007 1.237.87.87 0 0 0 1.236.007l3.285-3.247h.254c.062.721.17 1.422.369 2.067l-2.604 3.539a.877.877 0 0 0 1.412 1.038l2.024-2.753c1.016 1.699 2.542 2.807 4.271 2.807s3.254-1.107 4.27-2.807l2.025 2.753a.872.872 0 0 0 1.224.186.878.878 0 0 0 .187-1.225l-2.604-3.539c.199-.644.309-1.345.369-2.067h.254l3.285 3.247a.87.87 0 0 0 1.238-.007.873.873 0 0 0-.007-1.236z"/></g></svg>