<svg xmlns="http://www.w3.org/2000/svg" viewBox="0 0 503.607 503.607"><path d="M285.377 83.934h-67.148c-3.357 0-5.875-1.679-7.554-5.036l-16.787-33.574c-1.679-2.518-.839-5.875 0-8.393 2.518-1.679 5.036-3.357 7.554-3.357h100.721c2.518 0 5.875 1.679 7.554 4.197 1.679 2.518 1.679 5.875 0 8.393L292.93 79.738c-.838 2.518-4.196 4.196-7.553 4.196zm-62.111-16.786h57.075l8.393-16.787h-73.862l8.394 16.787zm-64.63 428.065H43.646c-5.875 0-10.072-4.197-10.072-9.233v-57.915h134.295v57.915c0 5.036-4.197 9.233-9.233 9.233" fill="#ffe100"/><path d="M142.689 428.066v57.915c0 5.036-4.197 9.233-9.233 9.233h25.18c5.036 0 9.233-4.197 9.233-9.233v-57.915h-25.18z" fill="#ffa800"/><path d="M58.754 485.98v-57.915h-25.18v57.915c0 5.036 4.197 9.233 10.072 9.233h25.18c-5.875 0-10.072-4.197-10.072-9.233" fill="#fff"/><path d="M183.816 428.066H18.466c-5.875 0-10.072-4.197-10.072-9.233v-31.056c0-5.875 4.197-10.072 10.072-10.072h165.351c5.036 0 9.233 4.197 9.233 9.233v31.056c-.001 5.875-4.198 10.072-9.234 10.072" fill="#ffe100"/><path d="M33.574 417.154v-31.056c0-5.036 4.197-9.233 9.233-9.233h-25.18c-5.036 0-9.233 4.197-9.233 9.233v31.056c0 5.036 4.197 9.233 9.233 9.233h25.18c-5.037.839-9.233-3.357-9.233-9.233" fill="#fff"/><path d="M495.213 143.528v114.99c0 5.036-4.197 9.233-9.233 9.233h-57.915V134.295h57.915c5.036 0 9.233 4.197 9.233 9.233" fill="#ffe100"/><path d="M486.82 134.295h-25.18c5.036 0 9.233 4.197 9.233 9.233v114.99c0 5.036-4.197 9.233-9.233 9.233h25.18c5.036 0 9.233-4.197 9.233-9.233v-114.99c.839-5.036-3.358-9.233-9.233-9.233" fill="#ffa800"/><path d="M428.066 118.348v165.351c0 5.036-4.197 9.233-9.233 9.233h-31.056c-5.036 0-9.233-4.197-9.233-9.233V118.348c0-5.036 4.197-9.233 9.233-9.233h31.056c5.036 0 9.233 4.196 9.233 9.233m-151.082 15.947c-134.295 0-243.41 109.115-243.41 243.41h134.295c0-60.433 48.682-109.115 109.115-109.115h100.721V134.295H276.984z" fill="#ffe100"/><path d="M302.164 134.295h-25.18c-134.295 0-243.41 109.115-243.41 243.41h25.18c0-134.295 109.115-243.41 243.41-243.41" fill="#fff"/><path d="M276.984 134.295h16.787V75.541H193.049v73.862c26.02-10.072 54.558-15.108 83.935-15.108" fill="#ffe100"/><path d="M218.229 75.541h-25.18v73.862c8.393-3.357 16.787-5.875 25.18-7.554V75.541z" fill="#fff"/><path d="M142.689 41.967h201.443c9.233 0 16.787-7.554 16.787-16.787s-7.554-16.787-16.787-16.787H142.689c-9.233 0-16.787 7.554-16.787 16.787s7.554 16.787 16.787 16.787" fill="#63d3fd"/><path d="M344.131 8.393h-25.18c9.233 0 16.787 7.554 16.787 16.787s-7.554 16.787-16.787 16.787h25.18c9.233 0 16.787-7.554 16.787-16.787s-7.554-16.787-16.787-16.787" fill="#3db9f9"/><path d="M142.689 8.393h25.18c-9.233 0-16.787 7.554-16.787 16.787s7.554 16.787 16.787 16.787h-25.18c-9.233 0-16.787-7.554-16.787-16.787s7.554-16.787 16.787-16.787" fill="#fff"/><path d="M276.984 83.934h-67.148c-3.357 0-5.875-1.679-7.554-5.036l-16.787-33.574c-1.679-2.518-.839-5.875 0-8.393 2.518-1.679 5.036-3.357 7.554-3.357H293.77c2.518 0 5.875 1.679 7.554 4.197 1.679 2.518 1.679 5.875 0 8.393l-16.787 33.574c-.839 2.518-4.196 4.196-7.553 4.196zm-62.112-16.786h57.075l8.393-16.787h-73.862l8.394 16.787z"/><path d="M344.131 50.361H142.689c-14.269 0-25.18-10.911-25.18-25.18S128.42 0 142.689 0h201.443c14.269 0 25.18 10.911 25.18 25.18S358.4 50.361 344.131 50.361zM142.689 16.787c-5.036 0-8.393 3.357-8.393 8.393s3.357 8.393 8.393 8.393h201.443c5.036 0 8.393-3.357 8.393-8.393s-3.357-8.393-8.393-8.393H142.689zm15.947 486.82H43.646c-10.072 0-18.466-8.393-18.466-17.626v-66.308h151.082v66.308c0 9.232-7.554 17.626-17.626 17.626zM41.967 436.459v49.521s.839.839 1.679.839h114.99c.839 0 .839-.839.839-.839v-49.521H41.967z"/><path d="M183.816 436.459H18.466C8.393 436.459 0 428.066 0 418.833v-31.056c0-10.072 8.393-18.466 18.466-18.466h165.351c10.072 0 17.626 8.393 17.626 17.626v31.056c0 10.073-7.554 18.466-17.627 18.466zm-165.35-50.361c-.839 0-1.679.839-1.679.839v31.056c0 .839.839 1.679 1.679 1.679h165.351c.839 0 .839-.839.839-.839v-31.056c0-.839-.839-.839-.839-.839H18.466v-.84zM485.98 276.984h-66.308V125.902h66.308c10.072 0 17.626 8.393 17.626 17.626v114.99c.001 10.072-7.554 18.466-17.626 18.466zm-49.521-16.787h49.521c.839 0 .839-.839.839-.839v-115.83c0-.839-.839-.839-.839-.839h-49.521v117.508z"/><path d="M418.833 302.164h-31.056c-10.072 0-18.466-8.393-18.466-17.626v-166.19c0-10.072 8.393-17.626 17.626-17.626h31.056c10.072 0 17.626 8.393 17.626 17.626v165.351c.84 10.071-6.714 18.465-16.786 18.465zm-31.056-184.656c-.839 0-.839.839-.839.839v165.351c0 .839.839.839.839.839h31.056c.839 0 .839-.839.839-.839v-165.35c0-.839-.839-.839-.839-.839h-31.056z"/><path d="M176.262 386.098H25.18v-8.393c0-138.492 113.311-251.803 251.803-251.803h109.115v151.082H276.984c-55.397 0-100.721 45.325-100.721 100.721v8.393zM41.967 369.311h117.508c4.197-61.272 55.397-109.115 117.508-109.115h92.328V142.689h-92.328c-126.74 0-229.98 100.721-235.016 226.622z"/><path d="M193.049 157.797c-1.679 0-3.357-.839-5.036-1.679-2.518-1.679-3.357-4.197-3.357-6.715V75.541c0-5.036 3.357-8.393 8.393-8.393H293.77c5.036 0 8.393 3.357 8.393 8.393v58.754c0 5.036-3.357 8.393-8.393 8.393h-16.787c-27.698 0-55.397 5.036-81.416 14.269 0 .84-1.678.84-2.518.84zm8.394-73.863v53.718c24.341-7.554 49.521-11.751 75.541-11.751h8.393V83.934h-83.934z"/></svg>