<svg xmlns="http://www.w3.org/2000/svg" width="512" height="512"><path d="M503.526 291.33h-40.254v-70.24h40.254a8.473 8.473 0 0 0 8.474-8.474 8.473 8.473 0 0 0-8.474-8.474h-40.465c-.849-3.784-4.222-6.614-8.263-6.614h-21.053c-.766-3.891-4.194-6.828-8.311-6.828h-52.996a8.473 8.473 0 0 0-8.474 8.474v4.965h-55.689v-56.101h4.553a8.473 8.473 0 0 0 8.474-8.474V86.568c0-3.967-2.729-7.288-6.41-8.211V57.202c0-4.04-2.83-7.415-6.614-8.263V8.474A8.473 8.473 0 0 0 299.804 0a8.473 8.473 0 0 0-8.474 8.474v40.254h-70.24V8.474c0-4.68-3.793-8.474-8.474-8.474s-8.474 3.794-8.474 8.474v40.465c-3.784.849-6.614 4.222-6.614 8.263v21.054c-3.892.767-6.828 4.195-6.828 8.311v52.996a8.473 8.473 0 0 0 8.474 8.474h4.965v56.101H148.04v-4.965a8.473 8.473 0 0 0-8.474-8.474H86.568c-3.967 0-7.287 2.73-8.21 6.409H57.202c-4.04 0-7.415 2.83-8.263 6.614H8.474c-4.681 0-8.474 3.794-8.474 8.474s3.793 8.474 8.474 8.474h40.254v70.24H8.474A8.473 8.473 0 0 0 0 299.384a8.473 8.473 0 0 0 8.474 8.474h40.465c.849 3.784 4.222 6.614 8.263 6.614h21.054c.766 3.891 4.194 6.828 8.311 6.828h52.996a8.473 8.473 0 0 0 8.474-8.474v-4.553h56.099v55.689h-4.965a8.473 8.473 0 0 0-8.474 8.474v52.996c0 3.966 2.729 7.287 6.409 8.21v21.156c0 4.04 2.83 7.415 6.614 8.263v40.465c0 4.68 3.793 8.474 8.474 8.474s8.474-3.794 8.474-8.474v-40.254h70.24v40.254c0 4.68 3.793 8.474 8.474 8.474s8.474-3.794 8.474-8.474v-40.465c3.785-.847 6.614-4.222 6.614-8.263v-21.054c3.892-.767 6.828-4.195 6.828-8.311v-52.996a8.473 8.473 0 0 0-8.474-8.474h-4.553v-55.689h55.689v4.553a8.473 8.473 0 0 0 8.474 8.474h52.996c3.967 0 7.287-2.73 8.21-6.409h21.155c4.04 0 7.415-2.83 8.263-6.614h40.465c4.681 0 8.474-3.794 8.474-8.474s-3.79-8.474-8.471-8.474zm-425.432 6.196H65.676v-83.47h12.417v83.47zm52.995 6.828H95.042v-96.706h36.048v96.706zm83.386-238.678h83.469v12.417h-83.469V65.676zm-6.827 29.366h96.706v36.048h-96.706V95.042zm89.878 351.283h-83.47v-12.417h83.47v12.417zm6.828-29.367h-96.706V380.91h96.706v36.048zm59.61-125.632H299.8a8.473 8.473 0 0 0-8.474 8.474v64.158h-70.24V299.8a8.473 8.473 0 0 0-8.474-8.474h-64.568v-70.24h64.568a8.473 8.473 0 0 0 8.474-8.474v-64.575h70.24v64.575a8.473 8.473 0 0 0 8.474 8.474h64.163v70.24zm52.995 13.028h-36.048v-96.706h36.048v96.706zm29.366-6.41h-12.416v-83.47h12.416v83.47z" fill="#006DF0"/></svg>