<svg xmlns="http://www.w3.org/2000/svg" viewBox="0 0 32.354 32.354" width="512" height="512"><g fill="#933EC5"><path d="M22.145 29.01H10.21c-3.873 0-7.024-3.15-7.024-7.023v-8.525a2.11 2.11 0 0 1 2.107-2.107h21.769c1.161 0 2.106.945 2.106 2.107v8.525a7.03 7.03 0 0 1-7.023 7.023zM5.293 12.354c-.61 0-1.107.497-1.107 1.107v8.525a6.03 6.03 0 0 0 6.024 6.023h11.935a6.03 6.03 0 0 0 6.023-6.023v-8.525c0-.61-.496-1.107-1.106-1.107H5.293z"/><path d="M10.394 12.354a.5.5 0 0 1-.5-.5V2.5c0-.827-.673-1.5-1.5-1.5h-.165c-.827 0-1.5.673-1.5 1.5v9.354a.5.5 0 0 1-1 0V2.5c0-1.379 1.121-2.5 2.5-2.5h.164c1.379 0 2.5 1.121 2.5 2.5v9.354a.499.499 0 0 1-.499.5zm15.73 0a.5.5 0 0 1-.5-.5V2.5c0-.827-.673-1.5-1.5-1.5h-.164c-.827 0-1.5.673-1.5 1.5v9.354a.5.5 0 0 1-1 0V2.5c0-1.379 1.121-2.5 2.5-2.5h.164c1.379 0 2.5 1.121 2.5 2.5v9.354a.5.5 0 0 1-.5.5zm-6.195 20h-7.504a.5.5 0 0 1-.5-.5V28.51a.5.5 0 0 1 .5-.5h7.504a.5.5 0 0 1 .5.5v3.344a.5.5 0 0 1-.5.5zm-7.004-1h6.504V29.01h-6.504v2.344z"/></g><g fill="#933EC5"><path d="M14.721 23.418l1.215-3.339-1.534-.438 2.876-3.418-.86 2.986 1.534.438z"/><path d="M14.721 23.918a.5.5 0 0 1-.47-.671l1.031-2.835-1.018-.291a.5.5 0 0 1-.246-.803l2.877-3.418a.5.5 0 1 1 .863.461l-.722 2.504 1.052.301a.498.498 0 0 1 .243.806L15.1 23.743a.5.5 0 0 1-.379.175zm1.504-4.248a.497.497 0 0 1 .18.579l-.274.755.935-1.091-.784-.224a.273.273 0 0 1-.057-.019zm-.944-.298l.791.226c.02.005.038.012.057.02a.503.503 0 0 1-.191-.547l.21-.728-.867 1.029z"/></g></svg>