<svg xmlns="http://www.w3.org/2000/svg" viewBox="0 0 512.004 512.004"><g fill="#f1709f"><circle cx="251.703" cy="255.996" r="165.283"/><circle cx="253.215" cy="255.908" r="110.268"/></g><circle cx="253.215" cy="77.506" r="68.135" fill="#42a555"/><circle cx="379.788" cy="129.347" r="68.506" fill="#ffdb6c"/><circle cx="431.63" cy="255.908" r="68.135" fill="#42a555"/><circle cx="126.679" cy="129.347" r="68.506" fill="#ffdb6c"/><circle cx="253.252" cy="434.498" r="68.135" fill="#42a555"/><g fill="#ffdb6c"><circle cx="126.679" cy="382.656" r="68.506"/><circle cx="379.788" cy="382.656" r="68.506"/></g><circle cx="74.849" cy="255.908" r="68.135" fill="#42a555"/><path d="M93.572 191.874c1.085-1.586 3.565-.778 3.512 1.143-.444 16.066 15.36 27.568 30.479 22.18 1.808-.645 3.341 1.469 2.17 2.993-9.787 12.736-3.751 31.346 11.642 35.888 1.842.544 1.842 3.156 0 3.699-15.392 4.542-21.429 23.151-11.642 35.888 1.171 1.523-.362 3.637-2.17 2.993-15.118-5.388-30.922 6.114-30.479 22.18.052 1.922-2.428 2.729-3.512 1.143-9.069-13.26-28.605-13.26-37.673 0-1.085 1.586-3.565.778-3.512-1.143.444-16.066-15.36-27.568-30.479-22.18-1.808.645-3.341-1.469-2.17-2.993 9.787-12.736 3.751-31.346-11.642-35.888-1.842-.544-1.842-3.156 0-3.698 15.392-4.542 21.429-23.152 11.642-35.888-1.171-1.523.362-3.637 2.17-2.993 15.118 5.388 30.922-6.114 30.479-22.18-.052-1.922 2.428-2.729 3.512-1.143 9.069 13.259 28.603 13.259 37.673-.001z" fill="#ffdb6c"/><g fill="#f1709f"><ellipse cx="40.102" cy="230.369" rx="4.646" ry="4.653"/><ellipse cx="61.194" cy="214.038" rx="4.646" ry="4.653"/><ellipse cx="88.22" cy="213.475" rx="4.646" ry="4.653"/><ellipse cx="110.66" cy="229.506" rx="4.646" ry="4.653"/><ellipse cx="109.648" cy="282.422" rx="4.646" ry="4.653"/><ellipse cx="88.22" cy="297.891" rx="4.646" ry="4.653"/><ellipse cx="61.194" cy="298.453" rx="4.646" ry="4.653"/><ellipse cx="40.102" cy="282.422" rx="4.646" ry="4.653"/><ellipse cx="118.945" cy="255.921" rx="4.646" ry="4.653"/><ellipse cx="30.832" cy="255.921" rx="4.646" ry="4.653"/><ellipse cx="74.35" cy="256.258" rx="27.049" ry="27.093"/></g><ellipse cx="74.35" cy="256.258" rx="11.472" ry="11.489" fill="#fff"/><path d="M272.073 13.453c1.085-1.586 3.565-.778 3.512 1.143-.444 16.066 15.36 27.568 30.479 22.18 1.808-.645 3.341 1.469 2.17 2.993-9.787 12.736-3.751 31.346 11.642 35.888 1.842.544 1.842 3.156 0 3.698-15.392 4.542-21.429 23.151-11.642 35.888 1.171 1.523-.362 3.637-2.17 2.993-15.118-5.388-30.922 6.114-30.479 22.18.052 1.922-2.428 2.729-3.512 1.143-9.069-13.26-28.605-13.26-37.673 0-1.085 1.586-3.565.778-3.512-1.143.444-16.066-15.36-27.568-30.479-22.18-1.808.645-3.341-1.469-2.17-2.993 9.787-12.736 3.751-31.346-11.642-35.888-1.842-.544-1.842-3.156 0-3.698 15.392-4.542 21.429-23.151 11.642-35.888-1.171-1.523.362-3.637 2.17-2.993 15.118 5.388 30.922-6.114 30.479-22.18-.052-1.922 2.428-2.729 3.512-1.143 9.069 13.259 28.603 13.259 37.673 0z" fill="#ffdb6c"/><g fill="#f1709f"><ellipse cx="218.604" cy="51.948" rx="4.646" ry="4.653"/><ellipse cx="239.695" cy="35.612" rx="4.646" ry="4.653"/><ellipse cx="266.722" cy="35.048" rx="4.646" ry="4.653"/><ellipse cx="289.163" cy="51.083" rx="4.646" ry="4.653"/><ellipse cx="288.151" cy="103.995" rx="4.646" ry="4.653"/><ellipse cx="266.722" cy="119.476" rx="4.646" ry="4.653"/><ellipse cx="239.695" cy="120.039" rx="4.646" ry="4.653"/><ellipse cx="218.604" cy="103.995" rx="4.646" ry="4.653"/><ellipse cx="297.447" cy="77.506" rx="4.646" ry="4.653"/><ellipse cx="209.333" cy="77.506" rx="4.646" ry="4.653"/><ellipse cx="252.853" cy="77.831" rx="27.049" ry="27.093"/></g><ellipse cx="252.853" cy="77.831" rx="11.472" ry="11.489" fill="#fff"/><path d="M450.347 191.941c1.085-1.586 3.565-.778 3.512 1.143-.444 16.066 15.36 27.568 30.479 22.18 1.808-.645 3.341 1.469 2.17 2.993-9.787 12.736-3.751 31.346 11.642 35.888 1.842.544 1.842 3.156 0 3.699-15.392 4.542-21.429 23.151-11.642 35.888 1.171 1.523-.362 3.637-2.17 2.993-15.118-5.388-30.922 6.114-30.479 22.18.054 1.922-2.428 2.729-3.512 1.143-9.069-13.26-28.605-13.26-37.673 0-1.085 1.586-3.565.778-3.512-1.143.444-16.066-15.36-27.568-30.479-22.18-1.808.645-3.341-1.469-2.17-2.993 9.787-12.736 3.751-31.346-11.641-35.888-1.842-.544-1.842-3.156 0-3.699 15.392-4.542 21.429-23.151 11.641-35.888-1.171-1.523.362-3.637 2.17-2.993 15.118 5.388 30.922-6.114 30.479-22.18-.054-1.922 2.428-2.729 3.512-1.143 9.07 13.259 28.604 13.259 37.673 0z" fill="#ffdb6c"/><g fill="#f1709f"><ellipse cx="396.869" cy="230.431" rx="4.646" ry="4.653"/><ellipse cx="417.973" cy="214.1" rx="4.646" ry="4.653"/><ellipse cx="444.987" cy="213.538" rx="4.646" ry="4.653"/><ellipse cx="467.44" cy="229.569" rx="4.646" ry="4.653"/><ellipse cx="466.428" cy="282.485" rx="4.646" ry="4.653"/><ellipse cx="444.987" cy="297.966" rx="4.646" ry="4.653"/><ellipse cx="417.973" cy="298.516" rx="4.646" ry="4.653"/><ellipse cx="396.869" cy="282.485" rx="4.646" ry="4.653"/><ellipse cx="475.724" cy="255.996" rx="4.646" ry="4.653"/><ellipse cx="387.61" cy="255.996" rx="4.646" ry="4.653"/><ellipse cx="431.117" cy="256.32" rx="27.049" ry="27.093"/></g><ellipse cx="431.117" cy="256.32" rx="11.472" ry="11.489" fill="#fff"/><path d="M272.092 370.441c1.085-1.586 3.565-.778 3.512 1.143-.444 16.066 15.36 27.568 30.479 22.18 1.808-.645 3.341 1.469 2.17 2.993-9.787 12.737-3.751 31.346 11.642 35.888 1.842.544 1.842 3.156 0 3.698-15.392 4.542-21.429 23.151-11.642 35.888 1.171 1.523-.362 3.637-2.17 2.993-15.118-5.388-30.922 6.114-30.479 22.18.052 1.922-2.428 2.729-3.512 1.143-9.069-13.26-28.605-13.26-37.673 0-1.085 1.586-3.565.778-3.512-1.143.444-16.066-15.36-27.568-30.479-22.18-1.808.645-3.341-1.469-2.17-2.993 9.787-12.737 3.751-31.346-11.642-35.888-1.842-.544-1.842-3.156 0-3.698 15.392-4.542 21.429-23.151 11.642-35.888-1.171-1.523.362-3.637 2.17-2.993 15.118 5.388 30.922-6.114 30.479-22.18-.052-1.922 2.428-2.729 3.512-1.143 9.069 13.26 28.603 13.26 37.673 0z" fill="#ffdb6c"/><g fill="#f1709f"><ellipse cx="218.617" cy="408.933" rx="4.646" ry="4.653"/><ellipse cx="239.708" cy="392.602" rx="4.646" ry="4.653"/><ellipse cx="266.734" cy="392.04" rx="4.646" ry="4.653"/><ellipse cx="289.175" cy="408.071" rx="4.646" ry="4.653"/><ellipse cx="288.176" cy="460.987" rx="4.646" ry="4.653"/><ellipse cx="266.734" cy="476.456" rx="4.646" ry="4.653"/><ellipse cx="239.708" cy="477.018" rx="4.646" ry="4.653"/><ellipse cx="218.617" cy="460.987" rx="4.646" ry="4.653"/><ellipse cx="297.459" cy="434.498" rx="4.646" ry="4.653"/><ellipse cx="209.345" cy="434.498" rx="4.646" ry="4.653"/><ellipse cx="252.865" cy="434.823" rx="27.049" ry="27.093"/></g><ellipse cx="252.865" cy="434.823" rx="11.472" ry="11.489" fill="#fff"/><path d="M145.651 64.916c1.092-1.598 3.591-.785 3.537 1.151-.447 16.181 15.47 27.764 30.695 22.338 1.822-.648 3.365 1.479 2.187 3.014-9.857 12.827-3.777 31.57 11.725 36.144 1.854.547 1.854 3.179 0 3.726-15.502 4.574-21.581 23.315-11.725 36.144 1.18 1.534-.365 3.664-2.187 3.014-15.226-5.427-31.142 6.157-30.695 22.338.054 1.935-2.445 2.749-3.537 1.151-9.134-13.353-28.808-13.353-37.942 0-1.092 1.597-3.591.785-3.537-1.151.447-16.181-15.47-27.764-30.695-22.338-1.822.648-3.365-1.479-2.187-3.014 9.857-12.827 3.777-31.57-11.725-36.144-1.854-.547-1.854-3.179 0-3.726 15.502-4.574 21.581-23.315 11.725-36.144-1.18-1.534.365-3.664 2.187-3.014 15.226 5.427 31.142-6.157 30.695-22.338-.054-1.935 2.445-2.749 3.537-1.151 9.134 13.355 28.808 13.355 37.942 0z" fill="#42a555"/><g fill="#ffdb6c"><ellipse cx="91.793" cy="103.685" rx="4.679" ry="4.687"/><ellipse cx="113.047" cy="87.233" rx="4.679" ry="4.687"/><ellipse cx="140.261" cy="86.665" rx="4.679" ry="4.687"/><ellipse cx="162.864" cy="102.808" rx="4.679" ry="4.687"/><ellipse cx="161.852" cy="156.111" rx="4.679" ry="4.687"/><ellipse cx="140.261" cy="171.693" rx="4.679" ry="4.687"/><ellipse cx="113.047" cy="172.255" rx="4.679" ry="4.687"/><ellipse cx="91.793" cy="156.111" rx="4.679" ry="4.687"/><ellipse cx="171.198" cy="129.422" rx="4.679" ry="4.687"/><ellipse cx="82.463" cy="129.422" rx="4.679" ry="4.687"/><ellipse cx="126.292" cy="129.76" rx="27.241" ry="27.286"/></g><ellipse cx="126.292" cy="129.76" rx="11.553" ry="11.572" fill="#fff"/><path d="M398.763 64.916c1.092-1.597 3.591-.785 3.537 1.151-.447 16.181 15.47 27.764 30.695 22.338 1.822-.648 3.365 1.479 2.187 3.014-9.857 12.827-3.777 31.57 11.725 36.144 1.854.547 1.854 3.179 0 3.726-15.502 4.574-21.581 23.315-11.725 36.144 1.18 1.534-.365 3.664-2.187 3.014-15.226-5.427-31.142 6.157-30.695 22.338.054 1.935-2.445 2.749-3.537 1.151-9.134-13.353-28.808-13.353-37.942 0-1.092 1.597-3.591.785-3.537-1.151.447-16.181-15.47-27.764-30.695-22.338-1.822.648-3.365-1.479-2.187-3.014 9.857-12.827 3.777-31.57-11.725-36.144-1.854-.547-1.854-3.179 0-3.726 15.502-4.574 21.581-23.315 11.725-36.144-1.18-1.534.365-3.664 2.187-3.014 15.226 5.427 31.142-6.157 30.695-22.338-.054-1.935 2.445-2.749 3.537-1.151 9.135 13.355 28.808 13.355 37.942 0z" fill="#42a555"/><g fill="#ffdb6c"><ellipse cx="344.915" cy="103.685" rx="4.679" ry="4.687"/><ellipse cx="366.156" cy="87.233" rx="4.679" ry="4.687"/><ellipse cx="393.37" cy="86.665" rx="4.679" ry="4.687"/><ellipse cx="415.974" cy="102.808" rx="4.679" ry="4.687"/><ellipse cx="414.961" cy="156.111" rx="4.679" ry="4.687"/><ellipse cx="393.37" cy="171.693" rx="4.679" ry="4.687"/><ellipse cx="366.156" cy="172.255" rx="4.679" ry="4.687"/><ellipse cx="344.915" cy="156.111" rx="4.679" ry="4.687"/><ellipse cx="424.32" cy="129.422" rx="4.679" ry="4.687"/><ellipse cx="335.581" cy="129.422" rx="4.679" ry="4.687"/><ellipse cx="379.401" cy="129.76" rx="27.241" ry="27.286"/></g><ellipse cx="379.401" cy="129.76" rx="11.553" ry="11.572" fill="#fff"/><path d="M145.651 318.14c1.092-1.598 3.591-.785 3.537 1.151-.447 16.181 15.47 27.764 30.695 22.338 1.822-.65 3.365 1.479 2.187 3.014-9.857 12.827-3.777 31.57 11.725 36.144 1.854.547 1.854 3.179 0 3.726-15.502 4.574-21.581 23.315-11.725 36.144 1.18 1.534-.365 3.664-2.187 3.014-15.226-5.427-31.142 6.158-30.695 22.338.054 1.935-2.445 2.749-3.537 1.151-9.134-13.353-28.808-13.353-37.942 0-1.092 1.597-3.591.785-3.537-1.151.447-16.181-15.47-27.764-30.695-22.338-1.822.648-3.365-1.479-2.187-3.014 9.857-12.827 3.777-31.57-11.725-36.144-1.854-.547-1.854-3.179 0-3.726 15.502-4.574 21.581-23.315 11.725-36.144-1.18-1.534.365-3.664 2.187-3.014 15.226 5.427 31.142-6.158 30.695-22.338-.054-1.935 2.445-2.749 3.537-1.151 9.134 13.355 28.808 13.355 37.942 0z" fill="#42a555"/><g fill="#ffdb6c"><ellipse cx="91.793" cy="356.905" rx="4.679" ry="4.687"/><ellipse cx="113.047" cy="340.461" rx="4.679" ry="4.687"/><ellipse cx="140.261" cy="339.886" rx="4.679" ry="4.687"/><ellipse cx="162.864" cy="356.042" rx="4.679" ry="4.687"/><ellipse cx="161.852" cy="409.333" rx="4.679" ry="4.687"/><ellipse cx="140.261" cy="424.914" rx="4.679" ry="4.687"/><ellipse cx="113.047" cy="425.477" rx="4.679" ry="4.687"/><ellipse cx="91.793" cy="409.333" rx="4.679" ry="4.687"/><ellipse cx="171.198" cy="382.656" rx="4.679" ry="4.687"/><ellipse cx="82.463" cy="382.656" rx="4.679" ry="4.687"/><ellipse cx="126.292" cy="382.981" rx="27.241" ry="27.286"/></g><ellipse cx="126.292" cy="382.981" rx="11.553" ry="11.572" fill="#fff"/><path d="M398.763 318.14c1.092-1.598 3.591-.785 3.537 1.151-.447 16.181 15.47 27.764 30.695 22.338 1.822-.65 3.365 1.479 2.187 3.014-9.857 12.827-3.777 31.57 11.725 36.144 1.854.547 1.854 3.179 0 3.726-15.502 4.574-21.581 23.315-11.725 36.144 1.18 1.534-.365 3.664-2.187 3.014-15.226-5.427-31.142 6.158-30.695 22.338.054 1.935-2.445 2.749-3.537 1.151-9.134-13.353-28.808-13.353-37.942 0-1.092 1.597-3.591.785-3.537-1.151.447-16.181-15.47-27.764-30.695-22.338-1.822.648-3.365-1.479-2.187-3.014 9.857-12.827 3.777-31.57-11.725-36.144-1.854-.547-1.854-3.179 0-3.726 15.502-4.574 21.581-23.315 11.725-36.144-1.18-1.534.365-3.664 2.187-3.014 15.226 5.427 31.142-6.158 30.695-22.338-.054-1.935 2.445-2.749 3.537-1.151 9.135 13.355 28.808 13.355 37.942 0z" fill="#42a555"/><g fill="#ffdb6c"><ellipse cx="344.915" cy="356.905" rx="4.679" ry="4.687"/><ellipse cx="366.156" cy="340.461" rx="4.679" ry="4.687"/><ellipse cx="393.37" cy="339.886" rx="4.679" ry="4.687"/><ellipse cx="415.974" cy="356.042" rx="4.679" ry="4.687"/><ellipse cx="414.961" cy="409.333" rx="4.679" ry="4.687"/><ellipse cx="393.37" cy="424.914" rx="4.679" ry="4.687"/><ellipse cx="366.156" cy="425.477" rx="4.679" ry="4.687"/><ellipse cx="344.915" cy="409.333" rx="4.679" ry="4.687"/><ellipse cx="424.32" cy="382.656" rx="4.679" ry="4.687"/><ellipse cx="335.581" cy="382.656" rx="4.679" ry="4.687"/><ellipse cx="379.401" cy="382.981" rx="27.241" ry="27.286"/></g><ellipse cx="379.401" cy="382.981" rx="11.553" ry="11.572" fill="#fff"/><g fill="#634e9b"><circle cx="148.458" cy="9.371" r="9.371"/><circle cx="357.06" cy="9.371" r="9.371"/><circle cx="492.492" cy="156.974" r="9.371"/><circle cx="12.814" cy="156.974" r="9.371"/><circle cx="499.19" cy="357.467" r="9.371"/><circle cx="12.814" cy="357.467" r="9.371"/><circle cx="354.773" cy="502.633" r="9.371"/><circle cx="153.718" cy="502.633" r="9.371"/><path d="M281.36 159.944c1.619-2.364 5.323-1.161 5.244 1.704-.662 23.949 22.933 41.092 45.505 33.062 2.7-.961 4.989 2.189 3.241 4.461-14.613 18.985-5.6 46.725 17.382 53.494 2.749.81 2.749 4.704 0 5.514-22.982 6.77-31.994 34.51-17.382 53.494 1.748 2.272-.541 5.422-3.241 4.461-22.572-8.03-46.167 9.113-45.505 33.062.079 2.865-3.624 4.068-5.244 1.704-13.541-19.764-42.708-19.764-56.247 0-1.619 2.364-5.323 1.161-5.244-1.704.662-23.949-22.933-41.092-45.505-33.062-2.7.961-4.989-2.189-3.241-4.461 14.613-18.985 5.6-46.725-17.382-53.494-2.749-.81-2.749-4.704 0-5.514 22.982-6.77 31.994-34.51 17.382-53.494-1.748-2.272.541-5.422 3.241-4.461 22.572 8.03 46.167-9.113 45.505-33.062-.079-2.865 3.624-4.068 5.244-1.704 13.54 19.764 42.707 19.764 56.247 0z"/></g><g fill="#f1709f"><circle cx="201.523" cy="217.324" r="6.937"/><circle cx="233.023" cy="192.971" r="6.937"/><circle cx="273.369" cy="192.134" r="6.937"/><circle cx="306.868" cy="216.037" r="6.937"/><circle cx="305.369" cy="294.917" r="6.937"/><circle cx="273.369" cy="317.983" r="6.937"/><circle cx="233.023" cy="318.82" r="6.937"/><circle cx="201.523" cy="294.917" r="6.937"/><circle cx="319.238" cy="255.421" r="6.937"/><circle cx="187.692" cy="255.421" r="6.937"/></g><circle cx="252.653" cy="255.908" r="40.384" fill="#ffdb6c"/><circle cx="252.653" cy="255.908" r="17.127" fill="#fff"/></svg>