<svg xmlns="http://www.w3.org/2000/svg" viewBox="0 0 512 512"><path d="M406.069 512H105.931c-9.751 0-17.655-7.904-17.655-17.655V17.655C88.276 7.904 96.18 0 105.931 0h300.138c9.751 0 17.655 7.904 17.655 17.655v476.69c0 9.751-7.904 17.655-17.655 17.655z" fill="#c7cfe2"/><path d="M194.207 353.103a8.829 8.829 0 0 1-8.828-8.828V150.069a8.829 8.829 0 0 1 17.656 0v194.207a8.829 8.829 0 0 1-8.828 8.827zm70.621 0a8.829 8.829 0 0 1-8.828-8.828V150.069a8.829 8.829 0 0 1 17.656 0v194.207a8.829 8.829 0 0 1-8.828 8.827z" fill="#e4eaf6"/><path d="M150.069 291.31h-26.483c-9.751 0-17.655-7.904-17.655-17.655V220.69c0-9.751 7.904-17.655 17.655-17.655h26.483c9.751 0 17.655 7.904 17.655 17.655v52.966c0 9.75-7.904 17.654-17.655 17.654zM220.69 0h17.655v485.517H220.69z" fill="#959cb3"/><path d="M141.241 256h-8.828a8.829 8.829 0 0 1-8.828-8.828v-17.655a8.829 8.829 0 0 1 8.828-8.828h8.828a8.829 8.829 0 0 1 8.828 8.828v17.655a8.829 8.829 0 0 1-8.828 8.828z" fill="#ffd764"/><path d="M423.724 494.345v-8.828H88.276v8.828c0 9.75 7.905 17.655 17.655 17.655h300.138c9.75 0 17.655-7.905 17.655-17.655z" fill="#afb9d2"/></svg>