<svg xmlns="http://www.w3.org/2000/svg" viewBox="0 0 63.878 63.878" width="512" height="512"><g fill="#006DF0"><path d="M63.823 31.599c-.507-3.141-1.608-6.309-3.252-9.041a6.969 6.969 0 0 1-4.605 4.729c.327.701.611 1.423.859 2.158a53.814 53.814 0 0 1-3.289-.021c-1.736-2.401-5.368-3.704-8.331-1.399-.738-1.593-1.292-3.224-1.589-4.936 1.316.079 2.631.18 3.937.359a6.843 6.843 0 0 1-.591-2.791c0-1.266.344-2.451.941-3.474-2.547-.302-5.122-.391-7.677-.6-1.751-.144-3.093 1.541-3.143 3.144-.151 4.434 1.132 8.565 3.139 12.429-2.013 1.618-3.886 3.073-5.946 4.745-2.623-2.622-5.659-4.881-8.688-6.927-1.579-1.066-3.424-.436-4.765.616-4.11 3.224-8.222 6.452-12.332 9.679-.623.49-1.012 1.037-1.209 1.6H3.804c-5.072 0-5.072 7.861 0 7.861h29.871c2.376 0 3.816-1.199 4.606-1.88 5.482-4.744 8.995-7.128 14.479-11.873.129-.11.242-.223.352-.335 2.563.117 5.144.053 7.684-.066 2.194-.096 3.357-1.915 3.027-3.977zm-44.737 10.27c1.547-1.215 3.096-2.428 4.641-3.64 1.558 1.106 3.106 2.309 4.5 3.64h-9.141z"/><path d="M54.068 26.382a6.123 6.123 0 0 0 6.116-6.118c0-3.372-2.745-6.116-6.116-6.116s-6.115 2.745-6.115 6.116a6.124 6.124 0 0 0 6.115 6.118z"/></g></svg>