<svg xmlns="http://www.w3.org/2000/svg" viewBox="0 0 512.152 512.152"><path d="M42.667 512.076H0V167.543C0 74.743 74.667.076 167.467.076c60.8 0 115.2 36.267 137.6 93.867l-39.467 16c-16-40.533-54.4-67.2-98.133-67.2-69.333 0-124.8 55.467-124.8 124.8v344.533z" fill="#415a6b"/><path d="M503.467 182.476c-4.267-10.667-17.067-16-27.733-11.733l-281.6 112c-10.667 4.267-16 17.067-11.733 27.733 4.267 10.667 17.067 16 27.733 11.733l281.6-112c10.666-4.266 17.066-17.066 11.733-27.733z" fill="#ced6e0"/><path d="M473.6 170.743L196.267 281.676c-30.933-76.8 6.4-163.2 83.2-194.133s164.266 6.4 194.133 83.2z" fill="#e8eae9"/><path d="M317.867 381.943c-6.4-14.933-48-39.467-48-39.467S256 389.41 262.4 404.343c6.4 14.933 23.467 22.4 38.4 17.067 14.933-5.334 23.467-24.534 17.067-39.467z" fill="#8ad7f8"/><path d="M297.6 411.81c-10.667 4.267-22.4-1.067-26.667-11.733 0-1.067 0-2.133 1.067-3.2 1.067 0 2.133 0 3.2 1.067 3.2 8.533 12.8 11.733 20.267 8.533 1.067 0 2.133 0 3.2 1.067 1.066 2.132 0 4.266-1.067 4.266z" fill="#fff"/><path d="M413.867 343.543c-6.4-14.933-48-39.467-48-39.467S352 351.01 358.4 365.943s23.467 22.4 38.4 17.067c14.933-5.334 23.467-24.534 17.067-39.467z" fill="#8ad7f8"/><path d="M393.6 373.41c-10.667 4.267-22.4-1.067-26.667-11.733 0-1.067 0-2.133 1.067-3.2 1.067 0 2.133 0 3.2 1.067 3.2 8.533 12.8 11.733 20.267 8.533 1.067 0 2.133 0 3.2 1.067s0 4.266-1.067 4.266z" fill="#fff"/><path d="M509.867 305.143c-6.4-14.933-48-39.467-48-39.467S448 312.61 454.4 327.543s23.467 22.4 38.4 17.067c16-6.4 23.467-24.534 17.067-39.467z" fill="#8ad7f8"/><path d="M489.6 335.01c-10.667 4.267-22.4-1.067-26.667-11.733 0-1.067 0-2.133 1.067-3.2 1.067 0 2.133 0 3.2 1.067 3.2 8.533 12.8 11.733 20.267 8.533 1.067 0 2.133 0 3.2 1.067 1.066 3.199 0 4.266-1.067 4.266z" fill="#fff"/><path d="M402.133 453.41c-6.4-14.933-48-39.467-48-39.467s-13.867 46.933-7.467 61.867c6.4 14.933 23.467 22.4 38.4 17.067 14.934-5.334 23.467-23.467 17.067-39.467z" fill="#8ad7f8"/><path d="M381.867 484.343c-10.667 4.267-22.4-1.067-26.667-11.733 0-1.067 0-2.133 1.067-3.2 1.067 0 2.133 0 3.2 1.067 3.2 8.533 12.8 11.733 20.267 8.533 1.067 0 2.133 0 3.2 1.067 1.066 2.133-.001 3.199-1.067 4.266z" fill="#fff"/><path d="M498.133 416.076c-6.4-14.933-48-39.467-48-39.467s-13.867 46.933-7.467 61.867c6.4 14.933 23.467 22.4 38.4 17.067 16.001-7.467 23.467-24.533 17.067-39.467z" fill="#8ad7f8"/><path d="M477.867 445.943c-10.667 4.267-22.4-1.067-26.667-11.733 0-1.067 0-2.133 1.067-3.2s2.133 0 3.2 1.067c3.2 8.533 12.8 11.733 20.267 8.533 1.067 0 2.133 0 3.2 1.067 1.066 2.133-.001 3.199-1.067 4.266z" fill="#fff"/></svg>