<svg xmlns="http://www.w3.org/2000/svg" viewBox="0 0 216.291 216.291"><path d="M161.468 197.507h14.288c2.755 0 4.988 1.401 4.988 3.131 0 1.728-2.233 3.13-4.988 3.13h-.665c-2.755 0-4.988 1.402-4.988 3.13 0 1.73 2.233 3.132 4.988 3.132h30.715c2.755 0 4.988 1.401 4.988 3.131 0 1.729-2.233 3.13-4.988 3.13h-77.482c-2.755 0-4.988-1.401-4.988-3.13 0-1.73 2.233-3.131 4.988-3.131h8.524c2.756 0 4.989-1.402 4.989-3.132 0-1.728-2.233-3.13-4.989-3.13h-40.57c-2.754 0-4.987-1.402-4.987-3.13 0-1.73 2.233-3.131 4.987-3.131h65.19zm-125.561 5.23c4.132 0 7.482-2.104 7.482-4.697 0-2.594-3.35-4.696-7.482-4.696H12.978c-4.133 0-7.482 2.102-7.482 4.696 0 2.593 3.349 4.697 7.482 4.697h22.929zM30.292 48.531c4.301 4.26 4.301 11.168 0 15.429s-11.275 4.261-15.576 0-4.301-11.169 0-15.429c4.301-4.262 11.275-4.262 15.576 0zM65.949 2.068a7.012 7.012 0 0 1 0 9.983c-2.782 2.755-7.294 2.755-10.076 0a7.012 7.012 0 0 1 0-9.983c2.782-2.757 7.294-2.757 10.076 0z" fill="#0cb04a"/><path d="M116.936 198.994H83.778c-18.836 0-34.106-15.27-34.106-34.106v-47.562c0-22.242 18.031-40.272 40.272-40.272h20.826c22.242 0 40.273 18.03 40.273 40.272v47.562c0 18.836-15.27 34.106-34.107 34.106z" fill="#fbb713"/><path d="M117.425 77.054H83.29V60.657h34.135v16.397z" fill="#ff3a2f"/><path d="M172.04 25.817H81.222c-3.714 0-6.724 2.982-6.724 6.661 0 3.679 3.01 6.66 6.724 6.66h3.879c3.712 0 6.723 2.982 6.723 6.661v14.858h17.067V45.799c0-3.679 3.011-6.661 6.724-6.661h56.425c3.713 0 6.724-2.981 6.724-6.66 0-3.679-3.011-6.661-6.724-6.661z" fill="#142a3b"/><path d="M91.824 50.267v10.39h17.067v-10.39H91.824z" opacity=".35"/><path d="M117.425 107.3H83.291v-7.209h34.134v7.209zm0 16.908H83.291v-7.21h34.134v7.21zm0 16.908H83.291v-7.21h34.134v7.21z" fill="#142a3b"/><path d="M161.711 93.963c0-5.966 10.905-19.456 10.905-19.456s10.904 13.49 10.904 19.456c0 5.966-4.882 10.803-10.904 10.803-6.023 0-10.905-4.837-10.905-10.803z" fill="#0cb04a"/><path d="M151.043 159.031l-101.371.569v19.767c0 10.84 8.87 19.627 19.813 19.627h61.746c10.941 0 19.812-8.787 19.812-19.627V159.6" fill="#2476ff"/><path d="M127.051 80.883c8.278 7.495 13.503 18.244 13.503 30.228v61.329c0 10.839-8.871 19.627-19.812 19.627H58.996c-1.79 0-3.514-.256-5.163-.697a19.825 19.825 0 0 0 15.652 7.624h61.746c10.941 0 19.812-8.787 19.812-19.627v-61.329c0-16.477-9.838-30.644-23.992-37.155z" opacity=".25"/><path d="M68.037 188.627c-2.01 0-3.639-1.614-3.639-3.604v-71.188c0-1.991 1.629-3.605 3.639-3.605 2.009 0 3.639 1.614 3.639 3.605v71.188c0 1.99-1.63 3.604-3.639 3.604z" fill="#fff"/></svg>