<svg xmlns="http://www.w3.org/2000/svg" width="512" height="512" viewBox="0 0 487.804 487.804"><path d="M202.602 82.606c22.812 0 41.301-18.493 41.301-41.3C243.902 18.493 225.414 0 202.602 0 179.794 0 161.3 18.493 161.3 41.306c-.001 22.807 18.494 41.3 41.302 41.3zm251.98 277.765l-53.555-46.035a12.712 12.712 0 0 0-1.1-.844c-13.039-10.174-29.252-14.941-45.778-13.441-13.48 1.225-26.004 6.526-36.133 15.155l-56.849-48.862c1.502-2.416 2.671-5.213 3.379-8.392 13.131-58.942 31.139-134.713-25.521-156.989-27.323-10.743-61.955-9.255-82.003 6.846-15.971 12.824-23.501 18.832-42.246 32.706l-32.201-27.678c-1.19-3.675-2.433-7.261-3.776-10.551-3.38-8.272-13.766-13.594-22.457-11.997L43.459 79.215a3.677 3.677 0 0 0-5.183.388l-8.431 9.813a3.675 3.675 0 0 0 .39 5.182l11.406 9.804c-1.13 6.141-.306 15.321 3.744 29.681 5.621 19.931 33.348 79.91 62.561 63.796 8.215-4.531 16.315-9.911 24.191-15.692l20.271 17.424c-.313 67.47-1.336 210.295-3.607 265.405-1.264 30.447 45.959 30.32 47.201 0 2.209-53.666 2.757-107.365 2.895-161.067 2.232.127 4.481.11 6.713-.031.129 53.709.68 107.388 2.894 161.099 1.248 30.32 48.452 30.447 47.205 0-1.508-36.4-2.245-112.295-2.604-178.854l51.688 44.427c-7.01 11.312-10.369 24.488-9.555 38 .998 16.562 8.148 31.878 20.164 43.237.31.334.644.654 1 .961l53.556 46.033c5.13 4.41 12.863 3.824 17.271-1.305l68.656-79.877c4.412-5.129 3.826-12.861-1.303-17.268z" fill="#91DC5A"/></svg>