<svg xmlns="http://www.w3.org/2000/svg" viewBox="0 0 512 512"><path d="M480 85.333c-17.646 0-32 14.354-32 32V256h-74.667c-17.646 0-32 14.354-32 32s14.354 32 32 32h53.333v85.333h-32A10.66 10.66 0 0 0 383.999 416a10.66 10.66 0 0 0 10.667 10.667H480A10.66 10.66 0 0 0 490.667 416 10.66 10.66 0 0 0 480 405.333h-32V320h32c17.646 0 32-14.354 32-32V117.333c0-17.645-14.354-32-32-32z" fill="#303c42"/><path d="M490.667 288c0 5.885-4.781 10.667-10.667 10.667H373.333c-5.885 0-10.667-4.781-10.667-10.667 0-5.885 4.781-10.667 10.667-10.667h85.333a10.66 10.66 0 0 0 10.667-10.667V117.333c0-5.885 4.781-10.667 10.667-10.667 5.885 0 10.667 4.781 10.667 10.667V288z" fill="#e0e0e0"/><path d="M480 106.667v170.667c0 5.885-4.781 10.667-10.667 10.667H362.667c0 5.885 4.781 10.667 10.667 10.667H480c5.885 0 10.667-4.781 10.667-10.667V117.333c0-5.885-4.782-10.666-10.667-10.666z" opacity=".1" fill="#010101"/><path d="M138.667 256H64V117.333c0-17.646-14.354-32-32-32s-32 14.354-32 32V288c0 17.646 14.354 32 32 32h32v85.333H32A10.66 10.66 0 0 0 21.333 416 10.66 10.66 0 0 0 32 426.667h85.333A10.66 10.66 0 0 0 128 416a10.66 10.66 0 0 0-10.667-10.667h-32V320h53.333c17.646 0 32-14.354 32-32 .001-17.646-14.353-32-31.999-32z" fill="#303c42"/><path d="M138.667 298.667H32c-5.885 0-10.667-4.781-10.667-10.667V117.333c0-5.885 4.781-10.667 10.667-10.667s10.667 4.781 10.667 10.667v149.333a10.66 10.66 0 0 0 10.667 10.667h85.333c5.885 0 10.667 4.781 10.667 10.667-.001 5.885-4.782 10.667-10.667 10.667z" fill="#e0e0e0"/><path d="M138.667 277.333c0 5.885-4.781 10.667-10.667 10.667H21.333c0 5.885 4.781 10.667 10.667 10.667h106.667c5.885 0 10.667-4.781 10.667-10.667-.001-5.885-4.782-10.667-10.667-10.667z" opacity=".1" fill="#010101"/><path d="M284.99 243.75c9.333 5.74 19.917 12.25 40.281 12.25s30.948-6.51 40.281-12.25c8.26-5.073 14.781-9.083 29.115-9.083A10.66 10.66 0 0 0 405.334 224v-32c0-23.531-19.135-42.667-42.667-42.667H149.333c-23.531 0-42.667 19.135-42.667 42.667v32a10.66 10.66 0 0 0 10.667 10.667c14.292 0 20.792 4.01 29.031 9.083 9.323 5.74 19.885 12.25 40.229 12.25 20.333 0 30.906-6.51 40.229-12.25 5.865-3.611 10.964-6.611 18.51-8.082v169.665h-42.667A10.66 10.66 0 0 0 191.998 416a10.66 10.66 0 0 0 10.667 10.667h106.667A10.66 10.66 0 0 0 319.999 416a10.66 10.66 0 0 0-10.667-10.667h-42.667V235.727c7.429 1.489 12.508 4.451 18.325 8.023z" fill="#303c42"/><path d="M215.635 225.583c-8.24 5.073-14.75 9.083-29.042 9.083-14.302 0-20.802-4.01-29.042-9.083-7.531-4.646-15.885-9.781-29.552-11.583v-22c0-11.76 9.573-21.333 21.333-21.333h213.333c11.76 0 21.333 9.573 21.333 21.333v22c-13.698 1.792-22.063 6.938-29.615 11.583-8.26 5.073-14.781 9.083-29.115 9.083s-20.854-4.01-29.115-9.083c-9.333-5.74-19.917-12.25-40.281-12.25-20.341 0-30.914 6.511-40.237 12.25z" fill="#3d82c4"/><path d="M362.667 170.667H149.333C137.573 170.667 128 180.24 128 192v10.667c0-11.76 9.573-21.333 21.333-21.333h213.333c11.76 0 21.333 9.573 21.333 21.333V192c.001-11.76-9.572-21.333-21.332-21.333z" opacity=".2" fill="#fff"/><path d="M325.271 224c-14.333 0-20.854-4.01-29.115-9.083-9.333-5.74-19.917-12.25-40.281-12.25-20.344 0-30.917 6.51-40.24 12.25-8.24 5.073-14.75 9.083-29.042 9.083-14.302 0-20.802-4.01-29.042-9.083-7.531-4.646-15.885-9.781-29.552-11.583V214c13.667 1.802 22.021 6.938 29.552 11.583 8.24 5.073 14.74 9.083 29.042 9.083 14.292 0 20.802-4.01 29.042-9.083 9.323-5.74 19.896-12.25 40.24-12.25 20.365 0 30.948 6.51 40.281 12.25 8.26 5.073 14.781 9.083 29.115 9.083s20.854-4.01 29.115-9.083c7.552-4.646 15.917-9.792 29.615-11.583v-10.667c-13.698 1.792-22.063 6.938-29.615 11.583-8.261 5.074-14.782 9.084-29.115 9.084z" opacity=".1" fill="#010101"/><linearGradient id="a" gradientUnits="userSpaceOnUse" x1="-47.157" y1="640.343" x2="-22.733" y2="628.954" gradientTransform="matrix(21.3333 0 0 -21.3333 996.333 13791.667)"><stop offset="0" stop-color="#fff" stop-opacity=".2"/><stop offset="1" stop-color="#fff" stop-opacity="0"/></linearGradient><path d="M480 85.333c-17.646 0-32 14.354-32 32V256h-74.667c-17.646 0-32 14.354-32 32s14.354 32 32 32h53.333v85.333h-32A10.66 10.66 0 0 0 383.999 416a10.66 10.66 0 0 0 10.667 10.667H480A10.66 10.66 0 0 0 490.667 416 10.66 10.66 0 0 0 480 405.333h-32V320h32c17.646 0 32-14.354 32-32V117.333c0-17.645-14.354-32-32-32zM138.667 256H64V117.333c0-17.646-14.354-32-32-32s-32 14.354-32 32V288c0 17.646 14.354 32 32 32h32v85.333H32A10.66 10.66 0 0 0 21.333 416 10.66 10.66 0 0 0 32 426.667h85.333A10.66 10.66 0 0 0 128 416a10.66 10.66 0 0 0-10.667-10.667h-32V320h53.333c17.646 0 32-14.354 32-32 .001-17.646-14.353-32-31.999-32zm146.323-12.25c9.333 5.74 19.917 12.25 40.281 12.25s30.948-6.51 40.281-12.25c8.26-5.073 14.781-9.083 29.115-9.083A10.66 10.66 0 0 0 405.334 224v-32c0-23.531-19.135-42.667-42.667-42.667H149.333c-23.531 0-42.667 19.135-42.667 42.667v32a10.66 10.66 0 0 0 10.667 10.667c14.292 0 20.792 4.01 29.031 9.083 9.323 5.74 19.885 12.25 40.229 12.25 20.333 0 30.906-6.51 40.229-12.25 5.865-3.611 10.964-6.611 18.51-8.082v169.665h-42.667A10.66 10.66 0 0 0 191.998 416a10.66 10.66 0 0 0 10.667 10.667h106.667A10.66 10.66 0 0 0 319.999 416a10.66 10.66 0 0 0-10.667-10.667h-42.667V235.727c7.429 1.489 12.508 4.451 18.325 8.023z" fill="url(#a)"/></svg>