<svg xmlns="http://www.w3.org/2000/svg" viewBox="0 0 512 512"><path d="M70.621 80.55h52.966v17.655H70.621zm114.758 0h52.966v17.655h-52.966z" fill="#5cb0ff"/><path d="M308.966 221.794h105.931v97.103H308.966zM36.192 433.102a52.35 52.35 0 0 1 2.072-7.902c.152-.439.314-.868.477-1.302.958-2.546 2.08-5.007 3.402-7.351.177-.314.376-.61.559-.92 1.433-2.421 3.008-4.748 4.795-6.903.032-.039.069-.072.101-.11 1.795-2.152 3.783-4.132 5.893-5.976.225-.196.432-.407.659-.6 2.059-1.74 4.268-3.294 6.578-4.708.382-.234.757-.471 1.145-.696a52.795 52.795 0 0 1 7.208-3.463c.435-.17.871-.323 1.311-.481 2.566-.924 5.207-1.684 7.939-2.205.348-.066.704-.101 1.055-.161 2.897-.492 5.854-.807 8.89-.807s5.993.315 8.89.807c.351.06.707.095 1.055.161 2.732.521 5.372 1.281 7.939 2.205.44.158.877.311 1.311.481a52.678 52.678 0 0 1 7.208 3.463c.388.225.762.462 1.145.696 2.309 1.414 4.519 2.968 6.578 4.708.228.193.435.404.659.6 2.11 1.844 4.098 3.823 5.893 5.976.032.038.068.072.101.11 1.787 2.155 3.362 4.482 4.795 6.903.183.31.382.606.559.92 1.322 2.343 2.444 4.805 3.402 7.351.163.434.324.863.477 1.302a52.38 52.38 0 0 1 2.072 7.902c.034.19.113.363.145.553H291.31V159.999c0-24.336-19.78-44.138-44.095-44.138H61.75c-24.315 0-44.095 19.802-44.095 44.138v8.828h45.224v17.655H17.655v26.483h45.224v17.655H17.655v26.483h45.224v17.655H17.655v26.483h45.224v17.655H17.655v114.759h18.392c.033-.191.111-.364.145-.553zM476.69 318.896v-48.552c0-10.155-16.991-33.466-30.396-48.552h-13.741v97.103h44.137z" fill="#d0e8ff"/><path d="M432.552 336.551v.336h-17.655v-.336H308.966v97.103h44.875c.032-.19.111-.363.145-.553a52.231 52.231 0 0 1 2.072-7.902c.152-.439.314-.868.477-1.302.958-2.546 2.08-5.007 3.402-7.351.177-.314.376-.61.559-.92 1.433-2.421 3.008-4.748 4.795-6.903.032-.039.069-.072.101-.11 1.795-2.152 3.783-4.132 5.893-5.976.225-.196.432-.407.659-.6 2.059-1.74 4.268-3.294 6.578-4.708.382-.234.757-.471 1.145-.696a52.795 52.795 0 0 1 7.208-3.463c.435-.17.871-.323 1.311-.481 2.566-.924 5.207-1.684 7.939-2.205.348-.066.704-.101 1.055-.161 2.897-.492 5.854-.807 8.89-.807 3.036 0 5.993.315 8.89.807.351.06.707.095 1.055.161 2.732.521 5.372 1.281 7.939 2.205.44.158.877.311 1.311.481a52.734 52.734 0 0 1 7.208 3.463c.388.225.763.462 1.145.696 2.309 1.414 4.519 2.968 6.578 4.708.228.193.435.404.659.6 2.11 1.844 4.098 3.823 5.893 5.976.032.038.068.072.101.11 1.787 2.155 3.362 4.482 4.795 6.903.183.31.382.606.559.92 1.322 2.343 2.444 4.805 3.402 7.351.163.434.324.863.477 1.302a52.38 52.38 0 0 1 2.072 7.902c.034.19.113.363.145.553h36.047v-97.103h-61.794zm-17.655 26.483h-35.31v-17.655h35.31v17.655z" fill="#5cb0ff"/><path d="M88.276 407.172c-19.47 0-35.31 15.836-35.31 35.31 0 19.474 15.84 35.31 35.31 35.31s35.31-15.836 35.31-35.31c0-19.474-15.84-35.31-35.31-35.31zm317.793 0c-19.47 0-35.31 15.836-35.31 35.31 0 19.474 15.84 35.31 35.31 35.31 19.47 0 35.31-15.836 35.31-35.31 0-19.474-15.84-35.31-35.31-35.31z" fill="#d0e8ff"/><g fill="#1c71da"><path d="M503.172 318.896h-8.828v-48.552c0-21.491-31.366-56.56-37.651-63.371a8.826 8.826 0 0 0-6.487-2.836h-141.24v-44.138c0-31.078-23.074-56.803-52.966-61.094V71.723a8.826 8.826 0 0 0-8.828-8.828h-70.621a8.826 8.826 0 0 0-8.828 8.828v26.483H141.24V71.723a8.826 8.826 0 0 0-8.828-8.828H61.793a8.826 8.826 0 0 0-8.828 8.828v27.182C23.074 103.196 0 128.922 0 159.999v282.483a8.826 8.826 0 0 0 8.828 8.828h27.28c4.222 25.01 25.975 44.138 52.168 44.138s47.945-19.128 52.168-44.138h213.457c4.222 25.01 25.975 44.138 52.168 44.138s47.945-19.128 52.168-44.138h44.935a8.826 8.826 0 0 0 8.828-8.828V327.723a8.825 8.825 0 0 0-8.828-8.827zm-56.879-97.104c13.405 15.086 30.396 38.396 30.396 48.552v48.552h-44.138v-97.103h13.742zm-31.396 0v97.103H308.966v-97.103h105.931zM185.379 80.551h52.966v17.655h-52.966V80.551zm-114.758 0h52.966v17.655H70.621V80.551zM17.655 318.896h45.224v-17.655H17.655v-26.483h45.224v-17.655H17.655V230.62h45.224v-17.655H17.655v-26.483h45.224v-17.655H17.655v-8.828c0-24.336 19.78-44.138 44.095-44.138h185.466c24.315 0 44.095 19.802 44.095 44.138v273.656H140.504c-.032-.19-.111-.363-.145-.553a52.35 52.35 0 0 0-2.072-7.902c-.152-.439-.314-.868-.477-1.302-.958-2.546-2.08-5.007-3.402-7.351-.177-.314-.376-.61-.559-.92-1.433-2.421-3.008-4.748-4.795-6.903-.032-.039-.069-.072-.101-.11-1.795-2.152-3.783-4.132-5.893-5.976-.225-.196-.432-.407-.659-.6-2.059-1.74-4.268-3.294-6.578-4.708-.382-.234-.757-.471-1.145-.696a52.795 52.795 0 0 0-7.208-3.463c-.435-.17-.871-.323-1.311-.481-2.566-.924-5.207-1.684-7.939-2.205-.348-.066-.704-.101-1.055-.161-2.897-.492-5.854-.807-8.89-.807-3.036 0-5.993.315-8.89.807-.351.06-.707.095-1.055.161-2.732.521-5.372 1.281-7.939 2.205-.44.158-.877.311-1.311.481a52.678 52.678 0 0 0-7.208 3.463c-.388.225-.762.462-1.145.696-2.309 1.414-4.519 2.968-6.578 4.708-.228.193-.435.404-.659.6-2.11 1.844-4.098 3.823-5.893 5.976-.032.038-.068.072-.101.11-1.787 2.155-3.362 4.482-4.795 6.903-.183.31-.382.606-.559.92-1.322 2.343-2.444 4.805-3.402 7.351-.163.434-.324.863-.477 1.302a52.38 52.38 0 0 0-2.072 7.902c-.034.19-.113.363-.145.553H17.655V318.896zm70.621 158.896c-19.47 0-35.31-15.836-35.31-35.31 0-19.474 15.84-35.31 35.31-35.31s35.31 15.836 35.31 35.31c0 19.474-15.84 35.31-35.31 35.31zm317.793 0c-19.47 0-35.31-15.836-35.31-35.31 0-19.474 15.84-35.31 35.31-35.31 19.47 0 35.31 15.836 35.31 35.31 0 19.474-15.84 35.31-35.31 35.31zm88.276-44.138h-36.047c-.032-.19-.111-.363-.145-.553a52.35 52.35 0 0 0-2.072-7.902 57.691 57.691 0 0 0-.477-1.302c-.958-2.546-2.08-5.007-3.402-7.351-.177-.314-.376-.61-.559-.92-1.433-2.421-3.008-4.748-4.795-6.903-.032-.039-.069-.072-.101-.11-1.795-2.152-3.783-4.132-5.893-5.976-.225-.196-.432-.407-.659-.6-2.059-1.74-4.268-3.294-6.578-4.708-.382-.234-.757-.471-1.145-.696a52.795 52.795 0 0 0-7.208-3.463c-.435-.17-.871-.323-1.311-.481-2.566-.924-5.207-1.684-7.939-2.205-.348-.066-.704-.101-1.055-.161-2.897-.492-5.854-.807-8.89-.807-3.036 0-5.993.315-8.89.807-.351.06-.707.095-1.055.161-2.732.521-5.372 1.281-7.939 2.205-.44.158-.877.311-1.311.481a52.678 52.678 0 0 0-7.208 3.463c-.388.225-.762.462-1.145.696-2.309 1.414-4.519 2.968-6.578 4.708-.228.193-.435.404-.659.6-2.11 1.844-4.098 3.823-5.893 5.976-.032.038-.068.072-.101.11-1.787 2.155-3.362 4.482-4.795 6.903-.183.31-.382.606-.559.92-1.322 2.343-2.444 4.805-3.402 7.351-.163.434-.324.863-.477 1.302a52.38 52.38 0 0 0-2.072 7.902c-.034.19-.113.363-.145.553h-44.875v-97.103h105.931v.336h17.655v-.336h61.794v97.103z"/><path d="M379.586 345.38h35.31v17.655h-35.31z"/></g><g fill="#ff5d5d"><path d="M416.032 166.62a8.798 8.798 0 0 1-6.242-2.586 8.827 8.827 0 0 1 0-12.483L441 120.34a8.828 8.828 0 0 1 12.485 0 8.827 8.827 0 0 1 0 12.483l-31.21 31.211a8.8 8.8 0 0 1-6.243 2.586z"/><path d="M447.242 166.62a8.798 8.798 0 0 1-6.242-2.586l-31.21-31.209a8.827 8.827 0 0 1 0-12.483 8.828 8.828 0 0 1 12.485 0l31.21 31.209a8.827 8.827 0 0 1-6.243 15.069z"/></g><path d="M164.446 334.344c-17.037 0-30.897-13.86-30.897-30.897s13.86-30.897 30.897-30.897 30.897 13.86 30.897 30.897-13.86 30.897-30.897 30.897zm0-44.138c-7.302 0-13.241 5.94-13.241 13.241 0 7.302 5.94 13.241 13.241 13.241s13.241-5.94 13.241-13.241c0-7.301-5.939-13.241-13.241-13.241z" fill="#00d40b"/><path d="M308.587 84.141a8.796 8.796 0 0 1-6.241-2.586l-24.969-24.968a8.825 8.825 0 0 1 0-12.482l24.969-24.968c3.448-3.446 9.038-3.446 12.484 0l24.968 24.968a8.827 8.827 0 0 1 0 12.483L314.83 81.555a8.802 8.802 0 0 1-6.243 2.586zm-12.485-33.795l12.485 12.483 12.484-12.483-12.484-12.483-12.485 12.483z" fill="#ffc504"/></svg>