<svg xmlns="http://www.w3.org/2000/svg" viewBox="0 0 512 512"><path d="M316.746 104.136v104.136c22.563 0 86.78 15.62 86.78 86.78v208.271h104.136V295.051c-.001-131.905-111.947-190.915-190.916-190.915m-121.492 0v104.136c-71.159 0-86.78 64.217-86.78 86.78H4.339c0-78.971 59.01-190.916 190.915-190.916" fill="#e8edee"/><path d="M195.254 208.271h121.492V104.136H195.254v104.135z" fill="#c7cbc7"/><path d="M221.288 104.136h69.424V69.424h-69.424v34.712z" fill="#e8edee"/><path d="M507.661 34.712H351.458l-43.39 34.712h-86.78V34.712h69.424L334.102 0h173.559v34.712z" fill="#c7cbc7"/><path d="M273.356 34.712h-34.712V17.356C238.644 7.81 246.454 0 256 0c9.546 0 17.356 7.81 17.356 17.356v17.356z" fill="#e8edee"/><path d="M30.373 355.797c-5.207 0-8.678-3.471-8.678-8.678v-17.356c0-5.207 3.471-8.678 8.678-8.678s8.678 3.471 8.678 8.678v17.356c0 5.206-3.471 8.678-8.678 8.678m0 52.067c-5.207 0-8.678-3.471-8.678-8.678V381.83c0-5.207 3.471-8.678 8.678-8.678s8.678 3.471 8.678 8.678v17.356c0 5.207-3.471 8.678-8.678 8.678m0 52.068c-5.207 0-8.678-3.471-8.678-8.678v-17.356c0-5.207 3.471-8.678 8.678-8.678s8.678 3.471 8.678 8.678v17.356c0 5.207-3.471 8.678-8.678 8.678m0 52.068c-5.207 0-8.678-3.471-8.678-8.678v-17.356c0-5.207 3.471-8.678 8.678-8.678s8.678 3.471 8.678 8.678v17.356c0 5.207-3.471 8.678-8.678 8.678m43.39-156.203c-5.207 0-8.678-3.471-8.678-8.678v-17.356c0-5.207 3.471-8.678 8.678-8.678 5.207 0 8.678 3.471 8.678 8.678v17.356c0 5.206-3.472 8.678-8.678 8.678m0 52.067c-5.207 0-8.678-3.471-8.678-8.678V381.83c0-5.207 3.471-8.678 8.678-8.678 5.207 0 8.678 3.471 8.678 8.678v17.356c0 5.207-3.472 8.678-8.678 8.678m0 52.068c-5.207 0-8.678-3.471-8.678-8.678v-17.356c0-5.207 3.471-8.678 8.678-8.678 5.207 0 8.678 3.471 8.678 8.678v17.356c0 5.207-3.472 8.678-8.678 8.678m0 52.068c-5.207 0-8.678-3.471-8.678-8.678v-17.356c0-5.207 3.471-8.678 8.678-8.678 5.207 0 8.678 3.471 8.678 8.678v17.356c0 5.207-3.472 8.678-8.678 8.678" fill="#7fabda"/></svg>