<svg viewBox="0 0 250 250" xmlns="http://www.w3.org/2000/svg" fill-rule="evenodd" clip-rule="evenodd" stroke-linejoin="round" stroke-miterlimit="1.414"><path d="M230.258.002l.258.005.257.008.256.011.255.015.254.017.253.021.253.024.251.028.251.03.249.033.249.037.248.039.246.043.246.045.245.049.485.106.482.117.477.129.472.141.467.152.462.162.456.174.452.185.446.195.44.205.434.216.428.226.422.236.415.246.41.256.402.265.396.274.388.283.382.293.374.301.367.311.359.318.351.327.343.336.336.343.327.351.318.359.311.367.301.374.293.382.283.388.274.396.265.402.256.41.246.415.236.422.226.428.216.434.205.44.195.446.185.452.174.456.162.462.152.467.141.472.129.477.117.482.106.485.049.245.045.246.043.246.039.248.037.249.033.249.03.251.028.251.024.253.021.253.017.254.015.255.011.256.008.257.005.258L250 20v210l-.002.258-.005.258-.008.257-.011.256-.015.255-.017.254-.021.253-.024.253-.028.251-.03.251-.033.249-.037.249-.039.248-.043.246-.045.246-.049.245-.106.485-.117.482-.129.477-.141.472-.152.467-.162.462-.174.456-.185.452-.195.446-.205.44-.216.434-.226.428-.236.422-.246.415-.256.41-.265.402-.274.396-.283.388-.293.382-.301.374-.311.367-.318.359-.327.351-.336.343-.343.336-.351.327-.359.318-.367.311-.374.301-.382.293-.388.283-.396.274-.402.265-.41.256-.415.246-.422.236-.428.226-.434.216-.44.205-.446.195-.452.185-.456.174-.462.162-.467.152-.472.141-.477.129-.482.117-.485.106-.245.049-.246.045-.246.043-.248.039-.249.037-.249.033-.251.03-.251.028-.253.024-.253.021-.254.017-.255.015-.256.011-.257.008-.258.005L230 250H20l-.258-.002-.258-.005-.257-.008-.256-.011-.255-.015-.254-.017-.253-.021-.253-.024-.251-.028-.251-.03-.249-.033-.249-.037-.248-.039-.246-.043-.246-.045-.245-.049-.485-.106-.482-.117-.477-.129-.472-.141-.467-.152-.462-.162-.456-.174-.452-.185-.446-.195-.44-.205-.434-.216-.428-.226-.422-.236-.415-.246-.41-.256-.402-.265-.396-.274-.388-.283-.382-.293-.374-.301-.367-.311-.359-.318-.351-.327-.343-.336-.336-.343-.327-.351-.318-.359-.311-.367-.301-.374-.293-.382-.283-.388-.274-.396-.265-.402-.256-.41-.246-.415-.236-.422-.226-.428-.216-.434-.205-.44-.195-.446-.185-.452-.174-.456-.162-.462-.152-.467-.141-.472-.129-.477-.117-.482-.106-.485-.049-.245-.045-.246-.043-.246-.039-.248-.037-.249-.033-.249-.03-.251-.028-.251-.024-.253-.021-.253-.017-.254-.015-.255-.011-.256-.008-.257-.005-.258L0 230V20l.002-.258.005-.258.008-.257.011-.256.015-.255.017-.254.021-.253.024-.253.028-.251.03-.251.033-.249.037-.249.039-.248.043-.246.045-.246.049-.245.106-.485.117-.482.129-.477.141-.472.152-.467.162-.462.174-.456.185-.452.195-.446.205-.44.216-.434.226-.428.236-.422.246-.415.256-.41.265-.402.274-.396.283-.388.293-.382.301-.374.311-.367.318-.359.327-.351.336-.343.343-.336.351-.327.359-.318.367-.311.374-.301.382-.293.388-.283.396-.274.402-.265.41-.256.415-.246.422-.236.428-.226.434-.216.44-.205.446-.195.452-.185.456-.174.462-.162.467-.152.472-.141.477-.129.482-.117.485-.106.245-.049.246-.045.246-.043.248-.039.249-.037.249-.033.251-.03.251-.028.253-.024.253-.021.254-.017.255-.015.256-.011.257-.008.258-.005L20 0h210l.258.002zM20.028 8.333l-.179.001-.156.003-.148.005-.15.007-.152.008-.147.011-.15.012-.145.014-.146.016-.148.018-.147.019-.146.022-.141.022-.144.025-.145.027-.116.023-.306.067-.278.067-.278.076-.274.081-.27.088-.268.094-.265.101-.262.108-.259.113-.256.12-.253.125-.25.132-.246.137-.241.143-.239.15-.236.155-.231.16-.227.166-.224.171-.218.177-.216.182-.211.187-.205.191-.201.197-.197.201-.191.205-.188.212-.182.215-.176.218-.172.224-.165.227-.16.231-.155.236-.149.238-.144.243-.138.247-.131.247-.126.254-.119.255-.114.26-.106.261-.101.265-.095.269-.088.271-.081.273-.075.276-.068.28-.068.309-.023.117-.026.138-.025.147-.023.144-.021.143-.019.147-.018.145-.016.146-.014.151-.012.146-.01.148-.009.151-.007.151-.005.151-.003.15-.001.179v209.95l.001.179.003.15.005.151.007.15.009.152.01.147.012.147.014.151.016.146.018.145.019.147.021.143.023.144.025.147.026.138.023.117.068.309.068.28.075.276.081.273.088.271.095.269.101.265.106.261.114.259.119.256.126.253.132.249.138.247.143.242.149.238.155.236.16.231.165.227.172.224.176.218.182.215.188.212.191.205.197.201.201.197.205.191.212.188.215.182.218.176.224.172.227.165.231.16.236.155.238.149.242.143.247.138.249.132.253.126.256.119.259.114.261.106.265.101.269.095.271.088.273.081.276.075.28.068.309.068.117.023.138.026.147.025.144.023.143.021.147.019.145.018.146.016.151.014.147.012.147.01.152.009.15.007.151.005.15.003.179.001h209.95l.179-.001.15-.003.151-.005.151-.007.151-.009.148-.01.146-.012.151-.014.146-.016.145-.018.147-.019.143-.021.144-.023.147-.025.138-.026.117-.023.309-.068.28-.068.276-.075.273-.081.271-.088.269-.095.265-.101.261-.106.26-.114.255-.119.254-.126.247-.131.247-.138.243-.144.238-.149.236-.155.231-.16.227-.165.224-.172.218-.176.215-.182.212-.188.205-.191.201-.197.197-.201.191-.205.187-.211.182-.216.177-.218.171-.224.166-.227.16-.231.155-.236.15-.239.143-.241.137-.246.132-.25.125-.253.12-.256.113-.259.108-.262.101-.265.094-.268.088-.27.081-.274.076-.278.067-.278.067-.306.023-.116.027-.145.025-.144.022-.141.022-.146.019-.147.018-.148.016-.146.014-.145.012-.15.011-.147.008-.152.007-.15.005-.148.003-.156.001-.179V20.028l-.001-.179-.003-.156-.005-.148-.007-.151-.008-.151-.011-.148-.012-.149-.014-.144-.016-.147-.018-.148-.019-.147-.022-.146-.022-.141-.025-.144-.027-.145-.023-.116-.067-.306-.067-.278-.076-.278-.081-.274-.088-.27-.094-.268-.101-.265-.108-.262-.113-.26-.12-.255-.125-.254-.132-.249-.137-.245-.143-.242-.15-.239-.155-.236-.16-.231-.166-.227-.171-.224-.177-.218-.182-.216-.187-.211-.191-.205-.197-.201-.201-.197-.205-.191-.211-.187-.216-.182-.218-.177-.224-.171-.227-.166-.231-.16-.236-.155-.239-.15-.242-.143-.245-.137-.249-.132-.254-.125-.255-.12-.26-.113-.262-.108-.265-.101-.268-.094-.27-.088-.274-.081-.278-.076-.278-.067-.306-.067-.116-.023-.145-.027-.144-.025-.141-.022-.146-.022-.147-.019-.148-.018-.147-.016-.144-.014-.149-.012-.148-.011-.151-.008-.151-.007-.148-.005-.156-.003-.179-.001H20.028z" fill="#2e98e8"/><path fill="#64bbf1" d="M129.167 70.313h79.123v8.333h-79.123z"/><path d="M60.167 79.523L49.269 63.015l-5.51 3.621 10.898 16.508 5.51-3.621z" fill="#00af73"/><path d="M93.033 57.413L54.462 82.762l3.632 5.502 38.571-25.349-3.632-5.502zm-29.032 70.024l-11.374-16.184-5.402 3.78 11.374 16.184 5.402-3.78z" fill="#00af73"/><path d="M96.209 104.378L58.393 130.84l3.791 5.395L100 109.772l-3.791-5.394z" fill="#00af73"/><path fill="#64bbf1" d="M129.167 120.313h79.123v8.333h-79.123zm0 54.167h79.123v8.333h-79.123z"/><path d="M95.833 199.48H54.167v-37.5h41.666v37.5zm-34.579-30.412v23.324h27.492v-23.324H61.254z" fill="#2e98e8"/></svg>