<svg xmlns="http://www.w3.org/2000/svg" viewBox="0 0 512 512"><path fill="#707487" d="M167.724 361.931h176.552v51.862H167.724z"/><path d="M503.172 370.759H8.828A8.829 8.829 0 0 1 0 361.931V97.103a8.829 8.829 0 0 1 8.828-8.828h494.345a8.829 8.829 0 0 1 8.828 8.828v264.828a8.83 8.83 0 0 1-8.829 8.828z" fill="#959cb3"/><path fill="#ffd764" d="M17.655 105.931h476.69v247.172H17.655z"/><path d="M353.103 423.724H158.897a8.826 8.826 0 0 1-8.828-8.828 8.826 8.826 0 0 1 8.828-8.828h194.207a8.826 8.826 0 0 1 8.828 8.828 8.827 8.827 0 0 1-8.829 8.828z" fill="#959cb3"/><path d="M213.291 235.761a8.796 8.796 0 0 1-6.241-2.586l-98.182-98.216c-3.448-3.448-3.448-9.038 0-12.483a8.825 8.825 0 0 1 12.483 0l98.182 98.216c3.448 3.448 3.448 9.038 0 12.483a8.8 8.8 0 0 1-6.242 2.586zm157.468 106.688a8.798 8.798 0 0 1-6.241-2.586l-107.77-107.784c-3.448-3.448-3.448-9.038 0-12.483a8.825 8.825 0 0 1 12.483 0L377 327.379c3.448 3.448 3.448 9.038 0 12.483a8.796 8.796 0 0 1-6.241 2.587z" fill="#ffe678"/><path d="M236.515 208.183a8.79 8.79 0 0 1-6.241-2.586L210.387 185.7c-3.448-3.448-3.448-9.038 0-12.483 3.448-3.448 9.043-3.448 12.483 0l19.887 19.896c3.448 3.448 3.448 9.038 0 12.483a8.797 8.797 0 0 1-6.242 2.587z" fill="#fff08c"/></svg>