<svg xmlns="http://www.w3.org/2000/svg" viewBox="0 0 512 512"><path d="M346.346 174.603H165.647a9.003 9.003 0 0 1-9.003-9.003v-64.832c0-17.967 14.617-32.584 32.584-32.584h133.538c17.966 0 32.584 14.617 32.584 32.584V165.6a9.005 9.005 0 0 1-9.004 9.003zm-171.697-18.006h162.695v-55.83c0-8.038-6.54-14.578-14.578-14.578h-133.54c-8.038 0-14.578 6.54-14.578 14.578v55.83h.001z" fill="#2bbfa3"/><path d="M493.719 163.593v259.949c0 11.187-9.075 20.274-20.274 20.274H38.543c-11.199 0-20.274-9.087-20.274-20.274V163.593h475.45z" fill="#ccc"/><path d="M512 180.074v84.151c0 5.493-4.452 9.945-9.945 9.945H9.945c-5.493 0-9.945-4.452-9.945-9.945v-84.151c0-18.516 15.01-33.526 33.526-33.526h444.936c18.522 0 33.538 15.016 33.538 33.526z" fill="#e6e6e6"/><g fill="#b3b3b3"><path d="M18.329 274.173h475.389v16.133H18.329z"/><path d="M446.064 282.572v38.818c0 5.749-4.66 10.408-10.408 10.408h-45.948c-5.749 0-10.408-4.66-10.408-10.408v-67.625c0-5.749 4.66-10.408 10.408-10.408h45.948c5.749 0 10.408 4.66 10.408 10.408v28.807zm-313.377 0v38.818c0 5.749-4.66 10.408-10.408 10.408H76.344c-5.749 0-10.408-4.66-10.408-10.408v-67.625c0-5.749 4.66-10.408 10.408-10.408h45.936c5.749 0 10.408 4.66 10.408 10.408v28.807h-.001z"/></g><path d="M446.064 274.17v38.818c0 5.749-4.66 10.408-10.408 10.408h-45.948c-5.749 0-10.408-4.66-10.408-10.408v-67.625c0-5.749 4.66-10.408 10.408-10.408h45.948c5.749 0 10.408 4.66 10.408 10.408v28.807z" fill="#35d8b9"/><path fill="#2bbfa3" d="M400.907 256.564h23.551v45.229h-23.551z"/><path d="M132.687 274.17v38.818c0 5.749-4.66 10.408-10.408 10.408H76.344c-5.749 0-10.408-4.66-10.408-10.408v-67.625c0-5.749 4.66-10.408 10.408-10.408h45.936c5.749 0 10.408 4.66 10.408 10.408v28.807h-.001z" fill="#35d8b9"/><path fill="#2bbfa3" d="M87.542 256.564h23.539v45.229H87.542z"/></svg>