<svg xmlns="http://www.w3.org/2000/svg" viewBox="0 0 58.438 58.438" width="512" height="512"><g fill="#D80027"><path d="M57.9 28.425l-10.258-10.6c-.548-.568-1.519-.98-2.309-.98h-2.274c-.096 0-.198.006-.31.019l-.001-1.791c.034-.743-.453-.995-.606-1.056a.93.93 0 0 0-.335-.062c-.211 0-.524.073-.821.42l-.401.47-7.28-7.527c-.55-.566-1.521-.978-2.311-.978h-3.497c-.949 0-1.769.74-1.908 1.72-.39 2.765-2.307 6.868-4.153 6.868s-3.762-4.103-4.152-6.868c-.138-.981-.959-1.72-1.909-1.72h-2.274c-.789 0-1.76.412-2.308.979L.538 17.919a1.938 1.938 0 0 0-.064 2.609l4.266 4.865c.333.381.789.597 1.302.607.515-.017.958-.209 1.283-.554l5.074-5.34v19.646a1.84 1.84 0 0 0 1.839 1.84h12.5v5.635c0 .913.653 1.824 1.519 2.122l7.016 2.381c.045.015 1.098.368 1.621.368.547 0 1.596-.398 1.639-.415l6.029-2.31c.842-.322 1.477-1.246 1.477-2.146l.007-17.246 7.038 4.1c.287.166.633.256.996.256.621 0 1.213-.252 1.584-.678l2.301-2.625a1.938 1.938 0 0 0-.065-2.609zM26.736 39.933H14.235a.18.18 0 0 1-.181-.182V19.04c0-.885-.508-1.183-.727-1.27a1.065 1.065 0 0 0-.394-.075c-.243 0-.615.087-1.005.497l-5.81 6.114c-.008.009-.025.029-.133-.004l-4.267-4.865a.29.29 0 0 1 .01-.364L11.982 8.472c.231-.239.784-.473 1.116-.473h2.274c.108 0 .243.12.268.293.491 3.478 2.778 8.295 5.794 8.295 3.017 0 5.304-4.817 5.795-8.295.025-.175.159-.292.267-.292h3.496c.334 0 .888.234 1.119.473l7.39 7.64-3.13 3.657-4.836-5.39c-.5-.589-.98-.432-1.162-.36-.15.059-.639.312-.602 1.055l.082 1.775a3.435 3.435 0 0 0-.142-.003H27.44c-.792 0-1.764.412-2.31.979L14.875 28.423a1.938 1.938 0 0 0-.063 2.609l2.351 2.682c.59.674 1.804.871 2.582.412l6.991-4.133v9.94zm29.976-9.992l-2.299 2.623c-.074.086-.371.16-.5.082l-7.416-4.318a1.583 1.583 0 0 0-.787-.225c-.762 0-1.334.62-1.334 1.441v17.682c0 .219-.207.521-.41.598l-6.029 2.311c-.523.199-.968.3-1.043.306-.082-.004-.545-.095-1.093-.28l-7.012-2.38c-.196-.067-.396-.347-.396-.553V29.544c0-.838-.549-1.447-1.305-1.447-.087 0-.175.008-.262.023l-.018-.037-.004.041a1.699 1.699 0 0 0-.532.211L18.896 32.7c-.125.074-.415.004-.488-.078l-2.351-2.683a.286.286 0 0 1 .009-.362l10.255-10.603c.23-.239.784-.473 1.117-.473h2.272c.395 0 1.076.202 1.404.417l3.97 2.574c.694.452 1.897.455 2.599 0l3.969-2.574c.33-.214 1.013-.417 1.405-.417h2.274c.332 0 .885.234 1.115.474L56.7 29.578c.091.089.096.267.012.363z"/><path d="M36.131 23.668a1.218 1.218 0 1 0 .003 2.435 1.218 1.218 0 0 0-.003-2.435zm0 1.683a.466.466 0 1 1 0-.933.466.466 0 0 1 0 .933zm0 4.632a1.218 1.218 0 1 0 .004 2.436 1.218 1.218 0 0 0-.004-2.436zm0 1.683a.467.467 0 1 1 .001-.933.467.467 0 0 1-.001.933zm0 4.63a1.218 1.218 0 0 0 0 2.435 1.219 1.219 0 0 0 0-2.435zm0 1.685a.467.467 0 1 1 .001-.933.467.467 0 0 1-.001.933zm0 4.632a1.218 1.218 0 0 0 0 2.434 1.218 1.218 0 0 0 0-2.434zm0 1.683a.467.467 0 1 1 .001-.933.467.467 0 0 1-.001.933z"/></g></svg>