<svg xmlns="http://www.w3.org/2000/svg" viewBox="0 0 511.998 511.998" width="512" height="512"><circle cx="318.019" cy="87.574" r="38.141" fill="#91DC5A"/><path d="M496.787 432.138h-42.522c-87.467-171.806-74.468-146.308-84.715-166.296a17.065 17.065 0 0 0 5.275-8.306c2.602-9.179-2.73-18.735-11.916-21.338l-57.513-16.296-20.076-62.584 30.144 47.488 12.048-29.371c5.401-13.166-.895-28.217-14.061-33.618l-42.512-17.438c-8.731-3.581-19.463.738-25.315 3.284-16.547 7.203-65.656 29.998-65.656 29.998a17.282 17.282 0 0 0-6.073 26.807l20.648 24.679-10.58 4.6a33.383 33.383 0 0 0-20.032 28.204l-9.286 124.509c-.549 7.37-6.769 13.143-14.159 13.143H33.469c-7.83 0-14.199-6.369-14.199-14.199 0-7.793 6.341-14.199 14.199-14.199h11.495v12.678h98.378V309.01c0-6.221-5.043-11.264-11.264-11.264H56.226c-6.221 0-11.264 5.043-11.264 11.264v22.927H33.469C15.013 331.937 0 346.952 0 365.406c0 .126.008.25.01.375.203 18.282 15.13 33.093 33.459 33.093h107.019c17.42 0 32.081-13.608 33.375-30.98l9.286-124.509a14.16 14.16 0 0 1 8.498-11.965l9.17-3.987-9.529 23.229c-2.27 5.285-4.846 13.323-1.328 20.521l41.488 81.4-28.327 83.369c-3.577 10.526 2.058 21.959 12.584 25.535 10.532 3.577 21.96-2.061 25.535-12.584l31.06-91.415a20.134 20.134 0 0 0-1.125-15.617l-30.065-58.988 6.183.878 34.796 67.091-9.721 89.401c-1.202 11.052 6.784 20.986 17.836 22.187 11.021 1.203 20.984-6.758 22.187-17.836l10.425-95.883a20.13 20.13 0 0 0-2.524-12.145l-34.242-60.067v-.004l3.278-7.991-6.794-1.925c-14.796-4.193-23.08-17.485-23.759-25.988l-5.631-70.432 22.168 69.109a17.285 17.285 0 0 0 11.744 11.349l60.718 17.204c12.877 25.12-.526-1.17 83.694 164.303h-21.075c-8.401 0-15.213 6.811-15.213 15.213s6.811 15.213 15.213 15.213h86.39c8.401 0 15.213-6.811 15.213-15.213.004-8.398-6.807-15.209-15.209-15.209zM218.612 184.053l-3.66-4.375 6.712-3.066-3.052 7.441z" fill="#91DC5A"/><path d="M98.701 231.701h-9.098c-24.654 0-44.639 19.986-44.639 44.639-.001 6.221 5.042 11.264 11.263 11.264h75.85c6.221 0 11.264-5.043 11.264-11.264-.001-24.654-19.987-44.639-44.64-44.639zm-53.735 185.28v8.805h-.003c0 5.78 4.354 10.535 9.96 11.183a17.647 17.647 0 0 0-1.846 7.847c0 9.802 7.946 17.749 17.749 17.749s17.749-7.946 17.749-17.749c0-2.789-.661-5.418-1.807-7.765h14.772a17.631 17.631 0 0 0-1.807 7.765c0 9.802 7.946 17.749 17.749 17.749 9.803 0 17.749-7.946 17.749-17.749 0-2.821-.675-5.479-1.846-7.847 5.606-.647 9.96-5.403 9.96-11.183v-8.805H44.966zm25.859 34.425a6.6 6.6 0 0 1-6.592-6.592 6.598 6.598 0 0 1 6.592-6.592c3.635 0 6.592 2.957 6.592 6.592s-2.957 6.592-6.592 6.592zm46.653 0c-3.635 0-6.592-2.957-6.592-6.592s2.957-6.592 6.592-6.592 6.592 2.957 6.592 6.592-2.957 6.592-6.592 6.592z" fill="#91DC5A"/></svg>