<svg xmlns="http://www.w3.org/2000/svg" viewBox="0 0 423.42 423.42"><path d="M232.104 171.354c30.555 0 55.412-24.858 55.412-55.414 0-30.555-24.857-55.412-55.412-55.412-30.557 0-55.416 24.857-55.416 55.412 0 30.556 24.859 55.414 55.416 55.414zm-104.788 7.873h56.883c-13.523-10.261-23.656-24.75-28.441-41.48-4.787 16.73-14.918 31.219-28.442 41.48zm-47.902-7.873c30.555 0 55.412-24.858 55.412-55.414 0-30.555-24.857-55.412-55.412-55.412S24 85.385 24 115.94c0 30.556 24.859 55.414 55.414 55.414zM24 351.477h281.379V203.226H24v148.251z" fill="none"/><path fill="#73d0f4" d="M94.131 263.888h58.916v36.593H94.131zm235.248 55.182l70.041 36.13V199.505l-70.041 36.131z"/><path d="M82.131 324.481h82.916c6.627 0 12-5.372 12-12v-60.593c0-6.627-5.373-12-12-12H82.131c-6.627 0-12 5.373-12 12v60.593c0 6.628 5.373 12 12 12zm12-60.593h58.916v36.593H94.131v-36.593z" fill="#3d6889"/><path d="M417.664 169.566a11.992 11.992 0 0 0-11.744-.418l-76.541 39.483v-17.404c0-6.628-5.373-12-12-12h-37.373c19.127-14.515 31.51-37.479 31.51-63.287 0-43.788-35.625-79.412-79.412-79.412-36.227 0-66.844 24.39-76.346 57.604-9.504-33.215-40.119-57.604-76.344-57.604C35.625 36.528 0 72.152 0 115.94c0 25.809 12.383 48.772 31.51 63.287H12c-6.627 0-12 5.372-12 12v172.25c0 6.627 5.373 12 12 12h305.379c6.627 0 12-5.373 12-12v-17.402l76.541 39.481a11.996 11.996 0 0 0 11.744-.417 11.997 11.997 0 0 0 5.756-10.247V179.813c0-4.187-2.18-8.069-5.756-10.247zM232.104 60.528c30.555 0 55.412 24.857 55.412 55.412 0 30.556-24.857 55.414-55.412 55.414-30.557 0-55.416-24.858-55.416-55.414 0-30.555 24.859-55.412 55.416-55.412zm-47.905 118.699h-56.883c13.524-10.261 23.654-24.75 28.441-41.48 4.786 16.73 14.919 31.219 28.442 41.48zM24 115.94c0-30.555 24.859-55.412 55.414-55.412s55.412 24.857 55.412 55.412c0 30.556-24.857 55.414-55.412 55.414S24 146.496 24 115.94zm281.379 112.384v123.154H24v-148.25h281.379v25.096zM399.42 355.2l-70.041-36.13v-83.434l70.041-36.131V355.2z" fill="#3d6889"/></svg>