<svg xmlns="http://www.w3.org/2000/svg" viewBox="0 0 202.714 202.714"><path d="M110.078 134.551l-12.061-34.287 35.469 19.922-39.285-43.46-38.487 8.532-8.992 31.25L66.1 139.772l-6-22-.543-11.127.448 36.219 6.721-1.131 6.569 49.123-10.414 9.24 18.162-.424 1.221-11.49s4.295-45.123 4.523-43.906c.229 1.215.127 55.988.127 55.988l20.615-.107-13.547-13.052 11.363-51.884 4.733-.67z" fill="#351f10"/><path fill="#e2d4bf" d="M61.063 79.385l23.484 42.728.668-48.097z"/><path d="M101.619 51.352c-.299-4.088-2.938-7.225-5.887-7.008-1.189.088-2.244.712-3.064 1.686-5.342-5.533-15.785-7.873-26.751-5.291-11.763 2.774-20.464 10.355-21.977 18.3-1.722-.93-3.57-1.067-5.009-.185-2.523 1.546-2.835 5.632-.694 9.124 2.141 3.494 5.922 5.072 8.445 3.525.389-.236.717-.539.998-.885 5.426 5.318 15.695 7.525 26.457 4.988 10.902-2.569 19.17-9.264 21.533-16.553.373.083.758.116 1.146.088 2.952-.216 5.1-3.703 4.803-7.789z" fill="#eabb98"/><g fill="#351f10"><ellipse transform="rotate(4.211 60.746 56.321)" cx="60.756" cy="56.371" rx="2.139" ry="2.319"/><ellipse transform="rotate(4.211 78.732 52.884)" cx="78.752" cy="52.938" rx="2.139" ry="2.318"/></g><path d="M43.839 62.363s3.14-14.648 20.886-19.959 32.279 10.633 32.279 10.633-.588-27.541-33.881-33.827c0 0-33.778 21.015-19.284 43.153z" fill="#351f10"/><path d="M61.862 79.018l-9.143 7.049s14.418 30.492 31.332 35.707L61.862 79.018zm20.185-7.329l2.5 50.425s11.139-25.957 11.619-45.756l-14.119-4.669z" fill="#665e5a"/><path fill="#fff" d="M73.071 75.672l-14.867-4.114 4.679 17.073 11.012-9.703 14.314 4.97-3.449-17.227z"/><path fill="#351f10" d="M98.601 31.958L30.52 42.341l-.965-6.596 68.081-10.383z"/><path fill="#351f10" d="M41.543 5.358L78.235-.004l4.242 29.025-36.693 5.362z"/><path fill="#665e5a" d="M45.644 33.419l-1.178-8.063 36.693-5.358 1.177 8.062z"/><path d="M102.946 38.924s-27.932 7.889-28.417 60.705c0 0 49.763 12.344 83.28-13.574 0 0-8.74-40.944-35.936-44.087l-18.927-3.044z" fill="#f7f2e8"/><path d="M123.299 81.932c4.641-1.639 8.455-4.205 10.902-7.287 1.596-.126 3.457-1.971 4.496-4.631 1.236-3.17.832-6.287-.898-6.961-.398-.156-.836-.162-1.283-.051-2.619-7.342-12.797-12.346-24.576-11.56-10.518.702-19.156 5.813-22.037 12.329-.613-.428-1.264-.617-1.889-.481-1.818.393-2.727 3.317-2.031 6.533.695 3.215 2.732 5.504 4.551 5.111.101-.023.201-.056.299-.094 2.543 3.879 7.373 6.824 13.322 8.189L90.1 134.772l15.092-37.221 17.063-5.143 20.846 37.363-19.802-47.839z" fill="#eabb98"/><path d="M109.289 116.01l-5.229-24.389s6.424-3.689 8.826-3.893c2.664-.225 10.363 2.612 10.363 2.612l-2.455 24.788-11.505.882z" fill="#f9eddc"/><path d="M122.352 41.346c2.42-3.258 12.436-18.285-6.84-20.433-19.326-2.153-13.811 15.398-12.68 18.532-21.276 3.719-15.154 26.559-15.154 26.559s15.992.31 23.266-14.496c0 0 6.105 15.152 25.369 14.969 0 0 1.65-18.419-13.961-25.131z" fill="#351f10"/><ellipse transform="rotate(-3.801 102.265 65.893)" cx="102.321" cy="65.956" rx="2.138" ry="2.319" fill="#351f10"/><ellipse transform="rotate(-3.801 120.582 65.804)" cx="120.493" cy="65.776" rx="2.139" ry="2.319" fill="#351f10"/><path d="M123.512 40.734c1.09-.81 4.416-3.916 2.4-5.285-1.582-1.076-5.281 2.479-4.982 3.76-.084-1.676-.918-5.473-3.113-4.024-1.547 1.018-.518 5.382.602 6.626-1.281-1.793-5.828-1.286-6.072.678-.422 3.42 4.783 3.204 6.752 1.878-1.271 1.719-3.164 4.55-1.074 5.835.205.125 2.211.006 2.451-.145.623-.388 1.135-1.425 1.314-2.377.293 1.538 1.121 3.271 2.518 3.017 2.842-.519 1.457-5.866.313-7.056 1.49 1.189 4.102.841 4.375-.998.463-3.145-3.63-3.37-5.484-1.909z" fill="#f9eddc"/><path d="M74.357 197.19s6.569-86.747 44.382-82.415c37.814 4.33 54.42 71.146 54.42 71.146s-36.184 28.472-98.802 11.269z" fill="#fff7e9"/><path d="M120.795 114.129l-11.506.881S76.1 132.772 77.1 178.772c0 0 39-5 42-46 0 0 19 35 49 32 0 0-17.609-50.286-47.305-50.643z" fill="#f9eddc"/></svg>