<svg xmlns="http://www.w3.org/2000/svg" viewBox="0 0 512 512"><path fill="#e0faf2" d="M140.631 56.224L0 171.733v334.13h512v-334.13L369.02 56.224z"/><path fill="#d1e9e2" d="M512 171.733L369.02 56.224H256v449.639h256z"/><path fill="#fc9fd8" d="M80.785 6.137h352.746v363.665H80.785z"/><path fill="#ec96cb" d="M256.267 6.137H433.53v363.665H256.267z"/><path fill="#f2faf8" d="M0 505.863l215.61-142.648L0 171.733z"/><path fill="#e6f0ee" d="M512 505.863L295.665 363.858 512 171.733z"/><path fill="#d1e9e2" d="M0 505.863l256-208.295 256 208.295z"/><path fill="#c3d9d2" d="M256 505.863V297.568l256 208.295z"/><path d="M287.896 108.537c-13.195 0-24.691 7.728-30.737 19.162-6.046-11.434-17.54-19.162-30.737-19.162-23.159 0-38.504 16.823-38.504 37.574 0 20.75 11.698 33.309 38.504 52.246 23.422 16.549 30.737 28.161 30.737 28.161s7.315-11.612 30.737-28.161c26.804-18.938 38.502-31.496 38.502-52.246.001-20.752-15.342-37.574-38.502-37.574z" fill="#d4498d"/><path d="M287.896 108.537c-13.195 0-24.691 7.728-30.737 19.162v98.82s7.315-11.612 30.737-28.161c26.804-18.938 38.502-31.496 38.502-52.246.001-20.753-15.342-37.575-38.502-37.575z" fill="#c84788"/></svg>