<svg xmlns="http://www.w3.org/2000/svg" viewBox="0 0 512 512"><g fill="#34394c"><path d="M329.018 512c-36.594 0-66.364-29.77-66.364-66.362V182.019a8.072 8.072 0 0 1 8.073-8.073 8.072 8.072 0 0 1 8.073 8.073v263.619c0 27.689 22.527 50.215 50.217 50.215 27.69 0 50.22-22.527 50.22-50.215a8.072 8.072 0 0 1 8.073-8.073 8.072 8.072 0 0 1 8.073 8.073C395.385 482.23 365.612 512 329.018 512z"/><path d="M95.848 359.361a8.072 8.072 0 0 1-8.073-8.073 8.072 8.072 0 0 1 8.073-8.073c27.691 0 50.22-22.527 50.22-50.217V66.362C146.067 29.77 175.838 0 212.432 0 249.027 0 278.8 29.77 278.8 66.362v89.822a8.072 8.072 0 0 1-8.073 8.073 8.072 8.072 0 0 1-8.073-8.073V66.362c0-27.689-22.531-50.215-50.222-50.215s-50.217 22.527-50.217 50.215v226.634c-.001 36.594-29.773 66.365-66.367 66.365zm291.464 94.351a8.072 8.072 0 0 1-8.073-8.073v-185.69a8.072 8.072 0 0 1 8.073-8.073 8.072 8.072 0 0 1 8.073 8.073v185.69a8.074 8.074 0 0 1-8.073 8.073z"/></g><path d="M365.602 178.208a8.072 8.072 0 0 1-8.073-8.073v-60.168a8.072 8.072 0 0 1 8.073-8.073 8.072 8.072 0 0 1 8.073 8.073v60.168a8.073 8.073 0 0 1-8.073 8.073z" fill="#ed7e06"/><path d="M407.941 178.208a8.072 8.072 0 0 1-8.073-8.073v-60.168a8.072 8.072 0 0 1 8.073-8.073 8.072 8.072 0 0 1 8.073 8.073v60.168a8.072 8.072 0 0 1-8.073 8.073z" fill="#ee9a04"/><path d="M403.796 228.551h-34.048c-.249 0-.49-.027-.736-.036v18.874c0 7.133 5.781 12.917 12.917 12.917h9.688c7.133 0 12.917-5.784 12.917-12.917v-18.874c-.248.009-.49.036-.738.036z" fill="#828186"/><path d="M411.307 150.241h-49.072c-7.133 0-12.917 5.784-12.917 12.917v44.966c0 11.28 9.147 20.427 20.43 20.427h34.048c11.283 0 20.43-9.147 20.43-20.427v-44.966c-.002-7.133-5.785-12.917-12.919-12.917z" fill="#48ade1"/><path d="M404.534 228.516c-.248.009-.49.036-.738.036h.738v-.036zM390.18 247.39v-18.838h-20.433c-.249 0-.49-.027-.736-.036v18.874c0 7.133 5.781 12.917 12.917 12.917h9.688c2.065 0 4.01-.497 5.74-1.36-4.249-2.114-7.176-6.488-7.176-11.557z" fill="#625f70"/><path d="M370.489 208.125v-44.966c0-7.133 5.783-12.917 12.917-12.917h-21.17c-7.133 0-12.917 5.784-12.917 12.917v44.966c0 11.28 9.147 20.427 20.43 20.427h21.17c-11.283-.001-20.43-9.148-20.43-20.427z" fill="#2595b7"/><path d="M396.101 184.777h-18.659a8.073 8.073 0 0 1 0-16.146h18.659a8.072 8.072 0 0 1 8.073 8.073 8.072 8.072 0 0 1-8.073 8.073z" fill="#399ec6"/></svg>